LibreBaskerville-Light.ufo
<glyph name="exclam" format="1">
  <advance width="308"/>
  <unicode hex="0021"/>
  <outline>
    <contour>
      <point x="89" y="55" type="curve" smooth="yes"/>
      <point x="89" y="19"/>
      <point x="118" y="-10"/>
      <point x="154" y="-10" type="curve" smooth="yes"/>
      <point x="191" y="-10"/>
      <point x="220" y="19"/>
      <point x="220" y="55" type="curve" smooth="yes"/>
      <point x="220" y="92"/>
      <point x="191" y="121"/>
      <point x="154" y="121" type="curve" smooth="yes"/>
      <point x="118" y="121"/>
      <point x="89" y="92"/>
    </contour>
    <contour>
      <point x="178" y="207" type="line"/>
      <point x="178.0" y="348.778420329"/>
      <point x="192.672611927" y="463.71669689"/>
      <point x="204.462901256" y="556.310605597" type="curve" smooth="yes"/>
      <point x="212.381525065" y="618.498759721"/>
      <point x="219.0" y="670.607887745"/>
      <point x="219" y="714" type="curve" smooth="yes"/>
      <point x="219" y="750"/>
      <point x="194" y="780"/>
      <point x="154" y="780" type="curve" smooth="yes"/>
      <point x="114" y="780"/>
      <point x="89" y="750"/>
      <point x="89" y="714" type="curve" smooth="yes"/>
      <point x="89.0" y="669.184304297"/>
      <point x="94.9139837572" y="617.15643328"/>
      <point x="102.249759806" y="557.752038482" type="curve" smooth="yes"/>
      <point x="114.229126816" y="460.744299623"/>
      <point x="130.0" y="344.065519065"/>
      <point x="130" y="207" type="curve"/>
    </contour>
  </outline>
</glyph>
<glyph name="dollar" format="1">
  <advance width="630"/>
  <unicode hex="0024"/>
  <outline>
    <contour>
      <point x="288" y="900" type="line"/>
      <point x="288" y="780" type="line"/>
      <point x="169" y="773"/>
      <point x="81" y="696"/>
      <point x="81" y="589" type="curve"/>
      <point x="81" y="478"/>
      <point x="156" y="427"/>
      <point x="288" y="367" type="curve"/>
      <point x="288" y="41" type="line"/>
      <point x="196" y="44"/>
      <point x="165" y="84"/>
      <point x="154" y="126" type="curve" smooth="yes"/>
      <point x="145" y="159"/>
      <point x="138" y="230"/>
      <point x="87" y="230" type="curve" smooth="yes"/>
      <point x="62" y="230"/>
      <point x="38" y="213"/>
      <point x="38" y="168" type="curve" smooth="yes"/>
      <point x="38" y="67"/>
      <point x="155" y="-3"/>
      <point x="288" y="-9" type="curve"/>
      <point x="288" y="-170" type="line"/>
      <point x="343" y="-170" type="line"/>
      <point x="343" y="-10" type="line"/>
      <point x="487" y="-5"/>
      <point x="586" y="81"/>
      <point x="586" y="201" type="curve"/>
      <point x="586" y="318"/>
      <point x="506" y="373"/>
      <point x="343" y="447" type="curve"/>
      <point x="343" y="731" type="line"/>
      <point x="479" y="716"/>
      <point x="411" y="570"/>
      <point x="499" y="570" type="curve" smooth="yes"/>
      <point x="531" y="570"/>
      <point x="551" y="590"/>
      <point x="551" y="624" type="curve" smooth="yes"/>
      <point x="551" y="698"/>
      <point x="456" y="767"/>
      <point x="343" y="778" type="curve"/>
      <point x="343" y="900" type="line"/>
    </contour>
    <contour>
      <point x="493" y="175" type="curve"/>
      <point x="493" y="89"/>
      <point x="441" y="44"/>
      <point x="343" y="41" type="curve"/>
      <point x="343" y="344" type="line"/>
      <point x="465" y="291"/>
      <point x="493" y="243"/>
    </contour>
    <contour>
      <point x="165" y="619" type="curve"/>
      <point x="165" y="684"/>
      <point x="219" y="722"/>
      <point x="288" y="728" type="curve"/>
      <point x="288" y="471" type="line"/>
      <point x="218" y="507"/>
      <point x="165" y="548"/>
    </contour>
  </outline>
</glyph>
<glyph name="ampersand" format="1">
  <advance width="878"/>
  <unicode hex="0026"/>
  <outline>
    <contour>
      <point x="347" y="458" type="curve"/>
      <point x="315" y="505"/>
      <point x="289" y="567"/>
      <point x="289" y="625" type="curve" smooth="yes"/>
      <point x="289" y="691"/>
      <point x="320" y="725"/>
      <point x="372" y="725" type="curve"/>
      <point x="421" y="725"/>
      <point x="449" y="689"/>
      <point x="449" y="627" type="curve" smooth="yes"/>
      <point x="449" y="567"/>
      <point x="410" y="507"/>
    </contour>
    <contour>
      <point x="474" y="139" type="line"/>
      <point x="417" y="89"/>
      <point x="329" y="53"/>
      <point x="264" y="53" type="curve"/>
      <point x="185" y="53"/>
      <point x="137" y="111"/>
      <point x="137" y="187" type="curve"/>
      <point x="137" y="266"/>
      <point x="205" y="325"/>
      <point x="299" y="370" type="curve"/>
    </contour>
    <contour>
      <point x="375" y="420" type="line"/>
      <point x="486" y="496"/>
      <point x="532" y="557"/>
      <point x="532" y="631" type="curve" smooth="yes"/>
      <point x="532" y="718"/>
      <point x="469" y="780"/>
      <point x="373" y="780" type="curve"/>
      <point x="267" y="780"/>
      <point x="195" y="704"/>
      <point x="195" y="612" type="curve"/>
      <point x="195" y="542"/>
      <point x="226" y="475"/>
      <point x="268" y="413" type="curve"/>
      <point x="100" y="339"/>
      <point x="36" y="265"/>
      <point x="36" y="165" type="curve"/>
      <point x="36" y="60"/>
      <point x="116" y="-10"/>
      <point x="244" y="-10" type="curve"/>
      <point x="344" y="-10"/>
      <point x="432" y="41"/>
      <point x="500" y="103" type="curve"/>
      <point x="564" y="22"/>
      <point x="619" y="-10"/>
      <point x="695" y="-10" type="curve"/>
      <point x="764" y="-10"/>
      <point x="819" y="31"/>
      <point x="843" y="105" type="curve"/>
      <point x="818" y="112" type="line"/>
      <point x="796" y="67"/>
      <point x="770" y="55"/>
      <point x="735" y="55" type="curve"/>
      <point x="676" y="55"/>
      <point x="620" y="94"/>
      <point x="564" y="167" type="curve"/>
      <point x="709" y="379" type="line" smooth="yes"/>
      <point x="738" y="421"/>
      <point x="759" y="432"/>
      <point x="817" y="432" type="curve"/>
      <point x="817" y="467" type="line"/>
      <point x="587" y="467" type="line"/>
      <point x="587" y="432" type="line"/>
      <point x="630" y="432"/>
      <point x="648" y="423"/>
      <point x="648" y="402" type="curve" smooth="yes"/>
      <point x="648" y="367"/>
      <point x="602" y="288"/>
      <point x="537" y="209" type="curve"/>
    </contour>
  </outline>
</glyph>
<glyph name="zero" format="1">
  <advance width="714"/>
  <unicode hex="0030"/>
  <outline>
    <contour>
      <point x="357" y="780" type="curve" smooth="yes"/>
      <point x="194" y="780"/>
      <point x="61" y="605"/>
      <point x="61" y="379" type="curve" smooth="yes"/>
      <point x="61" y="162"/>
      <point x="194" y="-10"/>
      <point x="357" y="-10" type="curve" smooth="yes"/>
      <point x="520" y="-10"/>
      <point x="653" y="162"/>
      <point x="653" y="379" type="curve" smooth="yes"/>
      <point x="653" y="605"/>
      <point x="520" y="780"/>
    </contour>
    <contour>
      <point x="357" y="38" type="curve"/>
      <point x="243" y="38"/>
      <point x="166" y="116"/>
      <point x="166" y="376" type="curve" smooth="yes"/>
      <point x="166" y="647"/>
      <point x="243" y="732"/>
      <point x="357" y="732" type="curve"/>
      <point x="471" y="732"/>
      <point x="548" y="647"/>
      <point x="548" y="376" type="curve" smooth="yes"/>
      <point x="548" y="116"/>
      <point x="470" y="38"/>
    </contour>
  </outline>
</glyph>
<glyph name="two" format="1">
  <advance width="616"/>
  <unicode hex="0032"/>
  <outline>
    <contour>
      <point x="172" y="90" type="line"/>
      <point x="366" y="234"/>
      <point x="547" y="399"/>
      <point x="547" y="564" type="curve" smooth="yes"/>
      <point x="547" y="691"/>
      <point x="448" y="781"/>
      <point x="307" y="781" type="curve" smooth="yes"/>
      <point x="165" y="781"/>
      <point x="59" y="692"/>
      <point x="59" y="573" type="curve" smooth="yes"/>
      <point x="59" y="486"/>
      <point x="114" y="423"/>
      <point x="188" y="423" type="curve" smooth="yes"/>
      <point x="234" y="423"/>
      <point x="260" y="444"/>
      <point x="266" y="476" type="curve"/>
      <point x="189" y="476"/>
      <point x="146" y="522"/>
      <point x="146" y="594" type="curve" smooth="yes"/>
      <point x="146" y="676"/>
      <point x="202" y="734"/>
      <point x="301" y="734" type="curve"/>
      <point x="391" y="734"/>
      <point x="442" y="669"/>
      <point x="442" y="566" type="curve" smooth="yes"/>
      <point x="442" y="426"/>
      <point x="355" y="305"/>
      <point x="50" y="33" type="curve"/>
      <point x="50" y="0" type="line"/>
      <point x="515" y="0" type="line"/>
      <point x="553" y="200" type="line"/>
      <point x="516" y="200" type="line" name="_p_cornerRadius:37.0"/>
      <point x="488" y="106"/>
      <point x="459" y="85"/>
      <point x="395" y="85" type="curve" smooth="yes"/>
      <point x="173" y="85" type="line"/>
    </contour>
  </outline>
</glyph>
<glyph name="three" format="1">
  <advance width="616"/>
  <unicode hex="0033"/>
  <outline>
    <contour>
      <point x="450" y="214" type="curve" smooth="yes"/>
      <point x="450" y="324"/>
      <point x="382" y="388"/>
      <point x="301" y="388" type="curve"/>
      <point x="281" y="378"/>
      <point x="254" y="370"/>
      <point x="234" y="370" type="curve" smooth="yes"/>
      <point x="207" y="370"/>
      <point x="188" y="384"/>
      <point x="188" y="404" type="curve" smooth="yes"/>
      <point x="188" y="422"/>
      <point x="205" y="432"/>
      <point x="232" y="432" type="curve" smooth="yes"/>
      <point x="249" y="432"/>
      <point x="273" y="428"/>
      <point x="293" y="421" type="curve"/>
      <point x="364" y="421"/>
      <point x="432" y="491"/>
      <point x="432" y="595" type="curve"/>
      <point x="432" y="689"/>
      <point x="374" y="737"/>
      <point x="294" y="737" type="curve"/>
      <point x="220" y="737"/>
      <point x="171" y="700"/>
      <point x="171" y="647" type="curve" smooth="yes"/>
      <point x="171" y="602"/>
      <point x="206" y="571"/>
      <point x="257" y="571" type="curve"/>
      <point x="251" y="549"/>
      <point x="222" y="533"/>
      <point x="187" y="533" type="curve" smooth="yes"/>
      <point x="129" y="533"/>
      <point x="85" y="579"/>
      <point x="85" y="639" type="curve" smooth="yes"/>
      <point x="85" y="724"/>
      <point x="179" y="780"/>
      <point x="301" y="780" type="curve"/>
      <point x="428" y="780"/>
      <point x="532" y="714"/>
      <point x="532" y="600" type="curve"/>
      <point x="532" y="492"/>
      <point x="449" y="438"/>
      <point x="382" y="417" type="curve"/>
      <point x="382" y="411" type="line"/>
      <point x="482" y="385"/>
      <point x="555" y="308"/>
      <point x="555" y="207" type="curve" smooth="yes"/>
      <point x="555" y="83"/>
      <point x="444" y="-10"/>
      <point x="280" y="-10" type="curve"/>
      <point x="152" y="-10"/>
      <point x="51" y="63"/>
      <point x="51" y="182" type="curve"/>
      <point x="51" y="247"/>
      <point x="101" y="294"/>
      <point x="166" y="294" type="curve" smooth="yes"/>
      <point x="203" y="294"/>
      <point x="236" y="275"/>
      <point x="243" y="250" type="curve"/>
      <point x="193" y="250"/>
      <point x="144" y="213"/>
      <point x="144" y="148" type="curve"/>
      <point x="144" y="72"/>
      <point x="211" y="37"/>
      <point x="278" y="37" type="curve"/>
      <point x="379" y="37"/>
      <point x="450" y="100"/>
    </contour>
  </outline>
</glyph>
<glyph name="six" format="1">
  <advance width="643"/>
  <unicode hex="0036"/>
  <outline>
    <contour>
      <point x="586" y="259" type="curve" smooth="yes"/>
      <point x="586" y="401"/>
      <point x="484" y="508"/>
      <point x="349" y="508" type="curve" smooth="yes"/>
      <point x="282" y="508"/>
      <point x="214" y="480"/>
      <point x="171" y="418" type="curve"/>
      <point x="168" y="420" type="line"/>
      <point x="168" y="600"/>
      <point x="237" y="735"/>
      <point x="349" y="735" type="curve" smooth="yes"/>
      <point x="451" y="735"/>
      <point x="419" y="626"/>
      <point x="497" y="626" type="curve" smooth="yes"/>
      <point x="530" y="626"/>
      <point x="551" y="646"/>
      <point x="551" y="678" type="curve" smooth="yes"/>
      <point x="551" y="735"/>
      <point x="474" y="780"/>
      <point x="387" y="780" type="curve"/>
      <point x="184" y="780"/>
      <point x="61" y="580"/>
      <point x="61" y="337" type="curve" smooth="yes"/>
      <point x="61" y="133"/>
      <point x="168" y="-10"/>
      <point x="321" y="-10" type="curve" smooth="yes"/>
      <point x="468" y="-10"/>
      <point x="586" y="109"/>
    </contour>
    <contour>
      <point x="166" y="332" type="line"/>
      <point x="200" y="414"/>
      <point x="264" y="459"/>
      <point x="335" y="459" type="curve" smooth="yes"/>
      <point x="417" y="459"/>
      <point x="481" y="388"/>
      <point x="481" y="255" type="curve" smooth="yes"/>
      <point x="481" y="105"/>
      <point x="417" y="35"/>
      <point x="325" y="35" type="curve" smooth="yes"/>
      <point x="234" y="35"/>
      <point x="166" y="119"/>
      <point x="166" y="283" type="curve" smooth="yes"/>
    </contour>
  </outline>
</glyph>
<glyph name="seven" format="1">
  <advance width="494"/>
  <unicode hex="0037"/>
  <outline>
    <contour>
      <point x="279" y="410" type="line" smooth="yes"/>
      <point x="132" y="115"/>
      <point x="106" y="65"/>
      <point x="106" y="31" type="curve" smooth="yes"/>
      <point x="106" y="8"/>
      <point x="122" y="-10"/>
      <point x="146" y="-10" type="curve" smooth="yes"/>
      <point x="180" y="-10"/>
      <point x="200" y="17"/>
      <point x="245" y="136" type="curve" smooth="yes"/>
      <point x="338" y="382"/>
      <point x="366" y="451"/>
      <point x="499" y="750" type="curve"/>
      <point x="499" y="770" type="line"/>
      <point x="206" y="770" type="line" smooth="yes"/>
      <point x="145" y="770"/>
      <point x="130" y="776"/>
      <point x="130" y="799" type="curve" smooth="yes"/>
      <point x="130" y="808"/>
      <point x="132" y="824"/>
      <point x="134" y="830" type="curve"/>
      <point x="94" y="830" type="line"/>
      <point x="32" y="567" type="line"/>
      <point x="70" y="567" type="line"/>
      <point x="85" y="606" type="line" smooth="yes"/>
      <point x="113" y="680"/>
      <point x="127" y="688"/>
      <point x="231" y="688" type="curve" smooth="yes"/>
      <point x="417" y="688" type="line"/>
    </contour>
  </outline>
</glyph>
<glyph name="eight" format="1">
  <advance width="606"/>
  <unicode hex="0038"/>
  <outline>
    <contour>
      <point x="329" y="344" type="line" smooth="yes"/>
      <point x="423" y="294"/>
      <point x="466" y="239"/>
      <point x="466" y="179" type="curve" smooth="yes"/>
      <point x="466" y="92"/>
      <point x="395" y="36"/>
      <point x="304" y="36" type="curve" smooth="yes"/>
      <point x="212" y="36"/>
      <point x="144" y="93"/>
      <point x="144" y="183" type="curve" smooth="yes"/>
      <point x="144" y="256"/>
      <point x="185" y="317"/>
      <point x="276" y="372" type="curve"/>
    </contour>
    <contour>
      <point x="378" y="422" type="curve"/>
      <point x="484" y="478"/>
      <point x="516" y="539"/>
      <point x="516" y="603" type="curve" smooth="yes"/>
      <point x="516.0" y="656.0"/>
      <point x="490.5" y="700.25"/>
      <point x="451.0" y="731.25" type="curve" smooth="yes"/>
      <point x="411.5" y="762.25"/>
      <point x="358.0" y="780.0"/>
      <point x="302" y="780" type="curve"/>
      <point x="240.0" y="780.0"/>
      <point x="186.0" y="759.0"/>
      <point x="147.5" y="724.75" type="curve" smooth="yes"/>
      <point x="109.0" y="690.5"/>
      <point x="86.0" y="643.0"/>
      <point x="86" y="590" type="curve" smooth="yes"/>
      <point x="86" y="511"/>
      <point x="129" y="452"/>
      <point x="237" y="393" type="curve"/>
      <point x="107" y="328"/>
      <point x="59" y="261"/>
      <point x="59" y="180" type="curve" smooth="yes"/>
      <point x="59" y="73"/>
      <point x="159" y="-10"/>
      <point x="300" y="-10" type="curve" smooth="yes"/>
      <point x="439" y="-10"/>
      <point x="545" y="86"/>
      <point x="545" y="202" type="curve"/>
      <point x="545" y="299"/>
      <point x="500" y="355"/>
    </contour>
    <contour>
      <point x="291" y="469" type="line" smooth="yes"/>
      <point x="203" y="516"/>
      <point x="162" y="565"/>
      <point x="162" y="623" type="curve" smooth="yes"/>
      <point x="162" y="692"/>
      <point x="219" y="735"/>
      <point x="297" y="735" type="curve"/>
      <point x="381" y="735"/>
      <point x="433" y="680"/>
      <point x="433" y="608" type="curve"/>
      <point x="433" y="548"/>
      <point x="412" y="494"/>
      <point x="341" y="442" type="curve"/>
    </contour>
  </outline>
</glyph>
<glyph name="question" format="1">
  <advance width="402"/>
  <unicode hex="003F"/>
  <outline>
    <contour>
      <point x="183" y="237" type="line"/>
      <point x="183" y="370" type="line"/>
      <point x="285" y="370"/>
      <point x="344" y="429"/>
      <point x="344" y="530" type="curve" smooth="yes"/>
      <point x="344" y="661"/>
      <point x="244" y="780"/>
      <point x="134" y="780" type="curve" smooth="yes"/>
      <point x="94" y="780"/>
      <point x="69" y="761"/>
      <point x="69" y="724" type="curve" smooth="yes"/>
      <point x="69" y="692"/>
      <point x="94" y="674"/>
      <point x="125" y="674" type="curve" smooth="yes"/>
      <point x="147" y="674"/>
      <point x="176" y="685"/>
      <point x="200" y="685" type="curve" smooth="yes"/>
      <point x="248" y="685"/>
      <point x="287" y="629"/>
      <point x="287" y="565" type="curve" smooth="yes"/>
      <point x="287" y="490"/>
      <point x="243" y="453"/>
      <point x="157" y="453" type="curve" smooth="yes"/>
      <point x="128" y="453" type="line"/>
      <point x="128" y="237" type="line"/>
    </contour>
    <contour>
      <point x="87" y="55" type="curve" smooth="yes"/>
      <point x="87" y="19"/>
      <point x="116" y="-10"/>
      <point x="152" y="-10" type="curve" smooth="yes"/>
      <point x="189" y="-10"/>
      <point x="218" y="19"/>
      <point x="218" y="55" type="curve" smooth="yes"/>
      <point x="218" y="92"/>
      <point x="189" y="121"/>
      <point x="152" y="121" type="curve" smooth="yes"/>
      <point x="116" y="121"/>
      <point x="87" y="92"/>
    </contour>
  </outline>
</glyph>
<glyph name="A" format="1">
  <advance width="772"/>
  <unicode hex="0041"/>
  <outline>
    <contour>
      <point x="536" y="171" type="line" smooth="yes"/>
      <point x="554" y="125"/>
      <point x="559" y="108"/>
      <point x="559" y="82" type="curve" smooth="yes"/>
      <point x="559" y="51"/>
      <point x="530" y="39"/>
      <point x="459" y="39" type="curve"/>
      <point x="459" y="0" type="line"/>
      <point x="785" y="0" type="line"/>
      <point x="785" y="39" type="line"/>
      <point x="716" y="39"/>
      <point x="694" y="56"/>
      <point x="633" y="206" type="curve" smooth="yes"/>
      <point x="406" y="770" type="line"/>
      <point x="363" y="770" type="line"/>
      <point x="103" y="119" type="line" smooth="yes"/>
      <point x="80" y="62"/>
      <point x="55" y="45"/>
      <point x="-6" y="38" type="curve"/>
      <point x="-6" y="0" type="line"/>
      <point x="237" y="0" type="line"/>
      <point x="237" y="38" type="line"/>
      <point x="182" y="38"/>
      <point x="159" y="50"/>
      <point x="159" y="87" type="curve" smooth="yes"/>
      <point x="159" y="114"/>
      <point x="175" y="169"/>
      <point x="221" y="279" type="curve"/>
      <point x="495" y="279" type="line"/>
    </contour>
    <contour>
      <point x="360" y="630" type="line"/>
      <point x="476" y="329" type="line"/>
      <point x="241" y="329" type="line"/>
    </contour>
    <contour>
      <point x="383" y="830" type="move" name="topcap"/>
    </contour>
    <contour>
      <point x="638" y="0" type="move" name="bottom"/>
    </contour>
  </outline>
</glyph>
<glyph name="B" format="1">
  <advance width="747"/>
  <unicode hex="0042"/>
  <outline>
    <contour>
      <point x="38" y="0" type="line"/>
      <point x="38" y="38" type="line"/>
      <point x="141" y="41"/>
      <point x="158" y="58"/>
      <point x="158" y="152" type="curve" smooth="yes"/>
      <point x="158" y="618" type="line" smooth="yes"/>
      <point x="158" y="711"/>
      <point x="144" y="728"/>
      <point x="58" y="732" type="curve"/>
      <point x="58" y="770" type="line"/>
      <point x="342" y="770" type="line" smooth="yes"/>
      <point x="521" y="770"/>
      <point x="622" y="710"/>
      <point x="622" y="587" type="curve" smooth="yes"/>
      <point x="622" y="500"/>
      <point x="567" y="436"/>
      <point x="454" y="410" type="curve"/>
      <point x="454" y="406" type="line"/>
      <point x="547.5" y="395.0"/>
      <point x="608.25" y="368.25"/>
      <point x="645.625" y="331.875" type="curve" smooth="yes"/>
      <point x="683.0" y="295.5"/>
      <point x="697.0" y="249.5"/>
      <point x="697" y="200" type="curve" smooth="yes"/>
      <point x="697.0" y="138.00038904"/>
      <point x="671.712755913" y="84.7205174195"/>
      <point x="612.833084063" y="48.7789719727" type="curve" smooth="yes"/>
      <point x="562.499776059" y="18.0543293201"/>
      <point x="487.618159235" y="-3.5527136788e-15"/>
      <point x="383" y="0" type="curve" smooth="yes"/>
    </contour>
    <contour>
      <point x="396" y="43" type="curve"/>
      <point x="517" y="43"/>
      <point x="592" y="94"/>
      <point x="592" y="204" type="curve"/>
      <point x="592.0" y="264.0"/>
      <point x="576.75" y="308.0"/>
      <point x="531.75" y="337.0" type="curve" smooth="yes"/>
      <point x="486.75" y="366.0"/>
      <point x="412.0" y="380.0"/>
      <point x="293" y="380" type="curve" smooth="yes"/>
      <point x="253" y="380" type="line"/>
      <point x="253" y="157" type="line" smooth="yes"/>
      <point x="253" y="76"/>
      <point x="292" y="43"/>
    </contour>
    <contour>
      <point x="304" y="430" type="line" smooth="yes"/>
      <point x="377.5" y="430.0"/>
      <point x="430.5" y="439.5"/>
      <point x="465.125" y="462.375" type="curve" smooth="yes"/>
      <point x="499.75" y="485.25"/>
      <point x="516.0" y="521.5"/>
      <point x="516" y="575" type="curve" smooth="yes"/>
      <point x="516" y="680"/>
      <point x="458" y="723"/>
      <point x="342" y="723" type="curve" smooth="yes"/>
      <point x="270" y="723" type="line" smooth="yes"/>
      <point x="259" y="723"/>
      <point x="253" y="716"/>
      <point x="253" y="706" type="curve" smooth="yes"/>
      <point x="253" y="430" type="line"/>
    </contour>
  </outline>
</glyph>
<glyph name="C" format="1">
  <advance width="782"/>
  <unicode hex="0043"/>
  <outline>
    <contour>
      <point x="651" y="708" type="line"/>
      <point x="569" y="759"/>
      <point x="503" y="780"/>
      <point x="423" y="780" type="curve"/>
      <point x="206" y="780"/>
      <point x="60" y="614"/>
      <point x="60" y="382" type="curve"/>
      <point x="60" y="139"/>
      <point x="196" y="-10"/>
      <point x="412" y="-10" type="curve" smooth="yes"/>
      <point x="511" y="-10"/>
      <point x="595" y="19"/>
      <point x="666" y="79" type="curve"/>
      <point x="689" y="0" type="line"/>
      <point x="724" y="0" type="line"/>
      <point x="724" y="249" type="line"/>
      <point x="683" y="249" type="line"/>
      <point x="647" y="114"/>
      <point x="562" y="44"/>
      <point x="435" y="44" type="curve" smooth="yes"/>
      <point x="272" y="44"/>
      <point x="165" y="164"/>
      <point x="165" y="388" type="curve"/>
      <point x="165" y="596"/>
      <point x="275" y="728"/>
      <point x="432" y="728" type="curve"/>
      <point x="550" y="728"/>
      <point x="640" y="656"/>
      <point x="669" y="540" type="curve"/>
      <point x="706" y="540" type="line"/>
      <point x="697" y="770" type="line"/>
      <point x="669" y="770" type="line"/>
    </contour>
    <contour>
      <point x="428" y="830" type="move" name="topcap"/>
    </contour>
    <contour>
      <point x="412" y="0" type="move" name="bottom"/>
    </contour>
  </outline>
</glyph>
<glyph name="D" format="1">
  <advance width="846"/>
  <unicode hex="0044"/>
  <outline>
    <contour>
      <point x="38" y="0" type="line"/>
      <point x="38" y="38" type="line"/>
      <point x="140" y="41"/>
      <point x="158" y="57"/>
      <point x="158" y="152" type="curve" smooth="yes"/>
      <point x="158" y="618" type="line" smooth="yes"/>
      <point x="158" y="711"/>
      <point x="144" y="728"/>
      <point x="58" y="732" type="curve"/>
      <point x="58" y="770" type="line"/>
      <point x="396" y="770" type="line"/>
      <point x="617" y="770"/>
      <point x="787" y="612"/>
      <point x="787" y="372" type="curve" smooth="yes"/>
      <point x="787" y="143"/>
      <point x="629" y="0"/>
      <point x="416" y="0" type="curve"/>
    </contour>
    <contour>
      <point x="270" y="721" type="line" smooth="yes"/>
      <point x="259" y="721"/>
      <point x="253" y="714"/>
      <point x="253" y="704" type="curve" smooth="yes"/>
      <point x="253" y="163" type="line" smooth="yes"/>
      <point x="253" y="86"/>
      <point x="296" y="49"/>
      <point x="387" y="49" type="curve"/>
      <point x="578" y="49"/>
      <point x="682" y="150"/>
      <point x="682" y="370" type="curve" smooth="yes"/>
      <point x="682" y="601"/>
      <point x="570" y="721"/>
      <point x="382" y="721" type="curve"/>
    </contour>
    <contour>
      <point x="431" y="830" type="move" name="topcap"/>
    </contour>
    <contour>
      <point x="431" y="0" type="move" name="bottom"/>
    </contour>
  </outline>
</glyph>
<glyph name="E" format="1">
  <advance width="716"/>
  <unicode hex="0045"/>
  <outline>
    <contour>
      <point x="250" y="710" type="line" smooth="yes"/>
      <point x="250" y="720"/>
      <point x="256" y="727"/>
      <point x="267" y="727" type="curve" smooth="yes"/>
      <point x="394" y="727" type="line" smooth="yes"/>
      <point x="530" y="727"/>
      <point x="581" y="700"/>
      <point x="597" y="594" type="curve"/>
      <point x="632" y="594" type="line"/>
      <point x="623" y="770" type="line"/>
      <point x="55" y="770" type="line"/>
      <point x="55" y="732" type="line"/>
      <point x="141" y="728"/>
      <point x="155" y="711"/>
      <point x="155" y="618" type="curve" smooth="yes"/>
      <point x="155" y="152" type="line" smooth="yes"/>
      <point x="155" y="58"/>
      <point x="139" y="41"/>
      <point x="45" y="38" type="curve"/>
      <point x="45" y="0" type="line"/>
      <point x="656" y="0" type="line"/>
      <point x="671" y="197" type="line"/>
      <point x="633" y="197" type="line"/>
      <point x="607" y="79"/>
      <point x="557" y="43"/>
      <point x="416" y="43" type="curve" smooth="yes"/>
      <point x="290" y="43"/>
      <point x="250" y="70"/>
      <point x="250" y="157" type="curve" smooth="yes"/>
      <point x="250" y="383" type="line"/>
      <point x="400" y="382"/>
      <point x="439" y="345"/>
      <point x="439" y="265" type="curve"/>
      <point x="474" y="265" type="line"/>
      <point x="474" y="538" type="line"/>
      <point x="439" y="538" type="line"/>
      <point x="439" y="457"/>
      <point x="394" y="423"/>
      <point x="250" y="423" type="curve"/>
    </contour>
    <contour>
      <point x="369" y="830" type="move" name="topcap"/>
    </contour>
    <contour>
      <point x="369" y="0" type="move" name="bottom"/>
    </contour>
  </outline>
</glyph>
<glyph name="F" format="1">
  <advance width="660"/>
  <unicode hex="0046"/>
  <outline>
    <contour>
      <point x="250" y="159" type="line" smooth="yes"/>
      <point x="250" y="57"/>
      <point x="268" y="41"/>
      <point x="389" y="38" type="curve"/>
      <point x="389" y="0" type="line"/>
      <point x="45" y="0" type="line"/>
      <point x="45" y="38" type="line"/>
      <point x="139" y="41"/>
      <point x="155" y="58"/>
      <point x="155" y="152" type="curve" smooth="yes"/>
      <point x="155" y="618" type="line" smooth="yes"/>
      <point x="155" y="711"/>
      <point x="141" y="728"/>
      <point x="55" y="732" type="curve"/>
      <point x="55" y="770" type="line"/>
      <point x="623" y="770" type="line"/>
      <point x="634" y="579" type="line"/>
      <point x="599" y="579" type="line"/>
      <point x="582" y="693"/>
      <point x="537" y="722"/>
      <point x="394" y="722" type="curve" smooth="yes"/>
      <point x="267" y="722" type="line" smooth="yes"/>
      <point x="256" y="722"/>
      <point x="250" y="715"/>
      <point x="250" y="705" type="curve" smooth="yes"/>
      <point x="250" y="403" type="line"/>
      <point x="379" y="403"/>
      <point x="430" y="427"/>
      <point x="439" y="528" type="curve"/>
      <point x="474" y="528" type="line"/>
      <point x="474" y="235" type="line"/>
      <point x="439" y="235" type="line"/>
      <point x="425" y="337"/>
      <point x="386" y="362"/>
      <point x="250" y="363" type="curve"/>
    </contour>
  </outline>
</glyph>
<glyph name="G" format="1">
  <advance width="850"/>
  <unicode hex="0047"/>
  <outline>
    <contour>
      <point x="412" y="-10" type="curve"/>
      <point x="494.5" y="-10.0"/>
      <point x="551.5" y="13.25"/>
      <point x="600.5" y="36.5" type="curve" smooth="yes"/>
      <point x="649.5" y="59.75"/>
      <point x="690.5" y="83.0"/>
      <point x="741" y="83" type="curve"/>
      <point x="741" y="195" type="line" smooth="yes"/>
      <point x="741" y="264"/>
      <point x="758" y="284"/>
      <point x="823" y="284" type="curve"/>
      <point x="823" y="322" type="line"/>
      <point x="549" y="322" type="line"/>
      <point x="549" y="284" type="line"/>
      <point x="620" y="284"/>
      <point x="649" y="263"/>
      <point x="649" y="195" type="curve"/>
      <point x="649" y="111"/>
      <point x="565" y="44"/>
      <point x="435" y="44" type="curve"/>
      <point x="272" y="44"/>
      <point x="165" y="172"/>
      <point x="165" y="396" type="curve"/>
      <point x="165" y="604"/>
      <point x="275" y="728"/>
      <point x="442" y="728" type="curve"/>
      <point x="540" y="728"/>
      <point x="646" y="670"/>
      <point x="646" y="540" type="curve"/>
      <point x="694" y="540" type="line"/>
      <point x="707" y="770" type="line"/>
      <point x="672" y="770" type="line"/>
      <point x="651" y="708" type="line"/>
      <point x="569" y="759"/>
      <point x="503" y="780"/>
      <point x="423" y="780" type="curve"/>
      <point x="206" y="780"/>
      <point x="60" y="622"/>
      <point x="60" y="390" type="curve"/>
      <point x="60" y="147"/>
      <point x="196" y="-10"/>
    </contour>
    <contour>
      <point x="426" y="830" type="move" name="topcap"/>
    </contour>
    <contour>
      <point x="411" y="0" type="move" name="bottom"/>
    </contour>
  </outline>
</glyph>
<glyph name="H" format="1">
  <advance width="905"/>
  <unicode hex="0048"/>
  <outline>
    <contour>
      <point x="750" y="159" type="line" smooth="yes"/>
      <point x="750" y="57"/>
      <point x="765" y="41"/>
      <point x="859" y="38" type="curve"/>
      <point x="859" y="0" type="line"/>
      <point x="545" y="0" type="line"/>
      <point x="545" y="38" type="line"/>
      <point x="639" y="41"/>
      <point x="655" y="58"/>
      <point x="655" y="152" type="curve" smooth="yes"/>
      <point x="655" y="369" type="line"/>
      <point x="250" y="369" type="line"/>
      <point x="250" y="159" type="line" smooth="yes"/>
      <point x="250" y="57"/>
      <point x="265" y="41"/>
      <point x="359" y="38" type="curve"/>
      <point x="359" y="0" type="line"/>
      <point x="45" y="0" type="line"/>
      <point x="45" y="38" type="line"/>
      <point x="139" y="41"/>
      <point x="155" y="58"/>
      <point x="155" y="152" type="curve" smooth="yes"/>
      <point x="155" y="618" type="line" smooth="yes"/>
      <point x="155" y="711"/>
      <point x="141" y="728"/>
      <point x="55" y="732" type="curve"/>
      <point x="55" y="770" type="line"/>
      <point x="349" y="770" type="line"/>
      <point x="349" y="732" type="line"/>
      <point x="263" y="729"/>
      <point x="250" y="712"/>
      <point x="250" y="611" type="curve" smooth="yes"/>
      <point x="250" y="419" type="line"/>
      <point x="655" y="419" type="line"/>
      <point x="655" y="618" type="line" smooth="yes"/>
      <point x="655" y="711"/>
      <point x="641" y="728"/>
      <point x="555" y="732" type="curve"/>
      <point x="555" y="770" type="line"/>
      <point x="849" y="770" type="line"/>
      <point x="849" y="732" type="line"/>
      <point x="763" y="729"/>
      <point x="750" y="712"/>
      <point x="750" y="611" type="curve" smooth="yes"/>
    </contour>
    <contour>
      <point x="454" y="830" type="move" name="topcap"/>
    </contour>
    <contour>
      <point x="454" y="0" type="move" name="bottom"/>
    </contour>
  </outline>
</glyph>
<glyph name="I" format="1">
  <advance width="405"/>
  <unicode hex="0049"/>
  <outline>
    <contour>
      <point x="359" y="38" type="line"/>
      <point x="265" y="41"/>
      <point x="250" y="57"/>
      <point x="250" y="189" type="curve" smooth="yes"/>
      <point x="250" y="581" type="line"/>
      <point x="250" y="702"/>
      <point x="263" y="729"/>
      <point x="349" y="732" type="curve"/>
      <point x="349" y="770" type="line"/>
      <point x="55" y="770" type="line"/>
      <point x="55" y="732" type="line"/>
      <point x="141" y="728"/>
      <point x="155" y="701"/>
      <point x="155" y="588" type="curve" smooth="yes"/>
      <point x="155" y="182" type="line" smooth="yes"/>
      <point x="155" y="58"/>
      <point x="139" y="41"/>
      <point x="45" y="38" type="curve"/>
      <point x="45" y="0" type="line"/>
      <point x="359" y="0" type="line"/>
    </contour>
    <contour>
      <point x="196" y="830" type="move" name="topcap"/>
    </contour>
    <contour>
      <point x="196" y="0" type="move" name="bottom"/>
    </contour>
  </outline>
</glyph>
<glyph name="K" format="1">
  <advance width="760"/>
  <unicode hex="004B"/>
  <outline>
    <contour>
      <point x="250" y="159" type="curve" smooth="yes"/>
      <point x="250" y="285" type="line"/>
      <point x="355" y="400" type="line"/>
      <point x="521" y="135" type="line" smooth="yes"/>
      <point x="541" y="103"/>
      <point x="548" y="85"/>
      <point x="548" y="72" type="curve"/>
      <point x="548" y="48"/>
      <point x="527" y="38"/>
      <point x="475" y="38" type="curve"/>
      <point x="475" y="0" type="line"/>
      <point x="773" y="0" type="line"/>
      <point x="773" y="38" type="line"/>
      <point x="724" y="38"/>
      <point x="694" y="49"/>
      <point x="667" y="90" type="curve" smooth="yes"/>
      <point x="419" y="470" type="line"/>
      <point x="590" y="658" type="line" smooth="yes"/>
      <point x="648" y="721"/>
      <point x="669" y="733"/>
      <point x="722" y="733" type="curve"/>
      <point x="722" y="770" type="line"/>
      <point x="481" y="770" type="line"/>
      <point x="481" y="732" type="line"/>
      <point x="519" y="732"/>
      <point x="538" y="722"/>
      <point x="538" y="704" type="curve" smooth="yes"/>
      <point x="538" y="694"/>
      <point x="532" y="680"/>
      <point x="518" y="665" type="curve" smooth="yes"/>
      <point x="250" y="364" type="line"/>
      <point x="250" y="611" type="line" smooth="yes"/>
      <point x="250" y="717"/>
      <point x="269" y="732"/>
      <point x="349" y="732" type="curve"/>
      <point x="349" y="770" type="line"/>
      <point x="55" y="770" type="line"/>
      <point x="55" y="732" type="line"/>
      <point x="134" y="732"/>
      <point x="155" y="720"/>
      <point x="155" y="618" type="curve" smooth="yes"/>
      <point x="155" y="152" type="line" smooth="yes"/>
      <point x="155" y="58"/>
      <point x="138" y="38"/>
      <point x="45" y="38" type="curve"/>
      <point x="45" y="0" type="line"/>
      <point x="359" y="0" type="line"/>
      <point x="359" y="38" type="line"/>
      <point x="267" y="38"/>
      <point x="250" y="57"/>
    </contour>
    <contour>
      <point x="402" y="0" type="move" name="bottom"/>
    </contour>
  </outline>
</glyph>
<glyph name="L" format="1">
  <advance width="717"/>
  <unicode hex="004C"/>
  <outline>
    <contour>
      <point x="681" y="0" type="line"/>
      <point x="45" y="0" type="line"/>
      <point x="45" y="38" type="line"/>
      <point x="139" y="41"/>
      <point x="155" y="58"/>
      <point x="155" y="152" type="curve" smooth="yes"/>
      <point x="155" y="618" type="line" smooth="yes"/>
      <point x="155" y="711"/>
      <point x="141" y="728"/>
      <point x="55" y="732" type="curve"/>
      <point x="55" y="770" type="line"/>
      <point x="349" y="770" type="line"/>
      <point x="349" y="732" type="line"/>
      <point x="263" y="729"/>
      <point x="250" y="712"/>
      <point x="250" y="611" type="curve" smooth="yes"/>
      <point x="250" y="180" type="line" smooth="yes"/>
      <point x="250" y="68"/>
      <point x="290" y="45"/>
      <point x="428" y="45" type="curve" smooth="yes"/>
      <point x="581" y="45"/>
      <point x="629" y="73"/>
      <point x="658" y="197" type="curve"/>
      <point x="696" y="197" type="line"/>
    </contour>
    <contour>
      <point x="196" y="830" type="move" name="topcap"/>
    </contour>
    <contour>
      <point x="371" y="0" type="move" name="bottom"/>
    </contour>
  </outline>
</glyph>
<glyph name="M" format="1">
  <advance width="1066"/>
  <unicode hex="004D"/>
  <outline>
    <contour>
      <point x="539" y="165" type="line"/>
      <point x="796" y="770" type="line"/>
      <point x="1010" y="770" type="line"/>
      <point x="1010" y="732" type="line"/>
      <point x="924" y="729"/>
      <point x="911" y="702"/>
      <point x="911" y="581" type="curve" smooth="yes"/>
      <point x="911" y="189" type="line" smooth="yes"/>
      <point x="911" y="57"/>
      <point x="926" y="41"/>
      <point x="1020" y="38" type="curve"/>
      <point x="1020" y="0" type="line"/>
      <point x="706" y="0" type="line"/>
      <point x="706" y="38" type="line"/>
      <point x="800" y="41"/>
      <point x="816" y="58"/>
      <point x="816" y="182" type="curve" smooth="yes"/>
      <point x="816" y="646" type="line"/>
      <point x="806" y="646" type="line"/>
      <point x="528" y="-10" type="line"/>
      <point x="506" y="-10" type="line"/>
      <point x="219" y="646" type="line"/>
      <point x="215" y="646" type="line"/>
      <point x="215" y="189" type="line" smooth="yes"/>
      <point x="215" y="57"/>
      <point x="230" y="41"/>
      <point x="324" y="38" type="curve"/>
      <point x="324" y="0" type="line"/>
      <point x="45" y="0" type="line"/>
      <point x="45" y="38" type="line"/>
      <point x="139" y="41"/>
      <point x="155" y="58"/>
      <point x="155" y="182" type="curve" smooth="yes"/>
      <point x="155" y="588" type="line" smooth="yes"/>
      <point x="155" y="701"/>
      <point x="141" y="728"/>
      <point x="55" y="732" type="curve"/>
      <point x="55" y="770" type="line"/>
      <point x="277" y="770" type="line"/>
      <point x="535" y="165" type="line"/>
    </contour>
  </outline>
</glyph>
<glyph name="N" format="1">
  <advance width="890"/>
  <unicode hex="004E"/>
  <outline>
    <contour>
      <point x="682" y="-10" type="line"/>
      <point x="219" y="636" type="line"/>
      <point x="215" y="636" type="line"/>
      <point x="215" y="189" type="line" smooth="yes"/>
      <point x="215" y="57"/>
      <point x="229" y="41"/>
      <point x="314" y="38" type="curve"/>
      <point x="314" y="0" type="line"/>
      <point x="45" y="0" type="line"/>
      <point x="45" y="38" type="line"/>
      <point x="139" y="41"/>
      <point x="155" y="58"/>
      <point x="155" y="182" type="curve" smooth="yes"/>
      <point x="155" y="588" type="line" smooth="yes"/>
      <point x="155" y="701"/>
      <point x="141" y="728"/>
      <point x="55" y="732" type="curve"/>
      <point x="55" y="770" type="line"/>
      <point x="253" y="770" type="line"/>
      <point x="678" y="167" type="line"/>
      <point x="682" y="167" type="line"/>
      <point x="682" y="581" type="line" smooth="yes"/>
      <point x="682" y="713"/>
      <point x="668" y="729"/>
      <point x="583" y="732" type="curve"/>
      <point x="583" y="770" type="line"/>
      <point x="852" y="770" type="line"/>
      <point x="852" y="732" type="line"/>
      <point x="758" y="729"/>
      <point x="742" y="712"/>
      <point x="742" y="588" type="curve" smooth="yes"/>
      <point x="742" y="-10" type="line"/>
    </contour>
    <contour>
      <point x="464" y="830" type="move" name="topcap"/>
    </contour>
    <contour>
      <point x="459" y="0" type="move" name="bottom"/>
    </contour>
  </outline>
</glyph>
<glyph name="O" format="1">
  <advance width="896"/>
  <unicode hex="004F"/>
  <outline>
    <contour>
      <point x="448" y="780" type="curve" smooth="yes"/>
      <point x="214" y="780"/>
      <point x="57" y="605"/>
      <point x="57" y="379" type="curve" smooth="yes"/>
      <point x="57" y="162"/>
      <point x="216" y="-10"/>
      <point x="448" y="-10" type="curve" smooth="yes"/>
      <point x="680" y="-10"/>
      <point x="839" y="162"/>
      <point x="839" y="379" type="curve" smooth="yes"/>
      <point x="839" y="605"/>
      <point x="682" y="780"/>
    </contour>
    <contour>
      <point x="448" y="45" type="curve" smooth="yes"/>
      <point x="272" y="45"/>
      <point x="163" y="173"/>
      <point x="163" y="376" type="curve" smooth="yes"/>
      <point x="163" y="590"/>
      <point x="272" y="725"/>
      <point x="448" y="725" type="curve" smooth="yes"/>
      <point x="624" y="725"/>
      <point x="733" y="590"/>
      <point x="733" y="376" type="curve" smooth="yes"/>
      <point x="733" y="173"/>
      <point x="623" y="45"/>
    </contour>
    <contour>
      <point x="449" y="830" type="move" name="topcap"/>
    </contour>
    <contour>
      <point x="449" y="0" type="move" name="bottom"/>
    </contour>
  </outline>
</glyph>
<glyph name="P" format="1">
  <advance width="662"/>
  <unicode hex="0050"/>
  <outline>
    <contour>
      <point x="633" y="575" type="curve" smooth="yes"/>
      <point x="633" y="696"/>
      <point x="527" y="770"/>
      <point x="344" y="770" type="curve" smooth="yes"/>
      <point x="55" y="770" type="line"/>
      <point x="55" y="732" type="line"/>
      <point x="141" y="728"/>
      <point x="155" y="711"/>
      <point x="155" y="618" type="curve" smooth="yes"/>
      <point x="155" y="152" type="line" smooth="yes"/>
      <point x="155" y="58"/>
      <point x="139" y="41"/>
      <point x="45" y="38" type="curve"/>
      <point x="45" y="0" type="line"/>
      <point x="388" y="0" type="line"/>
      <point x="388" y="38" type="line"/>
      <point x="267" y="38"/>
      <point x="250" y="58"/>
      <point x="250" y="157" type="curve" smooth="yes"/>
      <point x="250" y="350" type="line"/>
      <point x="325" y="350" type="line" smooth="yes"/>
      <point x="548" y="350"/>
      <point x="633" y="445"/>
    </contour>
    <contour>
      <point x="250" y="706" type="line" smooth="yes"/>
      <point x="250" y="716"/>
      <point x="256" y="723"/>
      <point x="267" y="723" type="curve" smooth="yes"/>
      <point x="351" y="723" type="line" smooth="yes"/>
      <point x="460" y="723"/>
      <point x="528" y="675"/>
      <point x="528" y="563" type="curve" smooth="yes"/>
      <point x="528" y="446"/>
      <point x="445" y="400"/>
      <point x="313" y="400" type="curve" smooth="yes"/>
      <point x="250" y="400" type="line"/>
    </contour>
  </outline>
</glyph>
<glyph name="Q" format="1">
  <advance width="924"/>
  <unicode hex="0051"/>
  <outline>
    <contour>
      <point x="449" y="780" type="curve" smooth="yes"/>
      <point x="215" y="780"/>
      <point x="58" y="605"/>
      <point x="58" y="369" type="curve"/>
      <point x="58" y="148"/>
      <point x="202" y="-19"/>
      <point x="416" y="-34" type="curve"/>
      <point x="295" y="-103" type="line" smooth="yes"/>
      <point x="235" y="-138"/>
      <point x="229" y="-145"/>
      <point x="229" y="-163" type="curve" smooth="yes"/>
      <point x="229" y="-178"/>
      <point x="240" y="-188"/>
      <point x="258" y="-188" type="curve" smooth="yes"/>
      <point x="303" y="-188"/>
      <point x="313" y="-123"/>
      <point x="382" y="-123" type="curve" smooth="yes"/>
      <point x="483" y="-123"/>
      <point x="586" y="-260"/>
      <point x="754" y="-260" type="curve"/>
      <point x="859" y="-260"/>
      <point x="909" y="-198"/>
      <point x="909" y="-114" type="curve" smooth="yes"/>
      <point x="909" y="-100"/>
      <point x="907" y="-84"/>
      <point x="905" y="-72" type="curve"/>
      <point x="880" y="-72" type="line"/>
      <point x="866" y="-147"/>
      <point x="832" y="-173"/>
      <point x="770" y="-173" type="curve" smooth="yes"/>
      <point x="660.677332997" y="-173.0"/>
      <point x="574.336833933" y="-111.953616414"/>
      <point x="476.894581784" y="-93.3298952035" type="curve" smooth="yes"/>
      <point x="459.355642275" y="-89.9777526519"/>
      <point x="441.457033277" y="-88.0"/>
      <point x="423" y="-88" type="curve"/>
      <point x="423" y="-84" type="line"/>
      <point x="451" y="-63"/>
      <point x="486" y="-47"/>
      <point x="522" y="-33" type="curve" smooth="yes"/>
      <point x="607" y="-2"/>
      <point x="682" y="34"/>
      <point x="738" y="90" type="curve" smooth="yes"/>
      <point x="801" y="153"/>
      <point x="840" y="242"/>
      <point x="840" y="369" type="curve"/>
      <point x="840" y="605"/>
      <point x="683" y="780"/>
    </contour>
    <contour>
      <point x="449" y="20" type="curve" smooth="yes"/>
      <point x="273" y="20"/>
      <point x="164" y="148"/>
      <point x="164" y="366" type="curve"/>
      <point x="164" y="590"/>
      <point x="273" y="725"/>
      <point x="449" y="725" type="curve" smooth="yes"/>
      <point x="625" y="725"/>
      <point x="734" y="590"/>
      <point x="734" y="366" type="curve"/>
      <point x="734" y="148"/>
      <point x="624" y="20"/>
    </contour>
  </outline>
</glyph>
<glyph name="R" format="1">
  <advance width="768"/>
  <unicode hex="0052"/>
  <outline>
    <contour>
      <point x="643" y="577" type="curve" smooth="yes"/>
      <point x="643" y="698"/>
      <point x="542" y="770"/>
      <point x="359" y="770" type="curve" smooth="yes"/>
      <point x="55" y="770" type="line"/>
      <point x="55" y="732" type="line"/>
      <point x="141" y="728"/>
      <point x="155" y="711"/>
      <point x="155" y="618" type="curve" smooth="yes"/>
      <point x="155" y="152" type="line" smooth="yes"/>
      <point x="155" y="58"/>
      <point x="139" y="41"/>
      <point x="45" y="38" type="curve"/>
      <point x="45" y="0" type="line"/>
      <point x="388" y="0" type="line"/>
      <point x="388" y="38" type="line"/>
      <point x="267" y="38"/>
      <point x="250" y="58"/>
      <point x="250" y="157" type="curve" smooth="yes"/>
      <point x="250" y="365" type="line"/>
      <point x="312" y="365"/>
      <point x="332" y="360"/>
      <point x="367" y="314" type="curve" smooth="yes"/>
      <point x="612" y="0" type="line"/>
      <point x="795" y="0" type="line"/>
      <point x="795" y="38" type="line"/>
      <point x="736" y="47"/>
      <point x="694" y="63"/>
      <point x="658" y="107" type="curve" smooth="yes"/>
      <point x="437" y="373" type="line"/>
      <point x="584" y="399"/>
      <point x="643" y="471"/>
    </contour>
    <contour>
      <point x="250" y="706" type="line" smooth="yes"/>
      <point x="250" y="716"/>
      <point x="256" y="723"/>
      <point x="267" y="723" type="curve" smooth="yes"/>
      <point x="359" y="723" type="line" smooth="yes"/>
      <point x="468" y="723"/>
      <point x="538" y="679"/>
      <point x="538" y="572" type="curve" smooth="yes"/>
      <point x="538" y="461"/>
      <point x="453" y="415"/>
      <point x="321" y="415" type="curve" smooth="yes"/>
      <point x="250" y="415" type="line"/>
    </contour>
    <contour>
      <point x="365" y="830" type="move" name="topcap"/>
    </contour>
    <contour>
      <point x="402" y="0" type="move" name="bottom"/>
    </contour>
  </outline>
</glyph>
<glyph name="S" format="1">
  <advance width="645"/>
  <unicode hex="0053"/>
  <outline>
    <contour>
      <point x="73" y="11" type="line"/>
      <point x="96" y="11" type="line"/>
      <point x="124" y="60" type="line"/>
      <point x="175" y="21"/>
      <point x="243" y="-10"/>
      <point x="329" y="-10" type="curve"/>
      <point x="480" y="-10"/>
      <point x="591" y="77"/>
      <point x="591" y="211" type="curve" smooth="yes"/>
      <point x="591" y="318"/>
      <point x="505.935720819" y="372.85919154"/>
      <point x="369.0" y="435.5" type="curve"/>
      <point x="232.891026424" y="497.762615572"/>
      <point x="172" y="541"/>
      <point x="172" y="618" type="curve" smooth="yes"/>
      <point x="172" y="685"/>
      <point x="228" y="729"/>
      <point x="307" y="729" type="curve"/>
      <point x="402" y="729"/>
      <point x="464" y="676"/>
      <point x="496" y="567" type="curve"/>
      <point x="533" y="567" type="line"/>
      <point x="522" y="766" type="line"/>
      <point x="499" y="766" type="line"/>
      <point x="473" y="721" type="line"/>
      <point x="421" y="762"/>
      <point x="367" y="780"/>
      <point x="304" y="780" type="curve"/>
      <point x="176" y="780"/>
      <point x="88" y="693"/>
      <point x="88" y="584" type="curve"/>
      <point x="88" y="481"/>
      <point x="155.882602251" y="426.746491269"/>
      <point x="307.0" y="357.0" type="curve"/>
      <point x="463.825080782" y="284.619193485"/>
      <point x="498" y="243"/>
      <point x="498" y="175" type="curve"/>
      <point x="498" y="86"/>
      <point x="437" y="41"/>
      <point x="332" y="41" type="curve" smooth="yes"/>
      <point x="202" y="41"/>
      <point x="114" y="114"/>
      <point x="95" y="235" type="curve"/>
      <point x="58" y="235" type="line"/>
    </contour>
    <contour>
      <point x="316" y="830" type="move" name="topcap"/>
    </contour>
    <contour>
      <point x="318" y="0" type="move" name="bottom"/>
    </contour>
  </outline>
</glyph>
<glyph name="T" format="1">
  <advance width="739"/>
  <unicode hex="0054"/>
  <outline>
    <contour>
      <point x="712" y="770" type="line"/>
      <point x="21" y="770" type="line"/>
      <point x="21" y="579" type="line"/>
      <point x="58" y="579" type="line"/>
      <point x="62" y="721"/>
      <point x="140" y="727"/>
      <point x="244" y="727" type="curve" smooth="yes"/>
      <point x="312" y="727"/>
      <point x="322" y="719"/>
      <point x="322" y="696" type="curve" smooth="yes"/>
      <point x="322" y="161" type="line" smooth="yes"/>
      <point x="322" y="75"/>
      <point x="305" y="42"/>
      <point x="192" y="38" type="curve"/>
      <point x="192" y="0" type="line"/>
      <point x="546" y="0" type="line"/>
      <point x="546" y="38" type="line"/>
      <point x="433" y="42"/>
      <point x="417" y="75"/>
      <point x="417" y="161" type="curve" smooth="yes"/>
      <point x="417" y="696" type="line" smooth="yes"/>
      <point x="417" y="719"/>
      <point x="429" y="727"/>
      <point x="510" y="727" type="curve" smooth="yes"/>
      <point x="626" y="727"/>
      <point x="672" y="695"/>
      <point x="681" y="579" type="curve"/>
      <point x="722" y="579" type="line"/>
    </contour>
    <contour>
      <point x="367" y="830" type="move" name="topcap"/>
    </contour>
    <contour>
      <point x="367" y="0" type="move" name="bottom"/>
    </contour>
  </outline>
</glyph>
<glyph name="U" format="1">
  <advance width="836"/>
  <unicode hex="0055"/>
  <outline>
    <contour>
      <point x="697" y="512" type="line" smooth="yes"/>
      <point x="697" y="622"/>
      <point x="702" y="677"/>
      <point x="722" y="705" type="curve" smooth="yes"/>
      <point x="738" y="728"/>
      <point x="765" y="732"/>
      <point x="807" y="732" type="curve"/>
      <point x="807" y="770" type="line"/>
      <point x="517" y="770" type="line"/>
      <point x="517" y="732" type="line"/>
      <point x="558" y="732"/>
      <point x="586" y="729"/>
      <point x="604" y="712" type="curve" smooth="yes"/>
      <point x="630" y="687"/>
      <point x="637" y="631"/>
      <point x="637" y="512" type="curve" smooth="yes"/>
      <point x="637" y="271" type="line" smooth="yes"/>
      <point x="637" y="128"/>
      <point x="570" y="52"/>
      <point x="437" y="52" type="curve" smooth="yes"/>
      <point x="288" y="52"/>
      <point x="235" y="119"/>
      <point x="235" y="265" type="curve" smooth="yes"/>
      <point x="235" y="537" type="line" smooth="yes"/>
      <point x="235" y="635"/>
      <point x="239" y="684"/>
      <point x="257" y="708" type="curve" smooth="yes"/>
      <point x="273" y="729"/>
      <point x="300" y="732"/>
      <point x="345" y="732" type="curve"/>
      <point x="345" y="770" type="line"/>
      <point x="29" y="770" type="line"/>
      <point x="29" y="732" type="line"/>
      <point x="74" y="732"/>
      <point x="100" y="727"/>
      <point x="116" y="710" type="curve" smooth="yes"/>
      <point x="139" y="685"/>
      <point x="140" y="636"/>
      <point x="140" y="537" type="curve" smooth="yes"/>
      <point x="140" y="273" type="line" smooth="yes"/>
      <point x="140" y="63"/>
      <point x="251" y="-10"/>
      <point x="409" y="-10" type="curve" smooth="yes"/>
      <point x="618" y="-10"/>
      <point x="697" y="99"/>
      <point x="697" y="310" type="curve" smooth="yes"/>
    </contour>
    <contour>
      <point x="434" y="830" type="move" name="topcap"/>
    </contour>
    <contour>
      <point x="427" y="0" type="move" name="bottom"/>
    </contour>
  </outline>
</glyph>
<glyph name="V" format="1">
  <advance width="774"/>
  <unicode hex="0056"/>
  <outline>
    <contour>
      <point x="231" y="603" type="line" smooth="yes"/>
      <point x="213" y="649"/>
      <point x="207" y="670"/>
      <point x="207" y="689" type="curve" smooth="yes"/>
      <point x="207" y="717"/>
      <point x="224" y="731"/>
      <point x="298" y="731" type="curve"/>
      <point x="298" y="770" type="line"/>
      <point x="-13" y="770" type="line"/>
      <point x="-13" y="731" type="line"/>
      <point x="57" y="727"/>
      <point x="87" y="695"/>
      <point x="119" y="613" type="curve" smooth="yes"/>
      <point x="367" y="-10" type="line"/>
      <point x="402" y="-10" type="line"/>
      <point x="673" y="651" type="line" smooth="yes"/>
      <point x="696" y="707"/>
      <point x="721" y="725"/>
      <point x="782" y="732" type="curve"/>
      <point x="782" y="770" type="line"/>
      <point x="539" y="770" type="line"/>
      <point x="539" y="732" type="line"/>
      <point x="598" y="732"/>
      <point x="617" y="719"/>
      <point x="617" y="683" type="curve" smooth="yes"/>
      <point x="617" y="661"/>
      <point x="610" y="636"/>
      <point x="590" y="587" type="curve" smooth="yes"/>
      <point x="410" y="148" type="line"/>
    </contour>
  </outline>
</glyph>
<glyph name="W" format="1">
  <advance width="1176"/>
  <unicode hex="0057"/>
  <outline>
    <contour>
      <point x="688" y="600" type="line" smooth="yes"/>
      <point x="674" y="644"/>
      <point x="667" y="671"/>
      <point x="667" y="691" type="curve" smooth="yes"/>
      <point x="667" y="721"/>
      <point x="693" y="731"/>
      <point x="770" y="731" type="curve"/>
      <point x="770" y="770" type="line"/>
      <point x="464" y="770" type="line"/>
      <point x="464" y="731" type="line"/>
      <point x="502" y="731"/>
      <point x="527" y="710"/>
      <point x="563" y="633" type="curve"/>
      <point x="517.893463552" y="509.086641252" type="line"/>
      <point x="389" y="155" type="line"/>
      <point x="229" y="617" type="line" smooth="yes"/>
      <point x="219" y="647"/>
      <point x="213" y="670"/>
      <point x="213" y="687" type="curve" smooth="yes"/>
      <point x="213" y="721"/>
      <point x="247" y="731"/>
      <point x="315" y="731" type="curve"/>
      <point x="315" y="770" type="line"/>
      <point x="-11" y="770" type="line"/>
      <point x="-11" y="731" type="line"/>
      <point x="70" y="731"/>
      <point x="94" y="693"/>
      <point x="141" y="564" type="curve" smooth="yes"/>
      <point x="349" y="-10" type="line"/>
      <point x="384" y="-10" type="line"/>
      <point x="597" y="559" type="line"/>
      <point x="789" y="-10" type="line"/>
      <point x="824" y="-10" type="line"/>
      <point x="1075" y="651" type="line" smooth="yes"/>
      <point x="1096" y="708"/>
      <point x="1123" y="732"/>
      <point x="1184" y="732" type="curve"/>
      <point x="1184" y="770" type="line"/>
      <point x="941" y="770" type="line"/>
      <point x="941" y="732" type="line"/>
      <point x="996" y="732"/>
      <point x="1016" y="721"/>
      <point x="1016" y="687" type="curve" smooth="yes"/>
      <point x="1016" y="664"/>
      <point x="1009" y="637"/>
      <point x="990" y="585" type="curve" smooth="yes"/>
      <point x="832" y="152" type="line"/>
    </contour>
    <contour>
      <point x="615" y="830" type="move" name="topcap"/>
    </contour>
  </outline>
</glyph>
<glyph name="X" format="1">
  <advance width="818"/>
  <unicode hex="0058"/>
  <outline>
    <contour>
      <point x="280" y="38" type="line"/>
      <point x="218" y="38"/>
      <point x="199" y="48"/>
      <point x="199" y="68" type="curve" smooth="yes"/>
      <point x="199" y="93"/>
      <point x="226" y="130"/>
      <point x="311" y="234" type="curve" smooth="yes"/>
      <point x="402" y="345" type="line"/>
      <point x="531" y="172" type="line" smooth="yes"/>
      <point x="561" y="133"/>
      <point x="577" y="103"/>
      <point x="577" y="80" type="curve" smooth="yes"/>
      <point x="577" y="51"/>
      <point x="547" y="38"/>
      <point x="481" y="38" type="curve"/>
      <point x="481" y="0" type="line"/>
      <point x="822" y="0" type="line"/>
      <point x="822" y="38" type="line"/>
      <point x="772" y="38"/>
      <point x="757" y="49"/>
      <point x="710" y="109" type="curve" smooth="yes"/>
      <point x="468" y="418" type="line"/>
      <point x="624" y="626" type="line" smooth="yes"/>
      <point x="696" y="722"/>
      <point x="715" y="732"/>
      <point x="780" y="732" type="curve"/>
      <point x="780" y="770" type="line"/>
      <point x="505" y="770" type="line"/>
      <point x="505" y="732" type="line"/>
      <point x="565" y="732"/>
      <point x="597" y="726"/>
      <point x="597" y="700" type="curve" smooth="yes"/>
      <point x="597" y="682"/>
      <point x="580" y="655"/>
      <point x="547" y="611" type="curve" smooth="yes"/>
      <point x="432" y="459" type="line"/>
      <point x="313" y="627" type="line" smooth="yes"/>
      <point x="291" y="659"/>
      <point x="279" y="681"/>
      <point x="279" y="697" type="curve" smooth="yes"/>
      <point x="279" y="724"/>
      <point x="306" y="732"/>
      <point x="360" y="732" type="curve"/>
      <point x="360" y="770" type="line"/>
      <point x="28" y="770" type="line"/>
      <point x="28" y="732" type="line"/>
      <point x="85" y="732"/>
      <point x="122" y="712"/>
      <point x="156" y="666" type="curve" smooth="yes"/>
      <point x="365" y="389" type="line"/>
      <point x="165" y="139" type="line" smooth="yes"/>
      <point x="103" y="62"/>
      <point x="66" y="38"/>
      <point x="2" y="38" type="curve"/>
      <point x="2" y="0" type="line"/>
      <point x="280" y="0" type="line"/>
    </contour>
  </outline>
</glyph>
<glyph name="Y" format="1">
  <advance width="723"/>
  <unicode hex="0059"/>
  <outline>
    <contour>
      <point x="108" y="646" type="line" smooth="yes"/>
      <point x="66" y="715"/>
      <point x="50" y="732"/>
      <point x="-5" y="732" type="curve"/>
      <point x="-5" y="770" type="line"/>
      <point x="300" y="770" type="line"/>
      <point x="300" y="732" type="line"/>
      <point x="234" y="732"/>
      <point x="209" y="723"/>
      <point x="209" y="698" type="curve" smooth="yes"/>
      <point x="209" y="685"/>
      <point x="217" y="665"/>
      <point x="232" y="638" type="curve" smooth="yes"/>
      <point x="383" y="368" type="line"/>
      <point x="387" y="368" type="line"/>
      <point x="504" y="563" type="line" smooth="yes"/>
      <point x="547" y="635"/>
      <point x="563" y="673"/>
      <point x="563" y="698" type="curve" smooth="yes"/>
      <point x="563" y="723"/>
      <point x="546" y="732"/>
      <point x="488" y="732" type="curve"/>
      <point x="488" y="770" type="line"/>
      <point x="727" y="770" type="line"/>
      <point x="727" y="732" type="line"/>
      <point x="671" y="732"/>
      <point x="645" y="706"/>
      <point x="563" y="568" type="curve" smooth="yes"/>
      <point x="409" y="308" type="line"/>
      <point x="409" y="189" type="line" smooth="yes"/>
      <point x="409" y="59"/>
      <point x="422" y="38"/>
      <point x="518" y="38" type="curve"/>
      <point x="518" y="0" type="line"/>
      <point x="204" y="0" type="line"/>
      <point x="204" y="38" type="line"/>
      <point x="299" y="38"/>
      <point x="314" y="60"/>
      <point x="314" y="182" type="curve" smooth="yes"/>
      <point x="314" y="304" type="line"/>
    </contour>
    <contour>
      <point x="398" y="830" type="move" name="topcap"/>
    </contour>
  </outline>
</glyph>
<glyph name="Z" format="1">
  <advance width="743"/>
  <unicode hex="005A"/>
  <outline>
    <contour>
      <point x="695" y="235" type="line"/>
      <point x="652" y="235" type="line"/>
      <point x="628" y="79"/>
      <point x="599" y="46"/>
      <point x="462" y="46" type="curve" smooth="yes"/>
      <point x="152" y="46" type="line"/>
      <point x="673" y="736" type="line"/>
      <point x="673" y="770" type="line"/>
      <point x="91" y="770" type="line"/>
      <point x="76" y="586" type="line"/>
      <point x="113" y="586" type="line"/>
      <point x="131" y="690"/>
      <point x="174" y="728"/>
      <point x="268" y="728" type="curve" smooth="yes"/>
      <point x="542" y="728" type="line"/>
      <point x="16" y="34" type="line"/>
      <point x="16" y="0" type="line"/>
      <point x="683" y="0" type="line"/>
    </contour>
    <contour>
      <point x="364" y="830" type="move" name="topcap"/>
    </contour>
    <contour>
      <point x="360" y="0" type="move" name="bottom"/>
    </contour>
  </outline>
</glyph>
<glyph name="bracketleft" format="1">
  <advance width="361"/>
  <unicode hex="005B"/>
  <outline>
    <contour>
      <point x="338" y="773" type="line"/>
      <point x="338" y="820" type="line"/>
      <point x="107" y="820" type="line"/>
      <point x="107" y="-150" type="line"/>
      <point x="338" y="-150" type="line"/>
      <point x="338" y="-103" type="line"/>
      <point x="187" y="-103" type="line"/>
      <point x="187" y="773" type="line"/>
    </contour>
  </outline>
</glyph>
<glyph name="bracketright" format="1">
  <advance width="361"/>
  <unicode hex="005D"/>
  <outline>
    <contour>
      <point x="23" y="-103" type="line"/>
      <point x="23" y="-150" type="line"/>
      <point x="254" y="-150" type="line"/>
      <point x="254" y="820" type="line"/>
      <point x="23" y="820" type="line"/>
      <point x="23" y="773" type="line"/>
      <point x="174" y="773" type="line"/>
      <point x="174" y="-103" type="line"/>
    </contour>
  </outline>
</glyph>
<glyph name="a" format="1">
  <advance width="529"/>
  <unicode hex="0061"/>
  <outline>
    <contour>
      <point x="349" y="217" type="line" smooth="yes"/>
      <point x="349" y="117"/>
      <point x="283" y="51"/>
      <point x="214" y="51" type="curve" smooth="yes"/>
      <point x="166" y="51"/>
      <point x="134" y="79"/>
      <point x="134" y="132" type="curve"/>
      <point x="134" y="186"/>
      <point x="176" y="234"/>
      <point x="349" y="299" type="curve"/>
    </contour>
    <contour>
      <point x="195" y="273" type="line" smooth="yes"/>
      <point x="84" y="228"/>
      <point x="43" y="179"/>
      <point x="43" y="115" type="curve" smooth="yes"/>
      <point x="43" y="44"/>
      <point x="95" y="-9"/>
      <point x="175" y="-9" type="curve"/>
      <point x="252" y="-9"/>
      <point x="307" y="32"/>
      <point x="342" y="97" type="curve"/>
      <point x="347" y="97" type="line"/>
      <point x="348" y="31"/>
      <point x="376" y="-10"/>
      <point x="430" y="-10" type="curve"/>
      <point x="477" y="-10"/>
      <point x="508" y="16"/>
      <point x="530" y="44" type="curve"/>
      <point x="516" y="68" type="line"/>
      <point x="502" y="56"/>
      <point x="485" y="46"/>
      <point x="467" y="46" type="curve"/>
      <point x="437" y="46"/>
      <point x="429" y="64"/>
      <point x="429" y="140" type="curve"/>
      <point x="429" y="376" type="line" smooth="yes"/>
      <point x="429" y="472"/>
      <point x="397" y="540"/>
      <point x="263" y="540" type="curve" smooth="yes"/>
      <point x="155" y="540"/>
      <point x="67" y="503"/>
      <point x="67" y="439" type="curve" smooth="yes"/>
      <point x="67" y="407"/>
      <point x="85" y="389"/>
      <point x="114" y="389" type="curve"/>
      <point x="140" y="389"/>
      <point x="159" y="401"/>
      <point x="169" y="437" type="curve" smooth="yes"/>
      <point x="183" y="488"/>
      <point x="208" y="502"/>
      <point x="259" y="502" type="curve"/>
      <point x="316" y="502"/>
      <point x="349" y="463"/>
      <point x="349" y="380" type="curve" smooth="yes"/>
      <point x="349" y="336" type="line"/>
    </contour>
    <contour>
      <point x="255" y="651" type="move" name="top"/>
    </contour>
    <contour>
      <point x="436" y="0" type="move" name="bottom"/>
    </contour>
  </outline>
</glyph>
<glyph name="b" format="1">
  <advance width="604"/>
  <unicode hex="0062"/>
  <outline>
    <contour>
      <point x="171" y="298" type="line" smooth="yes"/>
      <point x="171.0" y="360.175425023"/>
      <point x="182.74008515" y="406.079503961"/>
      <point x="203.696435605" y="437.675207805" type="curve" smooth="yes"/>
      <point x="228.916207167" y="475.698833865"/>
      <point x="267.483664066" y="493.0"/>
      <point x="315" y="493" type="curve" smooth="yes"/>
      <point x="409" y="493"/>
      <point x="465" y="398"/>
      <point x="465" y="262" type="curve" smooth="yes"/>
      <point x="465" y="127"/>
      <point x="412" y="37"/>
      <point x="319" y="37" type="curve" smooth="yes"/>
      <point x="233" y="37"/>
      <point x="171" y="109"/>
      <point x="171" y="209" type="curve" smooth="yes"/>
    </contour>
    <contour>
      <point x="169" y="830" type="line"/>
      <point x="-1" y="790" type="line"/>
      <point x="-1" y="765" type="line"/>
      <point x="39.0" y="760.0"/>
      <point x="62.0" y="751.5"/>
      <point x="75.0" y="734.625" type="curve" smooth="yes"/>
      <point x="88.0" y="717.75"/>
      <point x="91.0" y="692.5"/>
      <point x="91" y="654" type="curve"/>
      <point x="91" y="0" type="line"/>
      <point x="123" y="0" type="line"/>
      <point x="142" y="67" type="line"/>
      <point x="184" y="19"/>
      <point x="255" y="-11"/>
      <point x="330" y="-11" type="curve" smooth="yes"/>
      <point x="476" y="-11"/>
      <point x="556" y="108"/>
      <point x="556" y="265" type="curve" smooth="yes"/>
      <point x="556" y="420"/>
      <point x="477" y="540"/>
      <point x="333" y="540" type="curve" smooth="yes"/>
      <point x="266" y="540"/>
      <point x="216" y="515"/>
      <point x="173" y="459" type="curve"/>
      <point x="169" y="459" type="line"/>
    </contour>
  </outline>
</glyph>
<glyph name="c" format="1">
  <advance width="521"/>
  <unicode hex="0063"/>
  <outline>
    <contour>
      <point x="461" y="112" type="line"/>
      <point x="421" y="63"/>
      <point x="373" y="42"/>
      <point x="317" y="42" type="curve"/>
      <point x="206" y="42"/>
      <point x="140" y="124"/>
      <point x="140" y="276" type="curve" smooth="yes"/>
      <point x="140" y="418"/>
      <point x="196" y="493"/>
      <point x="290" y="493" type="curve" smooth="yes"/>
      <point x="329" y="493"/>
      <point x="356" y="484"/>
      <point x="382" y="446" type="curve" smooth="yes"/>
      <point x="400" y="420"/>
      <point x="415" y="410"/>
      <point x="442" y="410" type="curve"/>
      <point x="467" y="410"/>
      <point x="486" y="426"/>
      <point x="486" y="452" type="curve" smooth="yes"/>
      <point x="486" y="504"/>
      <point x="413" y="540"/>
      <point x="310" y="540" type="curve" smooth="yes"/>
      <point x="154" y="540"/>
      <point x="49" y="431"/>
      <point x="49" y="261" type="curve" smooth="yes"/>
      <point x="49" y="99"/>
      <point x="150" y="-10"/>
      <point x="300" y="-10" type="curve"/>
      <point x="383" y="-10"/>
      <point x="443" y="25"/>
      <point x="491" y="83" type="curve"/>
    </contour>
    <contour>
      <point x="301" y="651" type="move" name="top"/>
    </contour>
    <contour>
      <point x="276" y="0" type="move" name="bottom"/>
    </contour>
  </outline>
</glyph>
<glyph name="d" format="1">
  <advance width="627"/>
  <unicode hex="0064"/>
  <outline>
    <contour>
      <point x="454" y="-10" type="line"/>
      <point x="602" y="1" type="line"/>
      <point x="602" y="35" type="line"/>
      <point x="540" y="35"/>
      <point x="529" y="44"/>
      <point x="521" y="76" type="curve" smooth="yes"/>
      <point x="515" y="101"/>
      <point x="514" y="161"/>
      <point x="514" y="253" type="curve" smooth="yes"/>
      <point x="514" y="830" type="line"/>
      <point x="327" y="792" type="line"/>
      <point x="327" y="762" type="line"/>
      <point x="396" y="762"/>
      <point x="423" y="751"/>
      <point x="430" y="722" type="curve" smooth="yes"/>
      <point x="434" y="704"/>
      <point x="436" y="650"/>
      <point x="436" y="575" type="curve"/>
      <point x="436" y="473" type="line"/>
      <point x="401" y="514"/>
      <point x="345" y="540"/>
      <point x="281" y="540" type="curve"/>
      <point x="143" y="540"/>
      <point x="48" y="424"/>
      <point x="48" y="266" type="curve" smooth="yes"/>
      <point x="48" y="105"/>
      <point x="137" y="-10"/>
      <point x="278" y="-10" type="curve"/>
      <point x="361" y="-10"/>
      <point x="410" y="27"/>
      <point x="450" y="84" type="curve"/>
      <point x="454" y="84" type="line"/>
    </contour>
    <contour>
      <point x="434" y="239" type="line" smooth="yes"/>
      <point x="434.0" y="165.0"/>
      <point x="420.0" y="114.75"/>
      <point x="395.5" y="83.0" type="curve" smooth="yes"/>
      <point x="371.0" y="51.25"/>
      <point x="336.0" y="38.0"/>
      <point x="294" y="38" type="curve"/>
      <point x="192" y="38"/>
      <point x="139" y="130"/>
      <point x="139" y="271" type="curve" smooth="yes"/>
      <point x="139" y="406"/>
      <point x="190" y="492"/>
      <point x="292" y="492" type="curve"/>
      <point x="332.0" y="492.0"/>
      <point x="367.5" y="479.0"/>
      <point x="393.0" y="449.125" type="curve" smooth="yes"/>
      <point x="418.5" y="419.25"/>
      <point x="434.0" y="372.5"/>
      <point x="434" y="305" type="curve" smooth="yes"/>
    </contour>
    <contour>
      <point x="278" y="0" type="move" name="bottom"/>
    </contour>
  </outline>
</glyph>
<glyph name="e" format="1">
  <advance width="551"/>
  <unicode hex="0065"/>
  <outline>
    <contour>
      <point x="470" y="119" type="line"/>
      <point x="424" y="67"/>
      <point x="371" y="42"/>
      <point x="310" y="42" type="curve"/>
      <point x="204" y="42"/>
      <point x="140" y="123"/>
      <point x="140" y="272" type="curve"/>
      <point x="140" y="288"/>
      <point x="141" y="303"/>
      <point x="142" y="317" type="curve"/>
      <point x="473" y="317" type="line" smooth="yes"/>
      <point x="500" y="317"/>
      <point x="504" y="319"/>
      <point x="504" y="337" type="curve" smooth="yes"/>
      <point x="504" y="467"/>
      <point x="433" y="540"/>
      <point x="307" y="540" type="curve"/>
      <point x="154" y="540"/>
      <point x="49" y="433"/>
      <point x="49" y="259" type="curve"/>
      <point x="49" y="89"/>
      <point x="148" y="-10"/>
      <point x="296" y="-10" type="curve"/>
      <point x="382" y="-10"/>
      <point x="451" y="30"/>
      <point x="499" y="93" type="curve"/>
    </contour>
    <contour>
      <point x="150" y="363" type="line"/>
      <point x="176" y="462"/>
      <point x="244" y="492"/>
      <point x="306" y="492" type="curve"/>
      <point x="380" y="492"/>
      <point x="417" y="452"/>
      <point x="417" y="391" type="curve" smooth="yes"/>
      <point x="417" y="367"/>
      <point x="411" y="363"/>
      <point x="357" y="363" type="curve" smooth="yes"/>
    </contour>
    <contour>
      <point x="313" y="651" type="move" name="top"/>
    </contour>
    <contour>
      <point x="312" y="0" type="move" name="bottom"/>
    </contour>
  </outline>
</glyph>
<glyph name="f" format="1">
  <advance width="398"/>
  <unicode hex="0066"/>
  <outline>
    <contour>
      <point x="22" y="467" type="line"/>
      <point x="135" y="467" type="line"/>
      <point x="135" y="153" type="line" smooth="yes"/>
      <point x="135" y="52"/>
      <point x="125" y="39"/>
      <point x="49" y="35" type="curve"/>
      <point x="49" y="0" type="line"/>
      <point x="319" y="0" type="line"/>
      <point x="319" y="35" type="line"/>
      <point x="235" y="37"/>
      <point x="215" y="62"/>
      <point x="215" y="161" type="curve" smooth="yes"/>
      <point x="215" y="467" type="line"/>
      <point x="376" y="467" type="line"/>
      <point x="376" y="514" type="line"/>
      <point x="215" y="514" type="line"/>
      <point x="215" y="592" type="line" smooth="yes"/>
      <point x="215.0" y="678.315793991"/>
      <point x="228.301675586" y="729.899435062"/>
      <point x="253.557439095" y="757.082428637" type="curve" smooth="yes"/>
      <point x="269.850484355" y="774.618772151"/>
      <point x="291.118608475" y="782.0"/>
      <point x="317" y="782" type="curve" smooth="yes"/>
      <point x="342" y="782"/>
      <point x="366" y="773"/>
      <point x="389" y="748" type="curve" smooth="yes"/>
      <point x="415" y="720"/>
      <point x="434" y="715"/>
      <point x="450" y="715" type="curve" smooth="yes"/>
      <point x="475" y="715"/>
      <point x="494" y="732"/>
      <point x="494" y="762" type="curve" smooth="yes"/>
      <point x="494" y="802"/>
      <point x="436" y="830"/>
      <point x="354" y="830" type="curve" smooth="yes"/>
      <point x="205" y="830"/>
      <point x="135" y="739"/>
      <point x="135" y="586" type="curve" smooth="yes"/>
      <point x="135" y="514" type="line"/>
      <point x="22" y="514" type="line"/>
    </contour>
  </outline>
</glyph>
<glyph name="g" format="1">
  <advance width="600"/>
  <unicode hex="0067"/>
  <outline>
    <contour>
      <point x="274" y="215" type="curve" smooth="yes"/>
      <point x="207" y="215"/>
      <point x="168" y="273"/>
      <point x="168" y="361" type="curve" smooth="yes"/>
      <point x="168" y="448"/>
      <point x="206" y="503"/>
      <point x="273" y="503" type="curve" smooth="yes"/>
      <point x="340" y="503"/>
      <point x="374" y="450"/>
      <point x="374" y="360" type="curve" smooth="yes"/>
      <point x="374" y="269"/>
      <point x="340" y="215"/>
    </contour>
    <contour>
      <point x="219" y="87" type="line" smooth="yes"/>
      <point x="173" y="91"/>
      <point x="148" y="104"/>
      <point x="148" y="127" type="curve" smooth="yes"/>
      <point x="148" y="151"/>
      <point x="176" y="167"/>
      <point x="257" y="173" type="curve" smooth="yes"/>
      <point x="397" y="183"/>
      <point x="464" y="251"/>
      <point x="464" y="363" type="curve" smooth="yes"/>
      <point x="464" y="399"/>
      <point x="455" y="431"/>
      <point x="439" y="458" type="curve"/>
      <point x="465" y="474"/>
      <point x="479" y="479"/>
      <point x="492" y="479" type="curve" smooth="yes"/>
      <point x="529" y="479"/>
      <point x="532" y="445"/>
      <point x="569" y="445" type="curve" smooth="yes"/>
      <point x="594" y="445"/>
      <point x="610" y="464"/>
      <point x="610" y="487" type="curve"/>
      <point x="610" y="519"/>
      <point x="588" y="540"/>
      <point x="545" y="540" type="curve"/>
      <point x="514" y="540"/>
      <point x="474" y="529"/>
      <point x="418" y="485" type="curve"/>
      <point x="385" y="520"/>
      <point x="335" y="540"/>
      <point x="271" y="540" type="curve" smooth="yes"/>
      <point x="157" y="540"/>
      <point x="79" y="465"/>
      <point x="79" y="364" type="curve" smooth="yes"/>
      <point x="79" y="283"/>
      <point x="121" y="224"/>
      <point x="180" y="200" type="curve"/>
      <point x="180" y="196" type="line"/>
      <point x="131" y="178"/>
      <point x="75" y="146"/>
      <point x="75" y="97" type="curve"/>
      <point x="75" y="50"/>
      <point x="118" y="25"/>
      <point x="189" y="19" type="curve" smooth="yes"/>
      <point x="348" y="6" type="line" smooth="yes"/>
      <point x="436" y="-1"/>
      <point x="475" y="-34"/>
      <point x="475" y="-94" type="curve" smooth="yes"/>
      <point x="475" y="-168"/>
      <point x="415" y="-216"/>
      <point x="300" y="-216" type="curve"/>
      <point x="182" y="-216"/>
      <point x="121" y="-182"/>
      <point x="121" y="-114" type="curve"/>
      <point x="121" y="-70"/>
      <point x="146" y="-49"/>
      <point x="182" y="-41" type="curve"/>
      <point x="171" y="-29"/>
      <point x="150" y="-18"/>
      <point x="121" y="-18" type="curve" smooth="yes"/>
      <point x="68" y="-18"/>
      <point x="32" y="-48"/>
      <point x="32" y="-101" type="curve"/>
      <point x="32" y="-191"/>
      <point x="126" y="-260"/>
      <point x="296" y="-260" type="curve"/>
      <point x="444" y="-260"/>
      <point x="543" y="-186"/>
      <point x="543" y="-71" type="curve" smooth="yes"/>
      <point x="543" y="16"/>
      <point x="493" y="64"/>
      <point x="364" y="75" type="curve" smooth="yes"/>
    </contour>
  </outline>
</glyph>
<glyph name="h" format="1">
  <advance width="655"/>
  <unicode hex="0068"/>
  <outline>
    <contour>
      <point x="190" y="297" type="line"/>
      <point x="190.0" y="359.0"/>
      <point x="204.5" y="406.0"/>
      <point x="230.5" y="437.5" type="curve" smooth="yes"/>
      <point x="256.5" y="469.0"/>
      <point x="294.0" y="485.0"/>
      <point x="340" y="485" type="curve"/>
      <point x="425.0" y="485.0"/>
      <point x="470.0" y="433.0"/>
      <point x="470" y="293" type="curve"/>
      <point x="470" y="152" type="line" smooth="yes"/>
      <point x="470" y="51"/>
      <point x="462" y="39"/>
      <point x="386" y="35" type="curve"/>
      <point x="386" y="0" type="line"/>
      <point x="632" y="0" type="line"/>
      <point x="632" y="35" type="line"/>
      <point x="556" y="40"/>
      <point x="550" y="50"/>
      <point x="550" y="159" type="curve" smooth="yes"/>
      <point x="550" y="314" type="line"/>
      <point x="550.0" y="391.0"/>
      <point x="532.75" y="447.5"/>
      <point x="500.875" y="484.75" type="curve" smooth="yes"/>
      <point x="469.0" y="522.0"/>
      <point x="422.5" y="540.0"/>
      <point x="364" y="540" type="curve"/>
      <point x="291" y="540"/>
      <point x="233" y="507"/>
      <point x="192" y="449" type="curve"/>
      <point x="188" y="449" type="line"/>
      <point x="188" y="830" type="line"/>
      <point x="22" y="792" type="line"/>
      <point x="22" y="758" type="line"/>
      <point x="82" y="758"/>
      <point x="97" y="750"/>
      <point x="103" y="718" type="curve" smooth="yes"/>
      <point x="108" y="694"/>
      <point x="110" y="649"/>
      <point x="110" y="571" type="curve" smooth="yes"/>
      <point x="110" y="152" type="line" smooth="yes"/>
      <point x="110" y="51"/>
      <point x="101" y="40"/>
      <point x="24" y="35" type="curve"/>
      <point x="24" y="0" type="line"/>
      <point x="272" y="0" type="line"/>
      <point x="272" y="35" type="line"/>
      <point x="196" y="40"/>
      <point x="190" y="49"/>
      <point x="190" y="159" type="curve" smooth="yes"/>
    </contour>
    <contour>
      <point x="368" y="651" type="move" name="top"/>
    </contour>
    <contour>
      <point x="327" y="0" type="move" name="bottom"/>
    </contour>
  </outline>
</glyph>
<glyph name="i" format="1">
  <advance width="323"/>
  <unicode hex="0069"/>
  <outline>
    <contour>
      <point x="210" y="540" type="line"/>
      <point x="32" y="502" type="line"/>
      <point x="32" y="467" type="line"/>
      <point x="98" y="467"/>
      <point x="117" y="458"/>
      <point x="123" y="427" type="curve" smooth="yes"/>
      <point x="128" y="409"/>
      <point x="130" y="357"/>
      <point x="130" y="280" type="curve" smooth="yes"/>
      <point x="130" y="152" type="line" smooth="yes"/>
      <point x="130" y="58"/>
      <point x="115" y="39"/>
      <point x="34" y="35" type="curve"/>
      <point x="34" y="0" type="line"/>
      <point x="303" y="0" type="line"/>
      <point x="303" y="35" type="line"/>
      <point x="224" y="38"/>
      <point x="210" y="56"/>
      <point x="210" y="159" type="curve" smooth="yes"/>
    </contour>
    <contour>
      <point x="95" y="743" type="curve" smooth="yes"/>
      <point x="95" y="708"/>
      <point x="122" y="681"/>
      <point x="157" y="681" type="curve" smooth="yes"/>
      <point x="192" y="681"/>
      <point x="219" y="708"/>
      <point x="219" y="743" type="curve" smooth="yes"/>
      <point x="219" y="778"/>
      <point x="192" y="805"/>
      <point x="157" y="805" type="curve" smooth="yes"/>
      <point x="122" y="805"/>
      <point x="95" y="778"/>
    </contour>
    <contour>
      <point x="158" y="651" type="move" name="top"/>
    </contour>
    <contour>
      <point x="161" y="0" type="move" name="bottom"/>
    </contour>
  </outline>
</glyph>
<glyph name="j" format="1">
  <advance width="277"/>
  <unicode hex="006A"/>
  <outline>
    <contour>
      <point x="186" y="540" type="line"/>
      <point x="5" y="502" type="line"/>
      <point x="5" y="467" type="line"/>
      <point x="71" y="467"/>
      <point x="90" y="458"/>
      <point x="96" y="427" type="curve" smooth="yes"/>
      <point x="101" y="409"/>
      <point x="103" y="357"/>
      <point x="103" y="280" type="curve" smooth="yes"/>
      <point x="103" y="-68" type="line" smooth="yes"/>
      <point x="103" y="-179"/>
      <point x="91" y="-217"/>
      <point x="27" y="-217" type="curve" smooth="yes"/>
      <point x="-6" y="-217"/>
      <point x="-19" y="-207"/>
      <point x="-40" y="-167" type="curve" smooth="yes"/>
      <point x="-56" y="-136"/>
      <point x="-68" y="-120"/>
      <point x="-94" y="-120" type="curve"/>
      <point x="-121" y="-120"/>
      <point x="-137" y="-137"/>
      <point x="-137" y="-162" type="curve"/>
      <point x="-137" y="-217"/>
      <point x="-79" y="-260"/>
      <point x="6" y="-260" type="curve" smooth="yes"/>
      <point x="136" y="-260"/>
      <point x="186" y="-168"/>
      <point x="186" y="-2" type="curve" smooth="yes"/>
    </contour>
    <contour>
      <point x="73" y="743" type="curve" smooth="yes"/>
      <point x="73" y="708"/>
      <point x="100" y="681"/>
      <point x="135" y="681" type="curve" smooth="yes"/>
      <point x="170" y="681"/>
      <point x="197" y="708"/>
      <point x="197" y="743" type="curve" smooth="yes"/>
      <point x="197" y="778"/>
      <point x="170" y="805"/>
      <point x="135" y="805" type="curve" smooth="yes"/>
      <point x="100" y="805"/>
      <point x="73" y="778"/>
    </contour>
    <contour>
      <point x="150" y="651" type="move" name="top"/>
    </contour>
  </outline>
</glyph>
<glyph name="k" format="1">
  <advance width="587"/>
  <unicode hex="006B"/>
  <outline>
    <contour>
      <point x="348" y="0" type="line"/>
      <point x="582" y="0" type="line"/>
      <point x="582" y="35" type="line"/>
      <point x="531" y="35"/>
      <point x="500" y="48"/>
      <point x="466" y="96" type="curve" smooth="yes"/>
      <point x="313" y="314" type="line"/>
      <point x="451" y="442" type="line" smooth="yes"/>
      <point x="500" y="487"/>
      <point x="519" y="495"/>
      <point x="569" y="495" type="curve"/>
      <point x="569" y="530" type="line"/>
      <point x="309" y="530" type="line"/>
      <point x="309" y="495" type="line"/>
      <point x="361" y="495"/>
      <point x="388" y="490"/>
      <point x="390" y="476" type="curve" smooth="yes"/>
      <point x="392" y="462"/>
      <point x="376" y="446"/>
      <point x="301" y="372" type="curve" smooth="yes"/>
      <point x="193" y="267" type="line"/>
      <point x="193" y="830" type="line"/>
      <point x="15" y="792" type="line"/>
      <point x="15" y="758" type="line"/>
      <point x="62" y="758"/>
      <point x="89" y="758"/>
      <point x="101" y="739" type="curve" smooth="yes"/>
      <point x="113" y="721"/>
      <point x="113" y="672"/>
      <point x="113" y="571" type="curve" smooth="yes"/>
      <point x="113" y="152" type="line" smooth="yes"/>
      <point x="113" y="57"/>
      <point x="97" y="38"/>
      <point x="17" y="35" type="curve"/>
      <point x="17" y="0" type="line"/>
      <point x="301" y="0" type="line"/>
      <point x="301" y="35" type="line"/>
      <point x="206" y="38"/>
      <point x="193" y="56"/>
      <point x="193" y="159" type="curve"/>
      <point x="193" y="203" type="line"/>
      <point x="261" y="266" type="line"/>
      <point x="351" y="125" type="line" smooth="yes"/>
      <point x="375" y="88"/>
      <point x="389" y="65"/>
      <point x="389" y="52" type="curve" smooth="yes"/>
      <point x="389" y="39"/>
      <point x="377" y="35"/>
      <point x="348" y="35" type="curve"/>
    </contour>
    <contour>
      <point x="326" y="0" type="move" name="bottom"/>
    </contour>
  </outline>
</glyph>
<glyph name="l" format="1">
  <advance width="312"/>
  <unicode hex="006C"/>
  <outline>
    <contour>
      <point x="196" y="830" type="line"/>
      <point x="20" y="793" type="line"/>
      <point x="20" y="759" type="line"/>
      <point x="83" y="759"/>
      <point x="102" y="751"/>
      <point x="110" y="720" type="curve"/>
      <point x="113" y="703"/>
      <point x="115" y="652"/>
      <point x="116" y="580" type="curve"/>
      <point x="116" y="149" type="line"/>
      <point x="115" y="57"/>
      <point x="100" y="39"/>
      <point x="22" y="35" type="curve"/>
      <point x="22" y="0" type="line"/>
      <point x="285" y="0" type="line"/>
      <point x="285" y="35" type="line"/>
      <point x="207" y="38"/>
      <point x="195" y="55"/>
      <point x="196" y="156" type="curve"/>
    </contour>
    <contour>
      <point x="149" y="830" type="move" name="topcap"/>
    </contour>
    <contour>
      <point x="150" y="0" type="move" name="bottom"/>
    </contour>
  </outline>
</glyph>
<glyph name="m" format="1">
  <advance width="1004"/>
  <unicode hex="006D"/>
  <outline>
    <contour>
      <point x="202" y="297" type="line"/>
      <point x="202.0" y="359.0"/>
      <point x="217.75" y="406.0"/>
      <point x="243.75" y="437.5" type="curve" smooth="yes"/>
      <point x="269.75" y="469.0"/>
      <point x="306.0" y="485.0"/>
      <point x="347" y="485" type="curve"/>
      <point x="432" y="485"/>
      <point x="472" y="433"/>
      <point x="472" y="293" type="curve"/>
      <point x="472" y="152" type="line" smooth="yes"/>
      <point x="472" y="51"/>
      <point x="474" y="39"/>
      <point x="398" y="35" type="curve"/>
      <point x="398" y="0" type="line"/>
      <point x="634" y="0" type="line"/>
      <point x="634" y="35" type="line"/>
      <point x="558" y="40"/>
      <point x="552" y="50"/>
      <point x="552" y="159" type="curve" smooth="yes"/>
      <point x="552" y="297" type="line"/>
      <point x="552.0" y="359.0"/>
      <point x="567.75" y="406.0"/>
      <point x="593.75" y="437.5" type="curve" smooth="yes"/>
      <point x="619.75" y="469.0"/>
      <point x="656.0" y="485.0"/>
      <point x="697" y="485" type="curve"/>
      <point x="782" y="485"/>
      <point x="822" y="433"/>
      <point x="822" y="293" type="curve"/>
      <point x="822" y="152" type="line" smooth="yes"/>
      <point x="822" y="51"/>
      <point x="824" y="39"/>
      <point x="748" y="35" type="curve"/>
      <point x="748" y="0" type="line"/>
      <point x="984" y="0" type="line"/>
      <point x="984" y="35" type="line"/>
      <point x="908" y="40"/>
      <point x="902" y="50"/>
      <point x="902" y="159" type="curve" smooth="yes"/>
      <point x="902" y="314" type="line"/>
      <point x="902.0" y="391.0"/>
      <point x="886.0" y="447.5"/>
      <point x="855.375" y="484.75" type="curve" smooth="yes"/>
      <point x="824.75" y="522.0"/>
      <point x="779.5" y="540.0"/>
      <point x="721" y="540" type="curve"/>
      <point x="641" y="540"/>
      <point x="580" y="504"/>
      <point x="537" y="431" type="curve"/>
      <point x="534" y="431" type="line"/>
      <point x="506" y="505"/>
      <point x="453" y="540"/>
      <point x="371" y="540" type="curve"/>
      <point x="298" y="540"/>
      <point x="245" y="510"/>
      <point x="196" y="441" type="curve"/>
      <point x="192" y="441" type="line"/>
      <point x="180" y="540" type="line"/>
      <point x="35" y="502" type="line"/>
      <point x="35" y="470" type="line"/>
      <point x="93" y="470"/>
      <point x="107" y="464"/>
      <point x="115" y="428" type="curve" smooth="yes"/>
      <point x="119" y="411"/>
      <point x="121" y="361"/>
      <point x="121" y="283" type="curve" smooth="yes"/>
      <point x="121" y="150" type="line" smooth="yes"/>
      <point x="121" y="50"/>
      <point x="111" y="39"/>
      <point x="37" y="34" type="curve"/>
      <point x="37" y="0" type="line"/>
      <point x="284" y="0" type="line"/>
      <point x="284" y="35" type="line"/>
      <point x="208" y="40"/>
      <point x="202" y="49"/>
      <point x="202" y="159" type="curve" smooth="yes"/>
    </contour>
  </outline>
</glyph>
<glyph name="n" format="1">
  <advance width="668"/>
  <unicode hex="006E"/>
  <outline>
    <contour>
      <point x="202" y="297" type="line"/>
      <point x="201.5" y="359.0"/>
      <point x="218.25" y="406.0"/>
      <point x="245.5" y="437.5" type="curve" smooth="yes"/>
      <point x="272.75" y="469.0"/>
      <point x="310.5" y="485.0"/>
      <point x="352" y="485" type="curve"/>
      <point x="436" y="485"/>
      <point x="481" y="433"/>
      <point x="482" y="293" type="curve"/>
      <point x="482" y="152" type="line"/>
      <point x="481" y="51"/>
      <point x="473" y="39"/>
      <point x="398" y="35" type="curve"/>
      <point x="398" y="0" type="line"/>
      <point x="644" y="0" type="line"/>
      <point x="644" y="35" type="line"/>
      <point x="567" y="40"/>
      <point x="561" y="50"/>
      <point x="562" y="159" type="curve"/>
      <point x="562" y="314" type="line"/>
      <point x="561.5" y="391.0"/>
      <point x="544.0" y="447.5"/>
      <point x="512.125" y="484.75" type="curve" smooth="yes"/>
      <point x="480.25" y="522.0"/>
      <point x="434.0" y="540.0"/>
      <point x="376" y="540" type="curve"/>
      <point x="302" y="540"/>
      <point x="244" y="510"/>
      <point x="196" y="441" type="curve"/>
      <point x="192" y="441" type="line"/>
      <point x="180" y="540" type="line"/>
      <point x="35" y="502" type="line"/>
      <point x="35" y="470" type="line"/>
      <point x="92" y="470"/>
      <point x="106" y="464"/>
      <point x="115" y="428" type="curve"/>
      <point x="118" y="411"/>
      <point x="120" y="361"/>
      <point x="121" y="283" type="curve"/>
      <point x="121" y="150" type="line"/>
      <point x="120" y="50"/>
      <point x="110" y="39"/>
      <point x="37" y="34" type="curve"/>
      <point x="37" y="0" type="line"/>
      <point x="284" y="0" type="line"/>
      <point x="284" y="35" type="line"/>
      <point x="207" y="40"/>
      <point x="201" y="49"/>
      <point x="202" y="159" type="curve"/>
    </contour>
    <contour>
      <point x="338" y="651" type="move" name="top"/>
    </contour>
    <contour>
      <point x="338" y="0" type="move" name="bottom"/>
    </contour>
  </outline>
</glyph>
<glyph name="o" format="1">
  <advance width="614"/>
  <unicode hex="006F"/>
  <outline>
    <contour>
      <point x="305" y="540" type="curve" smooth="yes"/>
      <point x="155" y="540"/>
      <point x="48" y="427"/>
      <point x="48" y="269" type="curve" smooth="yes"/>
      <point x="48" y="106"/>
      <point x="155" y="-10"/>
      <point x="305" y="-10" type="curve" smooth="yes"/>
      <point x="457" y="-10"/>
      <point x="566" y="107"/>
      <point x="566" y="269" type="curve" smooth="yes"/>
      <point x="566" y="426"/>
      <point x="457" y="540"/>
    </contour>
    <contour>
      <point x="305" y="492" type="curve" smooth="yes"/>
      <point x="406" y="492"/>
      <point x="473" y="401"/>
      <point x="473" y="268" type="curve" smooth="yes"/>
      <point x="473" y="131"/>
      <point x="407" y="41"/>
      <point x="305" y="41" type="curve" smooth="yes"/>
      <point x="205" y="41"/>
      <point x="141" y="130"/>
      <point x="141" y="268" type="curve" smooth="yes"/>
      <point x="141" y="402"/>
      <point x="206" y="492"/>
    </contour>
    <contour>
      <point x="305" y="651" type="move" name="top"/>
    </contour>
    <contour>
      <point x="305" y="0" type="move" name="bottom"/>
    </contour>
  </outline>
</glyph>
<glyph name="p" format="1">
  <advance width="632"/>
  <unicode hex="0070"/>
  <outline>
    <contour>
      <point x="192" y="536" type="line"/>
      <point x="18" y="498" type="line"/>
      <point x="18" y="464" type="line"/>
      <point x="84" y="464"/>
      <point x="103" y="455"/>
      <point x="109" y="423" type="curve" smooth="yes"/>
      <point x="114" y="405"/>
      <point x="116" y="354"/>
      <point x="116" y="277" type="curve" smooth="yes"/>
      <point x="116" y="-97" type="line" smooth="yes"/>
      <point x="116" y="-193"/>
      <point x="100" y="-212"/>
      <point x="20" y="-215" type="curve"/>
      <point x="20" y="-250" type="line"/>
      <point x="310" y="-250" type="line"/>
      <point x="310" y="-215" type="line"/>
      <point x="211" y="-212"/>
      <point x="196" y="-196"/>
      <point x="196" y="-90" type="curve"/>
      <point x="196" y="56" type="line"/>
      <point x="239" y="10"/>
      <point x="294" y="-10"/>
      <point x="350" y="-10" type="curve"/>
      <point x="491" y="-10"/>
      <point x="583" y="106"/>
      <point x="583" y="264" type="curve" smooth="yes"/>
      <point x="583" y="427"/>
      <point x="492" y="540"/>
      <point x="361" y="540" type="curve"/>
      <point x="286" y="540"/>
      <point x="231" y="509"/>
      <point x="196" y="458" type="curve"/>
      <point x="192" y="458" type="line"/>
    </contour>
    <contour>
      <point x="230.246396993" y="439.804992256" type="curve" smooth="yes"/>
      <point x="259.335636447" y="479.339016351"/>
      <point x="302.392045081" y="492.0"/>
      <point x="341" y="492" type="curve"/>
      <point x="442" y="492"/>
      <point x="492" y="404"/>
      <point x="492" y="259" type="curve" smooth="yes"/>
      <point x="492" y="124"/>
      <point x="444" y="38"/>
      <point x="342" y="38" type="curve"/>
      <point x="311.397502542" y="38.0"/>
      <point x="268.590790979" y="45.065597639"/>
      <point x="237.240842917" y="82.4937554802" type="curve" smooth="yes"/>
      <point x="213.271868147" y="111.109897656"/>
      <point x="196.0" y="157.474621534"/>
      <point x="196" y="232" type="curve" smooth="yes"/>
      <point x="196" y="310" type="line" smooth="yes"/>
      <point x="196.0" y="370.17949298"/>
      <point x="209.607806833" y="411.755908265"/>
    </contour>
  </outline>
</glyph>
<glyph name="q" format="1">
  <advance width="604"/>
  <unicode hex="0071"/>
  <outline>
    <contour>
      <point x="435" y="-97" type="line"/>
      <point x="435" y="-188"/>
      <point x="414" y="-213"/>
      <point x="329" y="-215" type="curve"/>
      <point x="329" y="-250" type="line"/>
      <point x="616" y="-250" type="line"/>
      <point x="616" y="-215" type="line"/>
      <point x="521" y="-212"/>
      <point x="513" y="-201"/>
      <point x="513" y="-90" type="curve"/>
      <point x="513" y="530" type="line"/>
      <point x="481" y="530" type="line"/>
      <point x="462" y="463" type="line"/>
      <point x="419" y="508"/>
      <point x="359" y="541"/>
      <point x="289" y="541" type="curve"/>
      <point x="128" y="541"/>
      <point x="48" y="422"/>
      <point x="48" y="265" type="curve" smooth="yes"/>
      <point x="48" y="110"/>
      <point x="127" y="-10"/>
      <point x="271" y="-10" type="curve" smooth="yes"/>
      <point x="338" y="-10"/>
      <point x="388" y="15"/>
      <point x="431" y="71" type="curve"/>
      <point x="435" y="71" type="line"/>
    </contour>
    <contour>
      <point x="433" y="232" type="line" smooth="yes"/>
      <point x="433.0" y="163.5"/>
      <point x="416.5" y="114.75"/>
      <point x="390.25" y="83.125" type="curve" smooth="yes"/>
      <point x="364.0" y="51.5"/>
      <point x="328.0" y="37.0"/>
      <point x="289" y="37" type="curve" smooth="yes"/>
      <point x="195" y="37"/>
      <point x="139" y="132"/>
      <point x="139" y="268" type="curve" smooth="yes"/>
      <point x="139" y="403"/>
      <point x="192" y="493"/>
      <point x="292" y="493" type="curve"/>
      <point x="376" y="493"/>
      <point x="433" y="421"/>
      <point x="433" y="321" type="curve" smooth="yes"/>
    </contour>
  </outline>
</glyph>
<glyph name="r" format="1">
  <advance width="449"/>
  <unicode hex="0072"/>
  <outline>
    <contour>
      <point x="204" y="223" type="line"/>
      <point x="204.0" y="277.316197604"/>
      <point x="213.799208168" y="326.818749091"/>
      <point x="229.263322617" y="366.161574436" type="curve" smooth="yes"/>
      <point x="251.095614807" y="421.705916226"/>
      <point x="284.219137907" y="457.0"/>
      <point x="317" y="457" type="curve" smooth="yes"/>
      <point x="349" y="457"/>
      <point x="356" y="432"/>
      <point x="393" y="432" type="curve"/>
      <point x="423" y="432"/>
      <point x="444" y="451"/>
      <point x="444" y="484" type="curve"/>
      <point x="444" y="516"/>
      <point x="422" y="540"/>
      <point x="377" y="540" type="curve" smooth="yes"/>
      <point x="318" y="540"/>
      <point x="242" y="485"/>
      <point x="206" y="405" type="curve"/>
      <point x="202" y="405" type="line"/>
      <point x="188" y="529" type="line"/>
      <point x="36" y="491" type="line"/>
      <point x="36" y="456" type="line"/>
      <point x="122" y="456"/>
      <point x="124" y="451"/>
      <point x="124" y="269" type="curve" smooth="yes"/>
      <point x="124" y="152" type="line" smooth="yes"/>
      <point x="124" y="51"/>
      <point x="115" y="39"/>
      <point x="38" y="35" type="curve"/>
      <point x="38" y="0" type="line"/>
      <point x="306" y="0" type="line"/>
      <point x="306" y="35" type="line"/>
      <point x="213" y="40"/>
      <point x="204" y="49"/>
      <point x="204" y="159" type="curve" smooth="yes"/>
    </contour>
    <contour>
      <point x="252" y="651" type="move" name="top"/>
    </contour>
    <contour>
      <point x="157" y="0" type="move" name="bottom"/>
    </contour>
  </outline>
</glyph>
<glyph name="s" format="1">
  <advance width="428.0"/>
  <unicode hex="0073"/>
  <outline>
    <contour>
      <point x="87" y="35" type="line"/>
      <point x="121" y="10"/>
      <point x="171" y="-10"/>
      <point x="231" y="-10" type="curve"/>
      <point x="321" y="-10"/>
      <point x="388" y="42"/>
      <point x="388" y="123" type="curve"/>
      <point x="388" y="199"/>
      <point x="347.015047414" y="239.025661861"/>
      <point x="228.5" y="308.5" type="curve"/>
      <point x="145.939745592" y="356.897390515"/>
      <point x="122" y="384"/>
      <point x="122" y="432" type="curve" smooth="yes"/>
      <point x="122" y="471"/>
      <point x="149" y="499"/>
      <point x="198" y="499" type="curve" smooth="yes"/>
      <point x="246" y="499"/>
      <point x="290" y="477"/>
      <point x="320" y="386" type="curve"/>
      <point x="346" y="386" type="line"/>
      <point x="346" y="530" type="line"/>
      <point x="327" y="530" type="line"/>
      <point x="307" y="509" type="line"/>
      <point x="282" y="524"/>
      <point x="244" y="540"/>
      <point x="198" y="540" type="curve"/>
      <point x="107" y="540"/>
      <point x="46" y="485"/>
      <point x="46" y="408" type="curve"/>
      <point x="46" y="339"/>
      <point x="75.8180855508" y="295.689450095"/>
      <point x="185.0" y="232.0" type="curve"/>
      <point x="287.963755049" y="171.937809555"/>
      <point x="309" y="145"/>
      <point x="309" y="105" type="curve"/>
      <point x="309" y="57"/>
      <point x="276" y="31"/>
      <point x="222" y="31" type="curve"/>
      <point x="158" y="31"/>
      <point x="96" y="61"/>
      <point x="70" y="172" type="curve"/>
      <point x="45" y="172" type="line"/>
      <point x="45" y="0" type="line"/>
      <point x="67" y="0" type="line"/>
    </contour>
    <contour>
      <point x="204" y="651" type="move" name="top"/>
    </contour>
    <contour>
      <point x="221" y="1" type="move" name="bottom"/>
    </contour>
  </outline>
</glyph>
<glyph name="t" format="1">
  <advance width="365.0"/>
  <unicode hex="0074"/>
  <outline>
    <contour>
      <point x="105" y="467" type="line"/>
      <point x="105" y="132" type="line"/>
      <point x="105" y="32"/>
      <point x="155" y="-10"/>
      <point x="230" y="-10" type="curve"/>
      <point x="283" y="-10"/>
      <point x="327" y="18"/>
      <point x="356" y="66" type="curve"/>
      <point x="331" y="85" type="line"/>
      <point x="313" y="55"/>
      <point x="285" y="39"/>
      <point x="249" y="39" type="curve"/>
      <point x="204" y="39"/>
      <point x="185" y="60"/>
      <point x="185" y="123" type="curve"/>
      <point x="185" y="467" type="line"/>
      <point x="319" y="467" type="line"/>
      <point x="319" y="514" type="line"/>
      <point x="185" y="514" type="line"/>
      <point x="185" y="640" type="line"/>
      <point x="156" y="640" type="line"/>
      <point x="135" y="561"/>
      <point x="103" y="526"/>
      <point x="30" y="504" type="curve"/>
      <point x="30" y="467" type="line"/>
    </contour>
    <contour>
      <point x="239" y="-25" type="move" name="bottom"/>
    </contour>
  </outline>
</glyph>
<glyph name="u" format="1">
  <advance width="653"/>
  <unicode hex="0075"/>
  <outline>
    <contour>
      <point x="464" y="282" type="line" smooth="yes"/>
      <point x="464.0" y="207.0"/>
      <point x="444.75" y="149.0"/>
      <point x="414.375" y="109.75" type="curve" smooth="yes"/>
      <point x="384.0" y="70.5"/>
      <point x="342.5" y="50.0"/>
      <point x="298" y="50" type="curve"/>
      <point x="238" y="50"/>
      <point x="184" y="80"/>
      <point x="184" y="227" type="curve"/>
      <point x="184" y="530" type="line"/>
      <point x="21" y="530" type="line"/>
      <point x="21" y="495" type="line"/>
      <point x="98" y="488"/>
      <point x="104" y="479"/>
      <point x="104" y="370" type="curve" smooth="yes"/>
      <point x="104" y="201" type="line"/>
      <point x="104.0" y="120.0"/>
      <point x="123.25" y="67.25"/>
      <point x="154.5" y="34.75" type="curve" smooth="yes"/>
      <point x="185.75" y="2.25"/>
      <point x="229.0" y="-10.0"/>
      <point x="277" y="-10" type="curve" smooth="yes"/>
      <point x="349" y="-10"/>
      <point x="418" y="27"/>
      <point x="469" y="109" type="curve"/>
      <point x="473" y="109" type="line"/>
      <point x="484" y="-11" type="line"/>
      <point x="631" y="1" type="line"/>
      <point x="631" y="36" type="line"/>
      <point x="570" y="36"/>
      <point x="556" y="42"/>
      <point x="550" y="76" type="curve" smooth="yes"/>
      <point x="546" y="100"/>
      <point x="544" y="147"/>
      <point x="544" y="223" type="curve" smooth="yes"/>
      <point x="544" y="530" type="line"/>
      <point x="381" y="530" type="line"/>
      <point x="381" y="495" type="line"/>
      <point x="458" y="487"/>
      <point x="464" y="479"/>
      <point x="464" y="370" type="curve" smooth="yes"/>
    </contour>
    <contour>
      <point x="313" y="651" type="move" name="top"/>
    </contour>
    <contour>
      <point x="291" y="0" type="move" name="bottom"/>
    </contour>
  </outline>
</glyph>
<glyph name="v" format="1">
  <advance width="590"/>
  <unicode hex="0076"/>
  <outline>
    <contour>
      <point x="275" y="-11" type="line"/>
      <point x="318" y="-11" type="line"/>
      <point x="479" y="379" type="line" smooth="yes"/>
      <point x="490.31069243" y="406.681431472"/>
      <point x="499.052118146" y="427.275230632"/>
      <point x="506.964723834" y="442.811918613" type="curve" smooth="yes"/>
      <point x="525.635726358" y="479.473108609"/>
      <point x="539.691890836" y="487.976498008"/>
      <point x="572" y="495" type="curve"/>
      <point x="572" y="530" type="line"/>
      <point x="373" y="530" type="line"/>
      <point x="373" y="495" type="line"/>
      <point x="420" y="495"/>
      <point x="439" y="484"/>
      <point x="439" y="454" type="curve" smooth="yes"/>
      <point x="439" y="428"/>
      <point x="424" y="386"/>
      <point x="399" y="323" type="curve" smooth="yes"/>
      <point x="314" y="108" type="line"/>
      <point x="310" y="108" type="line"/>
      <point x="197" y="398" type="line" smooth="yes"/>
      <point x="187" y="425"/>
      <point x="179" y="447"/>
      <point x="179" y="462" type="curve" smooth="yes"/>
      <point x="179" y="485"/>
      <point x="196" y="493"/>
      <point x="250" y="495" type="curve"/>
      <point x="250" y="530" type="line"/>
      <point x="5" y="530" type="line"/>
      <point x="5" y="495" type="line"/>
      <point x="57" y="493"/>
      <point x="71" y="486"/>
      <point x="104" y="406" type="curve" smooth="yes"/>
    </contour>
  </outline>
</glyph>
<glyph name="w" format="1">
  <advance width="830"/>
  <unicode hex="0077"/>
  <outline>
    <contour>
      <point x="281" y="-10" type="line"/>
      <point x="251" y="-10" type="line"/>
      <point x="111" y="406" type="line" smooth="yes"/>
      <point x="87" y="477"/>
      <point x="70" y="495"/>
      <point x="12" y="495" type="curve"/>
      <point x="12" y="530" type="line"/>
      <point x="259" y="530" type="line"/>
      <point x="259" y="495" type="line"/>
      <point x="207" y="495"/>
      <point x="185" y="489"/>
      <point x="185" y="458" type="curve" smooth="yes"/>
      <point x="185" y="444"/>
      <point x="190" y="424"/>
      <point x="199" y="398" type="curve" smooth="yes"/>
      <point x="282" y="149" type="line"/>
      <point x="286" y="149" type="line"/>
      <point x="421" y="530" type="line"/>
      <point x="451" y="530" type="line"/>
      <point x="593" y="152" type="line"/>
      <point x="597" y="152" type="line"/>
      <point x="655" y="321" type="line" smooth="yes"/>
      <point x="678" y="390"/>
      <point x="692" y="432"/>
      <point x="692" y="457" type="curve" smooth="yes"/>
      <point x="692" y="489"/>
      <point x="670" y="495"/>
      <point x="616" y="495" type="curve"/>
      <point x="616" y="530" type="line"/>
      <point x="816" y="530" type="line"/>
      <point x="816" y="495" type="line"/>
      <point x="777" y="495"/>
      <point x="754" y="478"/>
      <point x="719" y="373" type="curve" smooth="yes"/>
      <point x="590" y="-10" type="line"/>
      <point x="560" y="-10" type="line"/>
      <point x="419" y="369" type="line"/>
      <point x="415" y="369" type="line"/>
    </contour>
    <contour>
      <point x="449" y="651" type="move" name="top"/>
    </contour>
  </outline>
</glyph>
<glyph name="x" format="1">
  <advance width="609"/>
  <unicode hex="0078"/>
  <outline>
    <contour>
      <point x="318" y="316" type="line"/>
      <point x="241" y="429" type="line" smooth="yes"/>
      <point x="231" y="444"/>
      <point x="224" y="456"/>
      <point x="224" y="468" type="curve"/>
      <point x="224" y="485"/>
      <point x="241" y="495"/>
      <point x="284" y="495" type="curve"/>
      <point x="284" y="530" type="line"/>
      <point x="38" y="530" type="line"/>
      <point x="38" y="495" type="line"/>
      <point x="76" y="495"/>
      <point x="109" y="483"/>
      <point x="139" y="440" type="curve" smooth="yes"/>
      <point x="267" y="258" type="line"/>
      <point x="159" y="126" type="line" smooth="yes"/>
      <point x="92" y="43"/>
      <point x="72" y="35"/>
      <point x="10" y="35" type="curve"/>
      <point x="10" y="0" type="line"/>
      <point x="239" y="0" type="line"/>
      <point x="239" y="35" type="line"/>
      <point x="205" y="35"/>
      <point x="188" y="47"/>
      <point x="188" y="65" type="curve" smooth="yes"/>
      <point x="188" y="77"/>
      <point x="193" y="90"/>
      <point x="204" y="104" type="curve" smooth="yes"/>
      <point x="295" y="220" type="line"/>
      <point x="370" y="122" type="line" smooth="yes"/>
      <point x="392" y="93"/>
      <point x="402" y="75"/>
      <point x="402" y="61" type="curve" smooth="yes"/>
      <point x="402" y="39"/>
      <point x="375" y="35"/>
      <point x="332" y="35" type="curve"/>
      <point x="332" y="0" type="line"/>
      <point x="598" y="0" type="line"/>
      <point x="598" y="35" type="line"/>
      <point x="558" y="35"/>
      <point x="523" y="42"/>
      <point x="473" y="109" type="curve" smooth="yes"/>
      <point x="346" y="277" type="line"/>
      <point x="454" y="415" type="line" smooth="yes"/>
      <point x="502" y="477"/>
      <point x="528" y="495"/>
      <point x="576" y="495" type="curve"/>
      <point x="576" y="530" type="line"/>
      <point x="357" y="530" type="line"/>
      <point x="357" y="495" type="line"/>
      <point x="395" y="495"/>
      <point x="416" y="484"/>
      <point x="416" y="463" type="curve" smooth="yes"/>
      <point x="416" y="448"/>
      <point x="408" y="432"/>
      <point x="392" y="412" type="curve" smooth="yes"/>
    </contour>
  </outline>
</glyph>
<glyph name="y" format="1">
  <advance width="606"/>
  <unicode hex="0079"/>
  <outline>
    <contour>
      <point x="466" y="328" type="line" smooth="yes"/>
      <point x="528" y="477"/>
      <point x="545" y="495"/>
      <point x="595" y="495" type="curve"/>
      <point x="595" y="530" type="line"/>
      <point x="375" y="530" type="line"/>
      <point x="375" y="495" type="line"/>
      <point x="425" y="495"/>
      <point x="448" y="491"/>
      <point x="448" y="463" type="curve" smooth="yes"/>
      <point x="448" y="439"/>
      <point x="437" y="398"/>
      <point x="407" y="323" type="curve" smooth="yes"/>
      <point x="322" y="108" type="line"/>
      <point x="313" y="108" type="line"/>
      <point x="212" y="364" type="line" smooth="yes"/>
      <point x="194" y="409"/>
      <point x="183" y="439"/>
      <point x="183" y="459" type="curve" smooth="yes"/>
      <point x="183" y="487"/>
      <point x="204" y="495"/>
      <point x="251" y="495" type="curve"/>
      <point x="251" y="530" type="line"/>
      <point x="4" y="530" type="line"/>
      <point x="4" y="495" type="line"/>
      <point x="57" y="491"/>
      <point x="71" y="481"/>
      <point x="103" y="406" type="curve" smooth="yes"/>
      <point x="276" y="-4" type="line"/>
      <point x="239" y="-83" type="line" smooth="yes"/>
      <point x="216" y="-133"/>
      <point x="189" y="-148"/>
      <point x="134" y="-157" type="curve" smooth="yes"/>
      <point x="71" y="-167"/>
      <point x="52" y="-182"/>
      <point x="52" y="-213" type="curve" smooth="yes"/>
      <point x="52" y="-242"/>
      <point x="75" y="-260"/>
      <point x="115" y="-260" type="curve" smooth="yes"/>
      <point x="178" y="-260"/>
      <point x="237" y="-224"/>
      <point x="269" y="-147" type="curve" smooth="yes"/>
    </contour>
    <contour>
      <point x="326" y="651" type="move" name="top"/>
    </contour>
  </outline>
</glyph>
<glyph name="z" format="1">
  <advance width="539"/>
  <unicode hex="007A"/>
  <outline>
    <contour>
      <point x="497" y="159" type="line"/>
      <point x="464" y="159" type="line"/>
      <point x="440" y="67"/>
      <point x="406" y="50"/>
      <point x="269" y="50" type="curve" smooth="yes"/>
      <point x="125" y="50" type="line"/>
      <point x="481" y="496" type="line"/>
      <point x="481" y="530" type="line"/>
      <point x="69" y="530" type="line"/>
      <point x="53" y="388" type="line"/>
      <point x="85" y="388" type="line"/>
      <point x="99" y="470"/>
      <point x="127" y="484"/>
      <point x="241" y="484" type="curve" smooth="yes"/>
      <point x="377" y="484" type="line"/>
      <point x="18" y="34" type="line"/>
      <point x="18" y="0" type="line"/>
      <point x="480" y="0" type="line"/>
    </contour>
    <contour>
      <point x="275" y="651" type="move" name="top"/>
    </contour>
    <contour>
      <point x="263" y="0" type="move" name="bottom"/>
    </contour>
  </outline>
</glyph>
<glyph name="braceleft" format="1">
  <advance width="325"/>
  <unicode hex="007B"/>
  <outline>
    <contour>
      <point x="198" y="198" type="line" smooth="yes"/>
      <point x="198" y="278"/>
      <point x="181" y="326"/>
      <point x="110" y="340" type="curve"/>
      <point x="110" y="345" type="line"/>
      <point x="185" y="363"/>
      <point x="198" y="419"/>
      <point x="198" y="501" type="curve" smooth="yes"/>
      <point x="198" y="680" type="line" smooth="yes"/>
      <point x="198" y="751"/>
      <point x="218" y="791"/>
      <point x="280" y="807" type="curve"/>
      <point x="280" y="830" type="line"/>
      <point x="138" y="830"/>
      <point x="118" y="786"/>
      <point x="118" y="659" type="curve" smooth="yes"/>
      <point x="118" y="484" type="line" smooth="yes"/>
      <point x="118" y="408"/>
      <point x="104" y="370"/>
      <point x="29" y="355" type="curve"/>
      <point x="29" y="330" type="line"/>
      <point x="97" y="324"/>
      <point x="118" y="260"/>
      <point x="118" y="200" type="curve" smooth="yes"/>
      <point x="118" y="4" type="line" smooth="yes"/>
      <point x="118" y="-117"/>
      <point x="150" y="-150"/>
      <point x="284" y="-150" type="curve"/>
      <point x="284" y="-128" type="line"/>
      <point x="216" y="-109"/>
      <point x="198" y="-72"/>
      <point x="198" y="0" type="curve" smooth="yes"/>
    </contour>
  </outline>
</glyph>
<glyph name="exclamdown" format="1">
  <advance width="308"/>
  <unicode hex="00A1"/>
  <outline>
    <contour>
      <point x="89" y="715" type="curve" smooth="yes"/>
      <point x="89" y="678"/>
      <point x="118" y="649"/>
      <point x="154" y="649" type="curve" smooth="yes"/>
      <point x="191" y="649"/>
      <point x="220" y="678"/>
      <point x="220" y="715" type="curve" smooth="yes"/>
      <point x="220" y="751"/>
      <point x="191" y="780"/>
      <point x="154" y="780" type="curve" smooth="yes"/>
      <point x="118" y="780"/>
      <point x="89" y="751"/>
    </contour>
    <contour>
      <point x="178" y="563" type="curve"/>
      <point x="130" y="563" type="line"/>
      <point x="130.0" y="416.181540728"/>
      <point x="111.904914737" y="292.754289234"/>
      <point x="99.7572106255" y="191.838643088" type="curve" smooth="yes"/>
      <point x="93.6194578402" y="140.849972102"/>
      <point x="89.0" y="95.6082434654"/>
      <point x="89" y="56" type="curve" smooth="yes"/>
      <point x="89" y="20"/>
      <point x="114" y="-10"/>
      <point x="154" y="-10" type="curve" smooth="yes"/>
      <point x="194" y="-10"/>
      <point x="219" y="20"/>
      <point x="219" y="56" type="curve" smooth="yes"/>
      <point x="219.0" y="94.3801643848"/>
      <point x="213.82214354" y="139.579944595"/>
      <point x="207.146559919" y="192.541812767" type="curve" smooth="yes"/>
      <point x="195.037361279" y="288.6121818"/>
      <point x="178.0" y="410.223138511"/>
    </contour>
  </outline>
</glyph>
<glyph name="cent" format="1">
  <advance width="559"/>
  <unicode hex="00A2"/>
  <outline>
    <contour>
      <point x="292" y="683" type="line"/>
      <point x="292" y="539" type="line"/>
      <point x="148" y="529"/>
      <point x="53" y="423"/>
      <point x="53" y="261" type="curve" smooth="yes"/>
      <point x="53" y="103"/>
      <point x="149" y="-4"/>
      <point x="292" y="-10" type="curve"/>
      <point x="292" y="-147" type="line"/>
      <point x="342" y="-147" type="line"/>
      <point x="342" y="-7" type="line"/>
      <point x="412" y="2"/>
      <point x="474" y="35"/>
      <point x="514" y="83" type="curve"/>
      <point x="484" y="112" type="line"/>
      <point x="437" y="66"/>
      <point x="392" y="45"/>
      <point x="342" y="42" type="curve"/>
      <point x="342" y="491" type="line"/>
      <point x="365" y="486"/>
      <point x="381" y="474"/>
      <point x="401" y="451" type="curve"/>
      <point x="426" y="417"/>
      <point x="438" y="410"/>
      <point x="462" y="410" type="curve" smooth="yes"/>
      <point x="492" y="410"/>
      <point x="511" y="426"/>
      <point x="511" y="452" type="curve" smooth="yes"/>
      <point x="511" y="503"/>
      <point x="441" y="538"/>
      <point x="342" y="540" type="curve"/>
      <point x="342" y="683" type="line"/>
    </contour>
    <contour>
      <point x="144" y="276" type="curve" smooth="yes"/>
      <point x="144" y="417"/>
      <point x="199" y="492"/>
      <point x="292" y="493" type="curve"/>
      <point x="292" y="44" type="line"/>
      <point x="199" y="57"/>
      <point x="144" y="138"/>
    </contour>
  </outline>
</glyph>
<glyph name="sterling" format="1">
  <advance width="679"/>
  <unicode hex="00A3"/>
  <outline>
    <contour>
      <point x="234" y="83" type="curve"/>
      <point x="213" y="58"/>
      <point x="185" y="41"/>
      <point x="152" y="41" type="curve" smooth="yes"/>
      <point x="121" y="41"/>
      <point x="99" y="55"/>
      <point x="99" y="78" type="curve"/>
      <point x="99" y="99"/>
      <point x="115" y="114"/>
      <point x="143" y="114" type="curve"/>
      <point x="171" y="114"/>
      <point x="201" y="99"/>
    </contour>
    <contour>
      <point x="291" y="468" type="line" smooth="yes"/>
      <point x="272" y="528"/>
      <point x="265" y="569"/>
      <point x="265" y="606" type="curve" smooth="yes"/>
      <point x="265" y="696"/>
      <point x="312" y="732"/>
      <point x="376" y="732" type="curve"/>
      <point x="507" y="732"/>
      <point x="471" y="619"/>
      <point x="544" y="619" type="curve" smooth="yes"/>
      <point x="572" y="619"/>
      <point x="588" y="635"/>
      <point x="588" y="665" type="curve" smooth="yes"/>
      <point x="588" y="731"/>
      <point x="506" y="780"/>
      <point x="396" y="780" type="curve" smooth="yes"/>
      <point x="253" y="780"/>
      <point x="171" y="681"/>
      <point x="171" y="580" type="curve"/>
      <point x="171" y="526"/>
      <point x="186" y="479"/>
      <point x="204" y="431" type="curve"/>
      <point x="74" y="431" type="line"/>
      <point x="74" y="370" type="line"/>
      <point x="228" y="370" type="line"/>
      <point x="252.0" y="310.0"/>
      <point x="265" y="263"/>
      <point x="265" y="214" type="curve"/>
      <point x="265" y="177"/>
      <point x="257" y="147"/>
      <point x="250" y="132" type="curve"/>
      <point x="216" y="150"/>
      <point x="175" y="165"/>
      <point x="139" y="165" type="curve"/>
      <point x="82" y="165"/>
      <point x="39" y="132"/>
      <point x="39" y="78" type="curve" smooth="yes"/>
      <point x="39" y="25"/>
      <point x="72" y="-11"/>
      <point x="141" y="-11" type="curve"/>
      <point x="204" y="-11"/>
      <point x="253" y="19"/>
      <point x="279" y="59" type="curve"/>
      <point x="376" y="16"/>
      <point x="432" y="-10"/>
      <point x="497" y="-10" type="curve"/>
      <point x="575" y="-10"/>
      <point x="633" y="39"/>
      <point x="633" y="154" type="curve"/>
      <point x="623" y="158" type="line"/>
      <point x="591" y="109"/>
      <point x="562" y="66"/>
      <point x="475" y="66" type="curve" smooth="yes"/>
      <point x="426" y="66"/>
      <point x="353" y="93"/>
      <point x="306" y="111" type="curve"/>
      <point x="328" y="153"/>
      <point x="339" y="199"/>
      <point x="339" y="247" type="curve" smooth="yes"/>
      <point x="339" y="283"/>
      <point x="334" y="323"/>
      <point x="321" y="370" type="curve"/>
      <point x="530" y="370" type="line"/>
      <point x="530" y="431" type="line"/>
      <point x="303" y="431" type="line"/>
    </contour>
  </outline>
</glyph>
<glyph name="yen" format="1">
  <advance width="792"/>
  <unicode hex="00A5"/>
  <outline>
    <contour>
      <point x="621" y="235" type="line"/>
      <point x="444" y="235" type="line"/>
      <point x="444" y="304" type="line"/>
      <point x="621" y="304" type="line"/>
      <point x="621" y="364" type="line"/>
      <point x="477" y="364" type="line"/>
      <point x="598" y="568" type="line" smooth="yes"/>
      <point x="680" y="706"/>
      <point x="706" y="732"/>
      <point x="762" y="732" type="curve"/>
      <point x="762" y="770" type="line"/>
      <point x="523" y="770" type="line"/>
      <point x="523" y="732" type="line"/>
      <point x="581" y="732"/>
      <point x="598" y="723"/>
      <point x="598" y="698" type="curve" smooth="yes"/>
      <point x="598" y="673"/>
      <point x="582" y="635"/>
      <point x="539" y="563" type="curve" smooth="yes"/>
      <point x="422" y="368" type="line"/>
      <point x="418" y="368" type="line"/>
      <point x="267" y="638" type="line" smooth="yes"/>
      <point x="252" y="665"/>
      <point x="244" y="685"/>
      <point x="244" y="698" type="curve" smooth="yes"/>
      <point x="244" y="723"/>
      <point x="269" y="732"/>
      <point x="335" y="732" type="curve"/>
      <point x="335" y="770" type="line"/>
      <point x="30" y="770" type="line"/>
      <point x="30" y="732" type="line"/>
      <point x="85" y="732"/>
      <point x="101" y="715"/>
      <point x="143" y="646" type="curve" smooth="yes"/>
      <point x="313" y="364" type="line"/>
      <point x="167" y="364" type="line"/>
      <point x="167" y="304" type="line"/>
      <point x="349" y="304" type="line"/>
      <point x="349" y="235" type="line"/>
      <point x="167" y="235" type="line"/>
      <point x="167" y="175" type="line"/>
      <point x="349" y="175" type="line"/>
      <point x="348" y="59"/>
      <point x="332" y="38"/>
      <point x="239" y="38" type="curve"/>
      <point x="239" y="0" type="line"/>
      <point x="553" y="0" type="line"/>
      <point x="553" y="38" type="line"/>
      <point x="461" y="38"/>
      <point x="445" y="57"/>
      <point x="444" y="175" type="curve"/>
      <point x="621" y="175" type="line"/>
    </contour>
  </outline>
</glyph>
<glyph name="section" format="1">
  <advance width="566"/>
  <unicode hex="00A7"/>
  <outline>
    <contour>
      <point x="213" y="292" type="line" smooth="yes"/>
      <point x="165" y="320"/>
      <point x="137" y="354"/>
      <point x="137" y="401" type="curve" smooth="yes"/>
      <point x="137" y="434"/>
      <point x="158" y="464"/>
      <point x="206" y="481" type="curve"/>
      <point x="339" y="402" type="line" smooth="yes"/>
      <point x="413" y="358"/>
      <point x="433" y="326"/>
      <point x="433" y="281" type="curve" smooth="yes"/>
      <point x="433" y="246"/>
      <point x="416" y="222"/>
      <point x="375" y="196" type="curve"/>
    </contour>
    <contour>
      <point x="301" y="123" type="line" smooth="yes"/>
      <point x="385" y="76"/>
      <point x="415" y="31"/>
      <point x="415" y="-18" type="curve" smooth="yes"/>
      <point x="415" y="-88"/>
      <point x="369" y="-129"/>
      <point x="278" y="-129" type="curve" smooth="yes"/>
      <point x="208" y="-129"/>
      <point x="143" y="-103"/>
      <point x="143" y="-74" type="curve" smooth="yes"/>
      <point x="143" y="-51"/>
      <point x="187" y="-31"/>
      <point x="187" y="11" type="curve" smooth="yes"/>
      <point x="187" y="45"/>
      <point x="158" y="73"/>
      <point x="123" y="73" type="curve" smooth="yes"/>
      <point x="85" y="73"/>
      <point x="60" y="40"/>
      <point x="60" y="-10" type="curve" smooth="yes"/>
      <point x="60" y="-105"/>
      <point x="149" y="-174"/>
      <point x="273" y="-174" type="curve" smooth="yes"/>
      <point x="408" y="-174"/>
      <point x="494" y="-97"/>
      <point x="494" y="14" type="curve" smooth="yes"/>
      <point x="494" y="73"/>
      <point x="467" y="126"/>
      <point x="417" y="167" type="curve"/>
      <point x="478" y="212"/>
      <point x="504" y="255"/>
      <point x="504" y="314" type="curve" smooth="yes"/>
      <point x="504" y="396"/>
      <point x="453" y="453"/>
      <point x="330" y="525" type="curve" smooth="yes"/>
      <point x="270" y="560" type="line" smooth="yes"/>
      <point x="193" y="605"/>
      <point x="160" y="645"/>
      <point x="160" y="694" type="curve" smooth="yes"/>
      <point x="160" y="755"/>
      <point x="207" y="790"/>
      <point x="279" y="790" type="curve" smooth="yes"/>
      <point x="334" y="790"/>
      <point x="376" y="770"/>
      <point x="376" y="744" type="curve" smooth="yes"/>
      <point x="376" y="723"/>
      <point x="348" y="717"/>
      <point x="348" y="681" type="curve" smooth="yes"/>
      <point x="348" y="648"/>
      <point x="372" y="625"/>
      <point x="407" y="625" type="curve" smooth="yes"/>
      <point x="445" y="625"/>
      <point x="469" y="653"/>
      <point x="469" y="695" type="curve" smooth="yes"/>
      <point x="469" y="773"/>
      <point x="389" y="830"/>
      <point x="280" y="830" type="curve" smooth="yes"/>
      <point x="165" y="830"/>
      <point x="86" y="765"/>
      <point x="86" y="662" type="curve" smooth="yes"/>
      <point x="86" y="602"/>
      <point x="116" y="547"/>
      <point x="162" y="509" type="curve"/>
      <point x="108" y="482"/>
      <point x="63" y="436"/>
      <point x="63" y="366" type="curve" smooth="yes"/>
      <point x="63" y="289"/>
      <point x="111" y="229"/>
      <point x="242" y="156" type="curve" smooth="yes"/>
    </contour>
  </outline>
</glyph>
<glyph name="cedilla" format="1">
  <advance width="232"/>
  <unicode hex="00B8"/>
  <outline>
    <contour>
      <point x="146" y="12" type="line"/>
      <point x="101" y="12" type="line"/>
      <point x="48" y="-110" type="line"/>
      <point x="51" y="-115" type="line"/>
      <point x="61" y="-114"/>
      <point x="76" y="-113"/>
      <point x="86" y="-113" type="curve" smooth="yes"/>
      <point x="147" y="-113"/>
      <point x="180" y="-136"/>
      <point x="180" y="-171" type="curve" smooth="yes"/>
      <point x="180" y="-201"/>
      <point x="159" y="-220"/>
      <point x="125" y="-220" type="curve"/>
      <point x="93" y="-220"/>
      <point x="82" y="-208"/>
      <point x="70" y="-180" type="curve" smooth="yes"/>
      <point x="58" y="-155"/>
      <point x="51" y="-148"/>
      <point x="37" y="-148" type="curve" smooth="yes"/>
      <point x="18" y="-148"/>
      <point x="6" y="-161"/>
      <point x="6" y="-184" type="curve" smooth="yes"/>
      <point x="6" y="-229"/>
      <point x="53" y="-260"/>
      <point x="121" y="-260" type="curve" smooth="yes"/>
      <point x="198" y="-260"/>
      <point x="247" y="-221"/>
      <point x="247" y="-164" type="curve"/>
      <point x="247" y="-105"/>
      <point x="198" y="-72"/>
      <point x="115" y="-72" type="curve"/>
    </contour>
    <contour>
      <point x="122" y="0" type="move" name="_bottom"/>
    </contour>
  </outline>
</glyph>
<glyph name="questiondown" format="1">
  <advance width="402"/>
  <unicode hex="00BF"/>
  <outline>
    <contour>
      <point x="230" y="533" type="line"/>
      <point x="230" y="400" type="line"/>
      <point x="128" y="400"/>
      <point x="69" y="341"/>
      <point x="69" y="240" type="curve" smooth="yes"/>
      <point x="69" y="109"/>
      <point x="169" y="-10"/>
      <point x="279" y="-10" type="curve" smooth="yes"/>
      <point x="319" y="-10"/>
      <point x="344" y="9"/>
      <point x="344" y="46" type="curve" smooth="yes"/>
      <point x="344" y="78"/>
      <point x="319" y="96"/>
      <point x="288" y="96" type="curve" smooth="yes"/>
      <point x="266" y="96"/>
      <point x="237" y="85"/>
      <point x="213" y="85" type="curve" smooth="yes"/>
      <point x="165" y="85"/>
      <point x="126" y="141"/>
      <point x="126" y="205" type="curve" smooth="yes"/>
      <point x="126" y="280"/>
      <point x="170" y="317"/>
      <point x="256" y="317" type="curve" smooth="yes"/>
      <point x="285" y="317" type="line"/>
      <point x="285" y="533" type="line"/>
    </contour>
    <contour>
      <point x="326" y="715" type="curve" smooth="yes"/>
      <point x="326" y="751"/>
      <point x="297" y="780"/>
      <point x="261" y="780" type="curve" smooth="yes"/>
      <point x="224" y="780"/>
      <point x="195" y="751"/>
      <point x="195" y="715" type="curve" smooth="yes"/>
      <point x="195" y="678"/>
      <point x="224" y="649"/>
      <point x="261" y="649" type="curve" smooth="yes"/>
      <point x="297" y="649"/>
      <point x="326" y="678"/>
    </contour>
  </outline>
</glyph>
<glyph name="AE" format="1">
  <advance width="1041"/>
  <unicode hex="00C6"/>
  <outline>
    <contour>
      <point x="370" y="38" type="curve"/>
      <point x="370" y="0" type="line"/>
      <point x="981" y="0" type="line"/>
      <point x="996" y="197" type="line"/>
      <point x="958" y="197" type="line"/>
      <point x="932" y="79"/>
      <point x="882" y="43"/>
      <point x="741" y="43" type="curve" smooth="yes"/>
      <point x="615" y="43"/>
      <point x="575" y="70"/>
      <point x="575" y="157" type="curve" smooth="yes"/>
      <point x="575" y="383" type="line"/>
      <point x="711" y="382"/>
      <point x="750" y="359"/>
      <point x="764" y="265" type="curve"/>
      <point x="799" y="265" type="line"/>
      <point x="799" y="538" type="line"/>
      <point x="764" y="538" type="line"/>
      <point x="755" y="445"/>
      <point x="704" y="423"/>
      <point x="575" y="423" type="curve"/>
      <point x="575" y="710" type="line" smooth="yes"/>
      <point x="575" y="720"/>
      <point x="581" y="727"/>
      <point x="592" y="727" type="curve" smooth="yes"/>
      <point x="719" y="727" type="line" smooth="yes"/>
      <point x="855" y="727"/>
      <point x="901" y="700"/>
      <point x="917" y="594" type="curve"/>
      <point x="952" y="594" type="line"/>
      <point x="952" y="770" type="line"/>
      <point x="326" y="770" type="line"/>
      <point x="326" y="732" type="line"/>
      <point x="387" y="732"/>
      <point x="409" y="725"/>
      <point x="409" y="707" type="curve" smooth="yes"/>
      <point x="409" y="700"/>
      <point x="407" y="693"/>
      <point x="402" y="684" type="curve" smooth="yes"/>
      <point x="102" y="119" type="line" smooth="yes"/>
      <point x="72" y="62"/>
      <point x="50" y="45"/>
      <point x="-11" y="38" type="curve"/>
      <point x="-11" y="0" type="line"/>
      <point x="231" y="0" type="line"/>
      <point x="231" y="38" type="line"/>
      <point x="199" y="41"/>
      <point x="158" y="48"/>
      <point x="158" y="78" type="curve" smooth="yes"/>
      <point x="158" y="98"/>
      <point x="166" y="125"/>
      <point x="186" y="164" type="curve" smooth="yes"/>
      <point x="249" y="284" type="line"/>
      <point x="480" y="284" type="line"/>
      <point x="480" y="152" type="line" smooth="yes"/>
      <point x="480" y="58"/>
      <point x="464" y="41"/>
    </contour>
    <contour>
      <point x="273" y="329" type="line"/>
      <point x="480" y="721" type="line"/>
      <point x="480" y="329" type="line"/>
    </contour>
  </outline>
</glyph>
<glyph name="Eth" format="1">
  <advance width="844"/>
  <unicode hex="00D0"/>
  <outline>
    <contour>
      <point x="36" y="0" type="line"/>
      <point x="414" y="0" type="line"/>
      <point x="627" y="0"/>
      <point x="785" y="143"/>
      <point x="785" y="372" type="curve" smooth="yes"/>
      <point x="785" y="612"/>
      <point x="615" y="770"/>
      <point x="394" y="770" type="curve"/>
      <point x="56" y="770" type="line"/>
      <point x="56" y="732" type="line"/>
      <point x="142" y="728"/>
      <point x="156" y="711"/>
      <point x="156" y="618" type="curve" smooth="yes"/>
      <point x="156" y="436" type="line"/>
      <point x="76" y="436" type="line"/>
      <point x="76" y="383" type="line"/>
      <point x="156" y="383" type="line"/>
      <point x="156" y="152" type="line" smooth="yes"/>
      <point x="156" y="57"/>
      <point x="138" y="41"/>
      <point x="36" y="38" type="curve"/>
    </contour>
    <contour>
      <point x="385" y="49" type="curve"/>
      <point x="294" y="49"/>
      <point x="251" y="86"/>
      <point x="251" y="163" type="curve" smooth="yes"/>
      <point x="251" y="383" type="line"/>
      <point x="425" y="383" type="line"/>
      <point x="425" y="436" type="line"/>
      <point x="251" y="436" type="line"/>
      <point x="251" y="704" type="line" smooth="yes"/>
      <point x="251" y="714"/>
      <point x="257" y="721"/>
      <point x="268" y="721" type="curve" smooth="yes"/>
      <point x="380" y="721" type="line"/>
      <point x="568" y="721"/>
      <point x="680" y="601"/>
      <point x="680" y="370" type="curve" smooth="yes"/>
      <point x="680" y="150"/>
      <point x="576" y="49"/>
    </contour>
  </outline>
</glyph>
<glyph name="Oslash" format="1">
  <advance width="902"/>
  <unicode hex="00D8"/>
  <outline>
    <contour>
      <point x="451" y="-10" type="curve" smooth="yes"/>
      <point x="683" y="-10"/>
      <point x="842" y="162"/>
      <point x="842" y="379" type="curve" smooth="yes"/>
      <point x="842" y="498"/>
      <point x="798" y="603"/>
      <point x="723" y="676" type="curve"/>
      <point x="845" y="830" type="line"/>
      <point x="776" y="830" type="line"/>
      <point x="681" y="710" type="line"/>
      <point x="619" y="754"/>
      <point x="541" y="780"/>
      <point x="451" y="780" type="curve" smooth="yes"/>
      <point x="217" y="780"/>
      <point x="60" y="605"/>
      <point x="60" y="379" type="curve" smooth="yes"/>
      <point x="60" y="261"/>
      <point x="107" y="156"/>
      <point x="188" y="85" type="curve"/>
      <point x="57" y="-81" type="line"/>
      <point x="125" y="-81" type="line"/>
      <point x="230" y="52" type="line"/>
      <point x="292" y="13"/>
      <point x="366" y="-10"/>
    </contour>
    <contour>
      <point x="166" y="376" type="curve" smooth="yes"/>
      <point x="166" y="590"/>
      <point x="275" y="725"/>
      <point x="451" y="725" type="curve" smooth="yes"/>
      <point x="527" y="725"/>
      <point x="590" y="700"/>
      <point x="638" y="655" type="curve"/>
      <point x="235" y="144" type="line"/>
      <point x="190" y="201"/>
      <point x="166" y="280"/>
    </contour>
    <contour>
      <point x="451" y="45" type="curve" smooth="yes"/>
      <point x="379" y="45"/>
      <point x="319" y="66"/>
      <point x="272" y="105" type="curve"/>
      <point x="673" y="613" type="line"/>
      <point x="714" y="553"/>
      <point x="736" y="473"/>
      <point x="736" y="376" type="curve" smooth="yes"/>
      <point x="736" y="173"/>
      <point x="626" y="45"/>
    </contour>
  </outline>
</glyph>
<glyph name="Thorn" format="1">
  <advance width="679"/>
  <unicode hex="00DE"/>
  <outline>
    <contour>
      <point x="252" y="613" type="line" smooth="yes"/>
      <point x="252" y="712"/>
      <point x="269" y="732"/>
      <point x="390" y="732" type="curve"/>
      <point x="390" y="770" type="line"/>
      <point x="47" y="770" type="line"/>
      <point x="47" y="732" type="line"/>
      <point x="141" y="729"/>
      <point x="157" y="712"/>
      <point x="157" y="618" type="curve" smooth="yes"/>
      <point x="157" y="152" type="line" smooth="yes"/>
      <point x="157" y="58"/>
      <point x="141" y="41"/>
      <point x="47" y="38" type="curve"/>
      <point x="47" y="0" type="line"/>
      <point x="390" y="0" type="line"/>
      <point x="390" y="38" type="line"/>
      <point x="269" y="38"/>
      <point x="252" y="58"/>
      <point x="252" y="157" type="curve" smooth="yes"/>
      <point x="252" y="176" type="line"/>
      <point x="342" y="176" type="line" smooth="yes"/>
      <point x="555" y="176"/>
      <point x="640" y="251"/>
      <point x="640" y="391" type="curve" smooth="yes"/>
      <point x="640" y="522"/>
      <point x="534" y="596"/>
      <point x="361" y="596" type="curve" smooth="yes"/>
      <point x="252" y="596" type="line"/>
    </contour>
    <contour>
      <point x="252" y="532" type="line" smooth="yes"/>
      <point x="252" y="542"/>
      <point x="258" y="549"/>
      <point x="269" y="549" type="curve" smooth="yes"/>
      <point x="361" y="549" type="line" smooth="yes"/>
      <point x="470" y="549"/>
      <point x="535" y="503"/>
      <point x="535" y="391" type="curve" smooth="yes"/>
      <point x="535" y="274"/>
      <point x="455" y="226"/>
      <point x="323" y="226" type="curve" smooth="yes"/>
      <point x="252" y="226" type="line"/>
    </contour>
  </outline>
</glyph>
<glyph name="germandbls" format="1">
  <advance width="644"/>
  <unicode hex="00DF"/>
  <outline>
    <contour>
      <point x="333" y="830" type="curve"/>
      <point x="190" y="830"/>
      <point x="110" y="739"/>
      <point x="110" y="586" type="curve"/>
      <point x="110" y="153" type="line" smooth="yes"/>
      <point x="110" y="52"/>
      <point x="100" y="39"/>
      <point x="24" y="35" type="curve"/>
      <point x="24" y="0" type="line"/>
      <point x="254" y="0" type="line"/>
      <point x="254" y="35" type="line"/>
      <point x="203" y="37"/>
      <point x="190" y="62"/>
      <point x="190" y="161" type="curve"/>
      <point x="190" y="592" type="line" smooth="yes"/>
      <point x="190.0" y="648.706886142"/>
      <point x="198.645699636" y="690.945458609"/>
      <point x="215.121833941" y="720.86505231" type="curve" smooth="yes"/>
      <point x="237.869827118" y="762.173935862"/>
      <point x="275.544437736" y="780.0"/>
      <point x="326" y="780" type="curve"/>
      <point x="398" y="780"/>
      <point x="445" y="730"/>
      <point x="445" y="633" type="curve" smooth="yes"/>
      <point x="445" y="533"/>
      <point x="376" y="487"/>
      <point x="291" y="487" type="curve"/>
      <point x="291" y="436" type="line"/>
      <point x="418" y="436"/>
      <point x="506" y="348"/>
      <point x="506" y="215" type="curve"/>
      <point x="506" y="101"/>
      <point x="455" y="36"/>
      <point x="393" y="36" type="curve" smooth="yes"/>
      <point x="363" y="36"/>
      <point x="367" y="62"/>
      <point x="358" y="84" type="curve" smooth="yes"/>
      <point x="349" y="107"/>
      <point x="334" y="118"/>
      <point x="317" y="118" type="curve" smooth="yes"/>
      <point x="294" y="118"/>
      <point x="276" y="100"/>
      <point x="276" y="70" type="curve" smooth="yes"/>
      <point x="276" y="24"/>
      <point x="317" y="-10"/>
      <point x="386" y="-10" type="curve" smooth="yes"/>
      <point x="492" y="-10"/>
      <point x="596" y="75"/>
      <point x="596" y="218" type="curve"/>
      <point x="596" y="369"/>
      <point x="489" y="447"/>
      <point x="391" y="462" type="curve"/>
      <point x="391" y="467" type="line"/>
      <point x="478" y="489"/>
      <point x="535" y="547"/>
      <point x="535" y="644" type="curve" smooth="yes"/>
      <point x="535" y="758"/>
      <point x="447" y="830"/>
    </contour>
  </outline>
</glyph>
<glyph name="ae" format="1">
  <advance width="850"/>
  <unicode hex="00E6"/>
  <outline>
    <contour>
      <point x="799" y="93" type="line"/>
      <point x="751" y="30"/>
      <point x="682" y="-10"/>
      <point x="596" y="-10" type="curve"/>
      <point x="492" y="-10"/>
      <point x="412" y="39"/>
      <point x="374" y="127" type="curve"/>
      <point x="329" y="22"/>
      <point x="267" y="-9"/>
      <point x="193" y="-9" type="curve"/>
      <point x="92" y="-9"/>
      <point x="43" y="44"/>
      <point x="43" y="115" type="curve" smooth="yes"/>
      <point x="43" y="179"/>
      <point x="84" y="228"/>
      <point x="195" y="273" type="curve" smooth="yes"/>
      <point x="349" y="336" type="line"/>
      <point x="349" y="380" type="line" smooth="yes"/>
      <point x="349" y="463"/>
      <point x="316" y="502"/>
      <point x="259" y="502" type="curve"/>
      <point x="208" y="502"/>
      <point x="183" y="488"/>
      <point x="169" y="437" type="curve" smooth="yes"/>
      <point x="159" y="401"/>
      <point x="140" y="389"/>
      <point x="114" y="389" type="curve"/>
      <point x="85" y="389"/>
      <point x="67" y="407"/>
      <point x="67" y="439" type="curve" smooth="yes"/>
      <point x="67" y="503"/>
      <point x="155" y="540"/>
      <point x="263" y="540" type="curve" smooth="yes"/>
      <point x="353" y="540"/>
      <point x="397" y="509"/>
      <point x="416" y="460" type="curve"/>
      <point x="462" y="511"/>
      <point x="528" y="540"/>
      <point x="607" y="540" type="curve"/>
      <point x="733" y="540"/>
      <point x="804" y="467"/>
      <point x="804" y="337" type="curve" smooth="yes"/>
      <point x="804" y="319"/>
      <point x="800" y="317"/>
      <point x="773" y="317" type="curve" smooth="yes"/>
      <point x="442" y="317" type="line"/>
      <point x="441" y="303"/>
      <point x="440" y="288"/>
      <point x="440" y="272" type="curve"/>
      <point x="440" y="123"/>
      <point x="504" y="42"/>
      <point x="610" y="42" type="curve"/>
      <point x="671" y="42"/>
      <point x="724" y="67"/>
      <point x="770" y="119" type="curve"/>
    </contour>
    <contour>
      <point x="606" y="492" type="curve"/>
      <point x="544" y="492"/>
      <point x="476" y="462"/>
      <point x="450" y="363" type="curve"/>
      <point x="657" y="363" type="line" smooth="yes"/>
      <point x="711" y="363"/>
      <point x="717" y="367"/>
      <point x="717" y="391" type="curve" smooth="yes"/>
      <point x="717" y="452"/>
      <point x="680" y="492"/>
    </contour>
    <contour>
      <point x="349" y="217" type="curve" smooth="yes"/>
      <point x="349" y="299" type="line"/>
      <point x="176" y="234"/>
      <point x="134" y="186"/>
      <point x="134" y="132" type="curve"/>
      <point x="134" y="79"/>
      <point x="166" y="51"/>
      <point x="214" y="51" type="curve" smooth="yes"/>
      <point x="283" y="51"/>
      <point x="349" y="117"/>
    </contour>
    <contour>
      <point x="431" y="651" type="move" name="top"/>
    </contour>
  </outline>
</glyph>
<glyph name="oslash" format="1">
  <advance width="651"/>
  <unicode hex="00F8"/>
  <outline>
    <contour>
      <point x="330" y="540" type="curve" smooth="yes"/>
      <point x="180" y="540"/>
      <point x="73" y="427"/>
      <point x="73" y="269" type="curve" smooth="yes"/>
      <point x="73" y="188"/>
      <point x="99" y="119"/>
      <point x="144" y="70" type="curve"/>
      <point x="40" y="-61" type="line"/>
      <point x="108" y="-61" type="line"/>
      <point x="184" y="35" type="line"/>
      <point x="224" y="6"/>
      <point x="274" y="-10"/>
      <point x="330" y="-10" type="curve" smooth="yes"/>
      <point x="482" y="-10"/>
      <point x="591" y="107"/>
      <point x="591" y="269" type="curve" smooth="yes"/>
      <point x="591" y="346"/>
      <point x="565" y="412"/>
      <point x="521" y="460" type="curve"/>
      <point x="625" y="592" type="line"/>
      <point x="556" y="592" type="line"/>
      <point x="480" y="495" type="line"/>
      <point x="438" y="524"/>
      <point x="387" y="540"/>
    </contour>
    <contour>
      <point x="330" y="492" type="curve" smooth="yes"/>
      <point x="374" y="492"/>
      <point x="411" y="475"/>
      <point x="440" y="445" type="curve"/>
      <point x="193" y="133" type="line"/>
      <point x="176" y="169"/>
      <point x="166" y="215"/>
      <point x="166" y="268" type="curve" smooth="yes"/>
      <point x="166" y="402"/>
      <point x="231" y="492"/>
    </contour>
    <contour>
      <point x="498" y="268" type="curve" smooth="yes"/>
      <point x="498" y="131"/>
      <point x="432" y="41"/>
      <point x="330" y="41" type="curve" smooth="yes"/>
      <point x="288" y="41"/>
      <point x="252" y="57"/>
      <point x="224" y="86" type="curve"/>
      <point x="471" y="398" type="line"/>
      <point x="488" y="362"/>
      <point x="498" y="318"/>
    </contour>
  </outline>
</glyph>
<glyph name="thorn" format="1">
  <advance width="612"/>
  <unicode hex="00FE"/>
  <outline>
    <contour>
      <point x="93" y="-101" type="line" smooth="yes"/>
      <point x="93" y="-193"/>
      <point x="78" y="-211"/>
      <point x="-1" y="-215" type="curve"/>
      <point x="-1" y="-250" type="line"/>
      <point x="262" y="-250" type="line"/>
      <point x="262" y="-215" type="line"/>
      <point x="185" y="-212"/>
      <point x="173" y="-195"/>
      <point x="173" y="-94" type="curve" smooth="yes"/>
      <point x="173" y="62" type="line"/>
      <point x="214" y="13"/>
      <point x="269" y="-10"/>
      <point x="342" y="-10" type="curve"/>
      <point x="473" y="-10"/>
      <point x="564" y="103"/>
      <point x="564" y="266" type="curve" smooth="yes"/>
      <point x="564" y="424"/>
      <point x="483" y="540"/>
      <point x="337" y="540" type="curve"/>
      <point x="267" y="540"/>
      <point x="212" y="512"/>
      <point x="177" y="461" type="curve"/>
      <point x="177" y="461"/>
      <point x="173" y="461"/>
      <point x="173" y="461" type="curve"/>
      <point x="173" y="830" type="line"/>
      <point x="-3" y="793" type="line"/>
      <point x="-3" y="759" type="line"/>
      <point x="61" y="759"/>
      <point x="80" y="751"/>
      <point x="87" y="720" type="curve" smooth="yes"/>
      <point x="91" y="703"/>
      <point x="93" y="652"/>
      <point x="93" y="580" type="curve" smooth="yes"/>
    </contour>
    <contour>
      <point x="177" y="310" type="line" smooth="yes"/>
      <point x="177.0" y="359.359263331"/>
      <point x="186.154369239" y="396.203692765"/>
      <point x="200.834083813" y="423.333948055" type="curve" smooth="yes"/>
      <point x="229.278161404" y="475.902755344"/>
      <point x="278.466975033" y="492.0"/>
      <point x="322" y="492" type="curve"/>
      <point x="423" y="492"/>
      <point x="473" y="404"/>
      <point x="473" y="259" type="curve" smooth="yes"/>
      <point x="473" y="124"/>
      <point x="425" y="38"/>
      <point x="323" y="38" type="curve"/>
      <point x="269" y="38"/>
      <point x="177" y="60"/>
      <point x="177" y="232" type="curve" smooth="yes"/>
    </contour>
  </outline>
</glyph>
<glyph name="dcroat" format="1">
  <advance width="627"/>
  <unicode hex="0111"/>
  <outline>
    <contour>
      <point x="602" y="598" type="line"/>
      <point x="602" y="651" type="line"/>
      <point x="323" y="651" type="line"/>
      <point x="323" y="598" type="line"/>
    </contour>
    <component base="d"/>
  </outline>
</glyph>
<glyph name="gcommaaccent" format="1">
  <advance width="600"/>
  <unicode hex="0123"/>
  <outline>
    <contour>
      <point x="331" y="847" type="line"/>
      <point x="262" y="810"/>
      <point x="236" y="767"/>
      <point x="236" y="724" type="curve" smooth="yes"/>
      <point x="236" y="680"/>
      <point x="259" y="651"/>
      <point x="299" y="651" type="curve" smooth="yes"/>
      <point x="334" y="651"/>
      <point x="358" y="673"/>
      <point x="358" y="704" type="curve" smooth="yes"/>
      <point x="358" y="732"/>
      <point x="340" y="751"/>
      <point x="314" y="751" type="curve" smooth="yes"/>
      <point x="303" y="751"/>
      <point x="294" y="748"/>
      <point x="288" y="743" type="curve"/>
      <point x="288" y="772"/>
      <point x="308" y="796"/>
      <point x="353" y="821" type="curve"/>
    </contour>
    <component base="g" xOffset="9"/>
  </outline>
</glyph>
<glyph name="Hbar" format="1">
  <advance width="897"/>
  <unicode hex="0126"/>
  <outline>
    <contour>
      <point x="66" y="541" type="line"/>
      <point x="66" y="591" type="line"/>
      <point x="840" y="591" type="line"/>
      <point x="840" y="541" type="line"/>
    </contour>
    <component base="H" xOffset="-9"/>
  </outline>
</glyph>
<glyph name="hbar" format="1">
  <advance width="655"/>
  <unicode hex="0127"/>
  <outline>
    <contour>
      <point x="301" y="598" type="line"/>
      <point x="301" y="651" type="line"/>
      <point x="22" y="651" type="line"/>
      <point x="22" y="598" type="line"/>
    </contour>
    <component base="h"/>
  </outline>
</glyph>
<glyph name="dotlessi" format="1">
  <advance width="323"/>
  <unicode hex="0131"/>
  <outline>
    <contour>
      <point x="210" y="540" type="line"/>
      <point x="32" y="502" type="line"/>
      <point x="32" y="467" type="line"/>
      <point x="98" y="467"/>
      <point x="117" y="458"/>
      <point x="123" y="427" type="curve" smooth="yes"/>
      <point x="128" y="409"/>
      <point x="130" y="357"/>
      <point x="130" y="280" type="curve" smooth="yes"/>
      <point x="130" y="152" type="line" smooth="yes"/>
      <point x="130" y="58"/>
      <point x="115" y="39"/>
      <point x="34" y="35" type="curve"/>
      <point x="34" y="0" type="line"/>
      <point x="303" y="0" type="line"/>
      <point x="303" y="35" type="line"/>
      <point x="224" y="38"/>
      <point x="210" y="56"/>
      <point x="210" y="159" type="curve" smooth="yes"/>
    </contour>
    <contour>
      <point x="180" y="651" type="move" name="top"/>
    </contour>
  </outline>
</glyph>
<glyph name="kgreenlandic" format="1">
  <advance width="602"/>
  <unicode hex="0138"/>
  <outline>
    <contour>
      <point x="350" y="0" type="line"/>
      <point x="597" y="0" type="line"/>
      <point x="597" y="35" type="line"/>
      <point x="553" y="35"/>
      <point x="530" y="46"/>
      <point x="491" y="90" type="curve" smooth="yes"/>
      <point x="302" y="304" type="line"/>
      <point x="453" y="442" type="line" smooth="yes"/>
      <point x="502" y="486"/>
      <point x="522" y="495"/>
      <point x="571" y="495" type="curve"/>
      <point x="571" y="530" type="line"/>
      <point x="311" y="530" type="line"/>
      <point x="311" y="495" type="line"/>
      <point x="369" y="495"/>
      <point x="389" y="490"/>
      <point x="389" y="475" type="curve" smooth="yes"/>
      <point x="389" y="460"/>
      <point x="368" y="435"/>
      <point x="303" y="372" type="curve" smooth="yes"/>
      <point x="210" y="281" type="line"/>
      <point x="210" y="550" type="line"/>
      <point x="32" y="512" type="line"/>
      <point x="32" y="478" type="line"/>
      <point x="120" y="478"/>
      <point x="130" y="466"/>
      <point x="130" y="360" type="curve" smooth="yes"/>
      <point x="130" y="152" type="line" smooth="yes"/>
      <point x="130" y="56"/>
      <point x="113" y="35"/>
      <point x="34" y="35" type="curve"/>
      <point x="34" y="0" type="line"/>
      <point x="303" y="0" type="line"/>
      <point x="303" y="35" type="line"/>
      <point x="225" y="35"/>
      <point x="210" y="55"/>
      <point x="210" y="159" type="curve" smooth="yes"/>
      <point x="210" y="218" type="line"/>
      <point x="247" y="253" type="line"/>
      <point x="353" y="125" type="line" smooth="yes"/>
      <point x="392" y="78"/>
      <point x="402" y="62"/>
      <point x="402" y="50" type="curve" smooth="yes"/>
      <point x="402" y="38"/>
      <point x="392" y="35"/>
      <point x="350" y="35" type="curve"/>
    </contour>
  </outline>
</glyph>
<glyph name="Lslash" format="1">
  <advance width="708"/>
  <unicode hex="0141"/>
  <outline>
    <contour>
      <point x="56" y="267" type="line"/>
      <point x="56" y="327" type="line"/>
      <point x="380" y="530" type="line"/>
      <point x="380" y="470" type="line"/>
    </contour>
    <component base="L" xOffset="-9"/>
  </outline>
</glyph>
<glyph name="lslash" format="1">
  <advance width="314"/>
  <unicode hex="0142"/>
  <outline>
    <contour>
      <point x="278" y="449" type="line"/>
      <point x="278" y="514" type="line"/>
      <point x="26" y="357" type="line"/>
      <point x="26" y="292" type="line"/>
    </contour>
    <component base="l" xOffset="1"/>
  </outline>
</glyph>
<glyph name="Eng" format="1">
  <advance width="890"/>
  <unicode hex="014A"/>
  <outline>
    <contour>
      <point x="682" y="-10" type="line"/>
      <point x="219" y="636" type="line"/>
      <point x="215" y="636" type="line"/>
      <point x="215" y="189" type="line" smooth="yes"/>
      <point x="215" y="57"/>
      <point x="229" y="41"/>
      <point x="314" y="38" type="curve"/>
      <point x="314" y="0" type="line"/>
      <point x="45" y="0" type="line"/>
      <point x="45" y="38" type="line"/>
      <point x="139" y="41"/>
      <point x="155" y="58"/>
      <point x="155" y="182" type="curve" smooth="yes"/>
      <point x="155" y="588" type="line" smooth="yes"/>
      <point x="155" y="701"/>
      <point x="141" y="728"/>
      <point x="55" y="732" type="curve"/>
      <point x="55" y="770" type="line"/>
      <point x="253" y="770" type="line"/>
      <point x="678" y="167" type="line"/>
      <point x="682" y="167" type="line"/>
      <point x="682" y="581" type="line" smooth="yes"/>
      <point x="682" y="713"/>
      <point x="668" y="729"/>
      <point x="583" y="732" type="curve"/>
      <point x="583" y="770" type="line"/>
      <point x="852" y="770" type="line"/>
      <point x="852" y="732" type="line"/>
      <point x="758" y="729"/>
      <point x="742" y="712"/>
      <point x="742" y="588" type="curve" smooth="yes"/>
      <point x="742" y="-10" type="line"/>
      <point x="742" y="-172"/>
      <point x="667" y="-260"/>
      <point x="534" y="-260" type="curve" smooth="yes"/>
      <point x="443" y="-260"/>
      <point x="382" y="-221"/>
      <point x="382" y="-163" type="curve" smooth="yes"/>
      <point x="382" y="-129"/>
      <point x="401" y="-110"/>
      <point x="433" y="-110" type="curve" smooth="yes"/>
      <point x="458" y="-110"/>
      <point x="470" y="-120"/>
      <point x="490" y="-157" type="curve" smooth="yes"/>
      <point x="513" y="-200"/>
      <point x="526" y="-212"/>
      <point x="552" y="-212" type="curve" smooth="yes"/>
      <point x="634" y="-212"/>
      <point x="682" y="-150"/>
      <point x="682" y="-43" type="curve" smooth="yes"/>
    </contour>
  </outline>
</glyph>
<glyph name="eng" format="1">
  <advance width="642"/>
  <unicode hex="014B"/>
  <outline>
    <contour>
      <point x="202" y="297" type="line"/>
      <point x="201.5" y="359.0"/>
      <point x="218.25" y="406.0"/>
      <point x="245.5" y="437.5" type="curve" smooth="yes"/>
      <point x="272.75" y="469.0"/>
      <point x="310.5" y="485.0"/>
      <point x="352" y="485" type="curve"/>
      <point x="436" y="485"/>
      <point x="481" y="433"/>
      <point x="482" y="293" type="curve"/>
      <point x="482" y="-68" type="line"/>
      <point x="482" y="-179"/>
      <point x="467" y="-217"/>
      <point x="403" y="-217" type="curve" smooth="yes"/>
      <point x="370" y="-217"/>
      <point x="357" y="-207"/>
      <point x="336" y="-167" type="curve" smooth="yes"/>
      <point x="320" y="-136"/>
      <point x="308" y="-120"/>
      <point x="282" y="-120" type="curve"/>
      <point x="255" y="-120"/>
      <point x="239" y="-137"/>
      <point x="239" y="-162" type="curve"/>
      <point x="239" y="-217"/>
      <point x="297" y="-260"/>
      <point x="382" y="-260" type="curve" smooth="yes"/>
      <point x="512" y="-260"/>
      <point x="562" y="-168"/>
      <point x="562" y="-2" type="curve"/>
      <point x="562" y="314" type="line"/>
      <point x="561.5" y="391.0"/>
      <point x="544.0" y="447.5"/>
      <point x="512.125" y="484.75" type="curve" smooth="yes"/>
      <point x="480.25" y="522.0"/>
      <point x="434.0" y="540.0"/>
      <point x="376" y="540" type="curve"/>
      <point x="302" y="540"/>
      <point x="244" y="510"/>
      <point x="196" y="441" type="curve"/>
      <point x="192" y="441" type="line"/>
      <point x="180" y="540" type="line"/>
      <point x="35" y="502" type="line"/>
      <point x="35" y="470" type="line"/>
      <point x="92" y="470"/>
      <point x="106" y="464"/>
      <point x="115" y="428" type="curve"/>
      <point x="118" y="411"/>
      <point x="120" y="361"/>
      <point x="121" y="283" type="curve"/>
      <point x="121" y="150" type="line"/>
      <point x="120" y="50"/>
      <point x="110" y="39"/>
      <point x="37" y="34" type="curve"/>
      <point x="37" y="0" type="line"/>
      <point x="284" y="0" type="line"/>
      <point x="284" y="35" type="line"/>
      <point x="207" y="40"/>
      <point x="201" y="49"/>
      <point x="202" y="159" type="curve"/>
    </contour>
  </outline>
</glyph>
<glyph name="OE" format="1">
  <advance width="1118"/>
  <unicode hex="0152"/>
  <outline>
    <contour>
      <point x="457" y="770" type="line"/>
      <point x="223" y="770"/>
      <point x="58" y="605"/>
      <point x="58" y="379" type="curve" smooth="yes"/>
      <point x="58" y="162"/>
      <point x="215" y="0"/>
      <point x="447" y="0" type="curve"/>
      <point x="1058" y="0" type="line"/>
      <point x="1073" y="197" type="line"/>
      <point x="1035" y="197" type="line"/>
      <point x="1009" y="79"/>
      <point x="959" y="43"/>
      <point x="818" y="43" type="curve" smooth="yes"/>
      <point x="692" y="43"/>
      <point x="652" y="70"/>
      <point x="652" y="157" type="curve" smooth="yes"/>
      <point x="652" y="383" type="line"/>
      <point x="802" y="382"/>
      <point x="841" y="345"/>
      <point x="841" y="265" type="curve"/>
      <point x="876" y="265" type="line"/>
      <point x="876" y="538" type="line"/>
      <point x="841" y="538" type="line"/>
      <point x="841" y="457"/>
      <point x="796" y="423"/>
      <point x="652" y="423" type="curve"/>
      <point x="652" y="710" type="line" smooth="yes"/>
      <point x="652" y="720"/>
      <point x="658" y="727"/>
      <point x="669" y="727" type="curve" smooth="yes"/>
      <point x="796" y="727" type="line" smooth="yes"/>
      <point x="932" y="727"/>
      <point x="983" y="700"/>
      <point x="999" y="594" type="curve"/>
      <point x="1034" y="594" type="line"/>
      <point x="1025" y="770" type="line"/>
    </contour>
    <contour>
      <point x="449" y="730" type="curve" smooth="yes"/>
      <point x="535" y="730"/>
      <point x="557" y="711"/>
      <point x="557" y="618" type="curve" smooth="yes"/>
      <point x="557" y="152" type="line" smooth="yes"/>
      <point x="557" y="58"/>
      <point x="544" y="42"/>
      <point x="449" y="42" type="curve"/>
      <point x="273" y="42"/>
      <point x="164" y="173"/>
      <point x="164" y="376" type="curve" smooth="yes"/>
      <point x="164" y="590"/>
      <point x="273" y="730"/>
    </contour>
  </outline>
</glyph>
<glyph name="Tbar" format="1">
  <advance width="741"/>
  <unicode hex="0166"/>
  <outline>
    <contour>
      <point x="631" y="417" type="line"/>
      <point x="631" y="467" type="line"/>
      <point x="104" y="467" type="line"/>
      <point x="104" y="417" type="line"/>
    </contour>
    <component base="T" xOffset="-34"/>
  </outline>
</glyph>
<glyph name="Schwa" format="1">
  <advance width="803"/>
  <unicode hex="018F"/>
  <outline>
    <contour>
      <point x="99" y="606" type="line"/>
      <point x="175" y="695"/>
      <point x="244" y="724"/>
      <point x="357" y="724" type="curve"/>
      <point x="513" y="724"/>
      <point x="635" y="585"/>
      <point x="635" y="375" type="curve" smooth="yes"/>
      <point x="635" y="353"/>
      <point x="633" y="332"/>
      <point x="630" y="311" type="curve"/>
      <point x="103" y="311" type="line" smooth="yes"/>
      <point x="64" y="311"/>
      <point x="58" y="308"/>
      <point x="58" y="282" type="curve" smooth="yes"/>
      <point x="58" y="95"/>
      <point x="166" y="-10"/>
      <point x="350" y="-10" type="curve" smooth="yes"/>
      <point x="581" y="-10"/>
      <point x="744" y="158"/>
      <point x="744" y="394" type="curve" smooth="yes"/>
      <point x="744" y="624"/>
      <point x="595" y="781"/>
      <point x="377" y="781" type="curve" smooth="yes"/>
      <point x="255" y="781"/>
      <point x="142" y="738"/>
      <point x="59" y="637" type="curve"/>
    </contour>
    <contour>
      <point x="613" y="245" type="line"/>
      <point x="575" y="134"/>
      <point x="488" y="48"/>
      <point x="373" y="48" type="curve" smooth="yes"/>
      <point x="266" y="48"/>
      <point x="184" y="110"/>
      <point x="184" y="204" type="curve" smooth="yes"/>
      <point x="184" y="239"/>
      <point x="192" y="245"/>
      <point x="270" y="245" type="curve"/>
    </contour>
  </outline>
</glyph>
<glyph name="florin" format="1">
  <advance width="667"/>
  <unicode hex="0192"/>
  <outline>
    <contour>
      <point x="65" y="-211" type="curve" smooth="yes"/>
      <point x="42" y="-211"/>
      <point x="31" y="-201"/>
      <point x="7" y="-158" type="curve" smooth="yes"/>
      <point x="-6" y="-135"/>
      <point x="-24" y="-124"/>
      <point x="-46" y="-124" type="curve" smooth="yes"/>
      <point x="-75" y="-124"/>
      <point x="-93" y="-143"/>
      <point x="-93" y="-173" type="curve" smooth="yes"/>
      <point x="-93" y="-223"/>
      <point x="-42" y="-260"/>
      <point x="27" y="-260" type="curve" smooth="yes"/>
      <point x="108.470814943" y="-260.0"/>
      <point x="165.559000014" y="-219.023635909"/>
      <point x="210.680009751" y="-112.83121077" type="curve" smooth="yes"/>
      <point x="243.095248639" y="-36.5418535696"/>
      <point x="269.334129155" y="73.4060532451"/>
      <point x="294" y="226" type="curve" smooth="yes"/>
      <point x="325" y="419" type="line"/>
      <point x="451" y="419" type="line"/>
      <point x="464" y="467" type="line"/>
      <point x="330" y="467" type="line"/>
      <point x="340" y="523" type="line" smooth="yes"/>
      <point x="365" y="663"/>
      <point x="404" y="732"/>
      <point x="461" y="732" type="curve" smooth="yes"/>
      <point x="482" y="732"/>
      <point x="507" y="724"/>
      <point x="539" y="698" type="curve" smooth="yes"/>
      <point x="568" y="674"/>
      <point x="584" y="665"/>
      <point x="600" y="665" type="curve" smooth="yes"/>
      <point x="624" y="665"/>
      <point x="644" y="685"/>
      <point x="644" y="710" type="curve" smooth="yes"/>
      <point x="644" y="750"/>
      <point x="587" y="780"/>
      <point x="511" y="780" type="curve" smooth="yes"/>
      <point x="380" y="780"/>
      <point x="285" y="685"/>
      <point x="255" y="525" type="curve" smooth="yes"/>
      <point x="244" y="467" type="line"/>
      <point x="144" y="467" type="line"/>
      <point x="130" y="419" type="line"/>
      <point x="235" y="419" type="line"/>
      <point x="185" y="82" type="line" smooth="yes"/>
      <point x="153" y="-129"/>
      <point x="120" y="-211"/>
    </contour>
  </outline>
</glyph>
<glyph name="dotlessj" format="1">
  <advance width="277"/>
  <unicode hex="0237"/>
  <outline>
    <contour>
      <point x="186" y="540" type="line"/>
      <point x="5" y="502" type="line"/>
      <point x="5" y="467" type="line"/>
      <point x="71" y="467"/>
      <point x="90" y="458"/>
      <point x="96" y="427" type="curve" smooth="yes"/>
      <point x="101" y="409"/>
      <point x="103" y="357"/>
      <point x="103" y="280" type="curve" smooth="yes"/>
      <point x="103" y="-68" type="line" smooth="yes"/>
      <point x="103" y="-179"/>
      <point x="91" y="-217"/>
      <point x="27" y="-217" type="curve" smooth="yes"/>
      <point x="-6" y="-217"/>
      <point x="-19" y="-207"/>
      <point x="-40" y="-167" type="curve" smooth="yes"/>
      <point x="-56" y="-136"/>
      <point x="-68" y="-120"/>
      <point x="-94" y="-120" type="curve"/>
      <point x="-121" y="-120"/>
      <point x="-137" y="-137"/>
      <point x="-137" y="-162" type="curve"/>
      <point x="-137" y="-217"/>
      <point x="-79" y="-260"/>
      <point x="6" y="-260" type="curve" smooth="yes"/>
      <point x="136" y="-260"/>
      <point x="186" y="-168"/>
      <point x="186" y="-2" type="curve" smooth="yes"/>
    </contour>
    <contour>
      <point x="150" y="651" type="move" name="top"/>
    </contour>
  </outline>
</glyph>
<glyph name="schwa" format="1">
  <advance width="552"/>
  <unicode hex="0259"/>
  <outline>
    <contour>
      <point x="82" y="411" type="line"/>
      <point x="128" y="463"/>
      <point x="181" y="488"/>
      <point x="242" y="488" type="curve"/>
      <point x="348" y="488"/>
      <point x="412" y="407"/>
      <point x="412" y="258" type="curve"/>
      <point x="412" y="242"/>
      <point x="411" y="227"/>
      <point x="410" y="213" type="curve"/>
      <point x="79" y="213" type="line" smooth="yes"/>
      <point x="52" y="213"/>
      <point x="48" y="211"/>
      <point x="48" y="193" type="curve" smooth="yes"/>
      <point x="48" y="63"/>
      <point x="119" y="-10"/>
      <point x="245" y="-10" type="curve"/>
      <point x="398" y="-10"/>
      <point x="503" y="97"/>
      <point x="503" y="271" type="curve"/>
      <point x="503" y="441"/>
      <point x="404" y="540"/>
      <point x="256" y="540" type="curve"/>
      <point x="170" y="540"/>
      <point x="101" y="500"/>
      <point x="53" y="437" type="curve"/>
    </contour>
    <contour>
      <point x="402" y="167" type="line"/>
      <point x="376" y="68"/>
      <point x="308" y="38"/>
      <point x="246" y="38" type="curve"/>
      <point x="172" y="38"/>
      <point x="135" y="78"/>
      <point x="135" y="139" type="curve" smooth="yes"/>
      <point x="135" y="163"/>
      <point x="141" y="167"/>
      <point x="195" y="167" type="curve" smooth="yes"/>
    </contour>
  </outline>
</glyph>
<glyph name="ogonek" format="1">
  <advance width="265"/>
  <unicode hex="02DB"/>
  <outline>
    <contour>
      <point x="225" y="-121" type="line"/>
      <point x="190" y="-157"/>
      <point x="145" y="-175"/>
      <point x="120" y="-175" type="curve" smooth="yes"/>
      <point x="88" y="-175"/>
      <point x="69" y="-160"/>
      <point x="69" y="-127" type="curve" smooth="yes"/>
      <point x="69" y="-85"/>
      <point x="130" y="-28"/>
      <point x="202" y="7" type="curve"/>
      <point x="202" y="11" type="line"/>
      <point x="149" y="11" type="line"/>
      <point x="55" y="-26"/>
      <point x="0" y="-86"/>
      <point x="0" y="-149" type="curve" smooth="yes"/>
      <point x="0" y="-202"/>
      <point x="46" y="-234"/>
      <point x="97" y="-234" type="curve" smooth="yes"/>
      <point x="155" y="-234"/>
      <point x="207" y="-213"/>
      <point x="254" y="-152" type="curve"/>
    </contour>
    <contour>
      <point x="166" y="0" type="move" name="_bottom"/>
    </contour>
  </outline>
</glyph>
<glyph name="uni03BC" format="1">
  <advance width="704"/>
  <unicode hex="03BC"/>
  <outline>
    <contour>
      <point x="179" y="82" type="line"/>
      <point x="206" y="22"/>
      <point x="249" y="-10"/>
      <point x="303" y="-10" type="curve"/>
      <point x="375" y="-10"/>
      <point x="444" y="27"/>
      <point x="495" y="109" type="curve"/>
      <point x="499" y="109" type="line"/>
      <point x="510" y="-11" type="line"/>
      <point x="657" y="1" type="line"/>
      <point x="657" y="36" type="line"/>
      <point x="596" y="36"/>
      <point x="582" y="42"/>
      <point x="576" y="76" type="curve" smooth="yes"/>
      <point x="572" y="100"/>
      <point x="570" y="147"/>
      <point x="570" y="223" type="curve" smooth="yes"/>
      <point x="570" y="530" type="line"/>
      <point x="407" y="530" type="line"/>
      <point x="407" y="495" type="line"/>
      <point x="484" y="487"/>
      <point x="490" y="479"/>
      <point x="490" y="370" type="curve" smooth="yes"/>
      <point x="490" y="282" type="line" smooth="yes"/>
      <point x="490.0" y="222.047939122"/>
      <point x="477.699679135" y="172.958499268"/>
      <point x="457.249074031" y="135.62553448" type="curve" smooth="yes"/>
      <point x="426.532284376" y="79.5514564394"/>
      <point x="377.428443879" y="50.0"/>
      <point x="324" y="50" type="curve"/>
      <point x="264" y="50"/>
      <point x="210" y="80"/>
      <point x="210" y="227" type="curve"/>
      <point x="210" y="530" type="line"/>
      <point x="47" y="530" type="line"/>
      <point x="47" y="495" type="line"/>
      <point x="124" y="488"/>
      <point x="130" y="479"/>
      <point x="130" y="370" type="curve" smooth="yes"/>
      <point x="130" y="-167" type="line"/>
      <point x="130" y="-225"/>
      <point x="140" y="-260"/>
      <point x="170" y="-260" type="curve" smooth="yes"/>
      <point x="204" y="-260"/>
      <point x="216" y="-231"/>
      <point x="216" y="-190" type="curve" smooth="yes"/>
      <point x="216" y="-153"/>
      <point x="196" y="-23"/>
      <point x="175" y="81" type="curve"/>
    </contour>
    <contour>
      <point x="311" y="651" type="move" name="top"/>
    </contour>
    <contour>
      <point x="316" y="-41" type="move" name="bottom"/>
    </contour>
  </outline>
</glyph>
<glyph name="perthousand" format="1">
  <advance width="916"/>
  <unicode hex="2030"/>
  <outline>
    <contour>
      <point x="636" y="770" type="line"/>
      <point x="588" y="770" type="line"/>
      <point x="35" y="0" type="line"/>
      <point x="92" y="0" type="line"/>
    </contour>
    <contour>
      <point x="200" y="780" type="curve" smooth="yes"/>
      <point x="135" y="780"/>
      <point x="82" y="710"/>
      <point x="82" y="620" type="curve" smooth="yes"/>
      <point x="82" y="533"/>
      <point x="135" y="464"/>
      <point x="200" y="464" type="curve" smooth="yes"/>
      <point x="265" y="464"/>
      <point x="318" y="533"/>
      <point x="318" y="620" type="curve" smooth="yes"/>
      <point x="318" y="710"/>
      <point x="265" y="780"/>
    </contour>
    <contour>
      <point x="200" y="489" type="curve" smooth="yes"/>
      <point x="161" y="489"/>
      <point x="139" y="518"/>
      <point x="139" y="618" type="curve" smooth="yes"/>
      <point x="139" y="723"/>
      <point x="161" y="755"/>
      <point x="200" y="755" type="curve" smooth="yes"/>
      <point x="239" y="755"/>
      <point x="261" y="723"/>
      <point x="261" y="618" type="curve" smooth="yes"/>
      <point x="261" y="518"/>
      <point x="238" y="489"/>
    </contour>
    <contour>
      <point x="762" y="306" type="curve" smooth="yes"/>
      <point x="697" y="306"/>
      <point x="644" y="236"/>
      <point x="644" y="146" type="curve" smooth="yes"/>
      <point x="644" y="59"/>
      <point x="697" y="-10"/>
      <point x="762" y="-10" type="curve" smooth="yes"/>
      <point x="827" y="-10"/>
      <point x="880" y="59"/>
      <point x="880" y="146" type="curve" smooth="yes"/>
      <point x="880" y="236"/>
      <point x="827" y="306"/>
    </contour>
    <contour>
      <point x="762" y="15" type="curve" smooth="yes"/>
      <point x="723" y="15"/>
      <point x="701" y="44"/>
      <point x="701" y="144" type="curve" smooth="yes"/>
      <point x="701" y="249"/>
      <point x="723" y="281"/>
      <point x="762" y="281" type="curve" smooth="yes"/>
      <point x="801" y="281"/>
      <point x="823" y="249"/>
      <point x="823" y="144" type="curve" smooth="yes"/>
      <point x="823" y="44"/>
      <point x="800" y="15"/>
    </contour>
    <contour>
      <point x="471" y="306" type="curve" smooth="yes"/>
      <point x="406" y="306"/>
      <point x="353" y="236"/>
      <point x="353" y="146" type="curve" smooth="yes"/>
      <point x="353" y="59"/>
      <point x="406" y="-10"/>
      <point x="471" y="-10" type="curve" smooth="yes"/>
      <point x="536" y="-10"/>
      <point x="589" y="59"/>
      <point x="589" y="146" type="curve" smooth="yes"/>
      <point x="589" y="236"/>
      <point x="536" y="306"/>
    </contour>
    <contour>
      <point x="471" y="15" type="curve" smooth="yes"/>
      <point x="432" y="15"/>
      <point x="410" y="44"/>
      <point x="410" y="144" type="curve" smooth="yes"/>
      <point x="410" y="249"/>
      <point x="432" y="281"/>
      <point x="471" y="281" type="curve" smooth="yes"/>
      <point x="510" y="281"/>
      <point x="532" y="249"/>
      <point x="532" y="144" type="curve" smooth="yes"/>
      <point x="532" y="44"/>
      <point x="509" y="15"/>
    </contour>
  </outline>
</glyph>
<glyph name="Euro" format="1">
  <advance width="717"/>
  <unicode hex="20AC"/>
  <outline>
    <contour>
      <point x="488" y="358" type="line"/>
      <point x="233" y="358" type="line"/>
      <point x="232" y="367"/>
      <point x="232" y="377"/>
      <point x="232" y="387" type="curve" smooth="yes"/>
      <point x="232" y="401"/>
      <point x="233" y="416"/>
      <point x="234" y="430" type="curve"/>
      <point x="488" y="430" type="line"/>
      <point x="488" y="488" type="line"/>
      <point x="237" y="488" type="line"/>
      <point x="237" y="667"/>
      <point x="321" y="732"/>
      <point x="409" y="732" type="curve"/>
      <point x="494" y="732"/>
      <point x="564" y="669"/>
      <point x="586" y="554" type="curve"/>
      <point x="629" y="554" type="line"/>
      <point x="629" y="770" type="line"/>
      <point x="601" y="770" type="line"/>
      <point x="584" y="719" type="line"/>
      <point x="539" y="756"/>
      <point x="488" y="780"/>
      <point x="414" y="780" type="curve"/>
      <point x="273" y="780"/>
      <point x="166" y="675"/>
      <point x="132" y="488" type="curve"/>
      <point x="42" y="488" type="line"/>
      <point x="42" y="430" type="line"/>
      <point x="126" y="430" type="line"/>
      <point x="124" y="416"/>
      <point x="123" y="402"/>
      <point x="123" y="388" type="curve" smooth="yes"/>
      <point x="123" y="378"/>
      <point x="123" y="368"/>
      <point x="124" y="358" type="curve"/>
      <point x="43" y="358" type="line"/>
      <point x="43" y="300" type="line"/>
      <point x="129" y="300" type="line"/>
      <point x="158" y="110"/>
      <point x="272" y="-10"/>
      <point x="423" y="-10" type="curve" smooth="yes"/>
      <point x="494" y="-10"/>
      <point x="553" y="16"/>
      <point x="598" y="69" type="curve"/>
      <point x="610" y="0" type="line"/>
      <point x="644" y="0" type="line"/>
      <point x="644" y="252" type="line"/>
      <point x="601" y="252" type="line"/>
      <point x="590" y="124"/>
      <point x="522" y="38"/>
      <point x="431" y="38" type="curve" smooth="yes"/>
      <point x="327" y="38"/>
      <point x="235" y="145"/>
      <point x="235" y="300" type="curve"/>
      <point x="488" y="300" type="line"/>
    </contour>
  </outline>
</glyph>
<glyph name="servicemark" format="1">
  <advance width="794"/>
  <unicode hex="2120"/>
  <outline>
    <contour>
      <point x="383" y="543" type="line" smooth="yes"/>
      <point x="383" y="490"/>
      <point x="389" y="482"/>
      <point x="427" y="482" type="curve"/>
      <point x="427" y="462" type="line"/>
      <point x="310" y="462" type="line"/>
      <point x="310" y="482" type="line"/>
      <point x="348" y="482"/>
      <point x="354" y="490"/>
      <point x="354" y="540" type="curve" smooth="yes"/>
      <point x="354" y="692" type="line" smooth="yes"/>
      <point x="354" y="738"/>
      <point x="346" y="750"/>
      <point x="314" y="750" type="curve"/>
      <point x="314" y="770" type="line"/>
      <point x="418" y="770" type="line"/>
      <point x="512" y="539" type="line"/>
      <point x="516" y="539" type="line"/>
      <point x="618" y="770" type="line"/>
      <point x="713" y="770" type="line"/>
      <point x="713" y="750" type="line"/>
      <point x="681" y="750"/>
      <point x="673" y="738"/>
      <point x="673" y="689" type="curve" smooth="yes"/>
      <point x="673" y="543" type="line" smooth="yes"/>
      <point x="673" y="491"/>
      <point x="679" y="482"/>
      <point x="717" y="482" type="curve"/>
      <point x="717" y="462" type="line"/>
      <point x="585" y="462" type="line"/>
      <point x="585" y="482" type="line"/>
      <point x="623" y="482"/>
      <point x="629" y="492"/>
      <point x="629" y="540" type="curve" smooth="yes"/>
      <point x="629" y="720" type="line"/>
      <point x="625" y="720" type="line"/>
      <point x="508" y="458" type="line"/>
      <point x="500" y="458" type="line"/>
      <point x="387" y="720" type="line"/>
      <point x="383" y="720" type="line"/>
    </contour>
    <contour>
      <point x="82" y="472" type="line"/>
      <point x="92" y="472" type="line"/>
      <point x="103" y="492" type="line"/>
      <point x="126" y="476"/>
      <point x="149" y="464"/>
      <point x="191" y="464" type="curve"/>
      <point x="247" y="464"/>
      <point x="290" y="500"/>
      <point x="290" y="550" type="curve"/>
      <point x="290" y="593"/>
      <point x="269" y="615"/>
      <point x="188" y="654" type="curve" smooth="yes"/>
      <point x="146" y="674"/>
      <point x="129" y="689"/>
      <point x="129" y="715" type="curve" smooth="yes"/>
      <point x="129" y="740"/>
      <point x="150" y="755"/>
      <point x="180" y="755" type="curve" smooth="yes"/>
      <point x="213" y="755"/>
      <point x="236" y="735"/>
      <point x="250" y="695" type="curve"/>
      <point x="267" y="695" type="line"/>
      <point x="262" y="774" type="line"/>
      <point x="253" y="774" type="line"/>
      <point x="242" y="756" type="line"/>
      <point x="220" y="773"/>
      <point x="201" y="780"/>
      <point x="179" y="780" type="curve" smooth="yes"/>
      <point x="126" y="780"/>
      <point x="89" y="747"/>
      <point x="89" y="701" type="curve" smooth="yes"/>
      <point x="89" y="658"/>
      <point x="115" y="634"/>
      <point x="176" y="605" type="curve" smooth="yes"/>
      <point x="227" y="581"/>
      <point x="244" y="565"/>
      <point x="244" y="537" type="curve" smooth="yes"/>
      <point x="244" y="506"/>
      <point x="219" y="489"/>
      <point x="181" y="489" type="curve" smooth="yes"/>
      <point x="135" y="489"/>
      <point x="100" y="517"/>
      <point x="93" y="562" type="curve"/>
      <point x="75" y="562" type="line"/>
    </contour>
  </outline>
</glyph>
<glyph name="trademark" format="1">
  <advance width="881"/>
  <unicode hex="2122"/>
  <outline>
    <contour>
      <point x="371" y="770" type="line"/>
      <point x="73" y="770" type="line"/>
      <point x="73" y="694" type="line"/>
      <point x="93" y="694" type="line"/>
      <point x="95" y="737"/>
      <point x="108" y="748"/>
      <point x="158" y="748" type="curve" smooth="yes"/>
      <point x="190" y="748"/>
      <point x="200" y="741"/>
      <point x="200" y="731" type="curve" smooth="yes"/>
      <point x="200" y="531" type="line" smooth="yes"/>
      <point x="200" y="493"/>
      <point x="188" y="482"/>
      <point x="145" y="482" type="curve"/>
      <point x="145" y="462" type="line"/>
      <point x="302" y="462" type="line"/>
      <point x="302" y="482" type="line"/>
      <point x="259" y="482"/>
      <point x="247" y="492"/>
      <point x="247" y="531" type="curve" smooth="yes"/>
      <point x="247" y="731" type="line" smooth="yes"/>
      <point x="247" y="741"/>
      <point x="257" y="748"/>
      <point x="288" y="748" type="curve" smooth="yes"/>
      <point x="336" y="748"/>
      <point x="345" y="740"/>
      <point x="350" y="694" type="curve"/>
      <point x="371" y="694" type="line"/>
    </contour>
    <contour>
      <point x="603" y="539" type="line"/>
      <point x="705" y="770" type="line"/>
      <point x="800" y="770" type="line"/>
      <point x="800" y="750" type="line"/>
      <point x="768" y="750"/>
      <point x="760" y="738"/>
      <point x="760" y="689" type="curve" smooth="yes"/>
      <point x="760" y="543" type="line" smooth="yes"/>
      <point x="760" y="491"/>
      <point x="766" y="482"/>
      <point x="804" y="482" type="curve"/>
      <point x="804" y="462" type="line"/>
      <point x="672" y="462" type="line"/>
      <point x="672" y="482" type="line"/>
      <point x="710" y="482"/>
      <point x="716" y="492"/>
      <point x="716" y="540" type="curve" smooth="yes"/>
      <point x="716" y="720" type="line"/>
      <point x="712" y="720" type="line"/>
      <point x="595" y="458" type="line"/>
      <point x="587" y="458" type="line"/>
      <point x="474" y="720" type="line"/>
      <point x="470" y="720" type="line"/>
      <point x="470" y="543" type="line" smooth="yes"/>
      <point x="470" y="490"/>
      <point x="476" y="482"/>
      <point x="514" y="482" type="curve"/>
      <point x="514" y="462" type="line"/>
      <point x="397" y="462" type="line"/>
      <point x="397" y="482" type="line"/>
      <point x="435" y="482"/>
      <point x="441" y="490"/>
      <point x="441" y="540" type="curve" smooth="yes"/>
      <point x="441" y="692" type="line" smooth="yes"/>
      <point x="441" y="738"/>
      <point x="433" y="750"/>
      <point x="401" y="750" type="curve"/>
      <point x="401" y="770" type="line"/>
      <point x="505" y="770" type="line"/>
      <point x="599" y="539" type="line"/>
    </contour>
  </outline>
</glyph>
<glyph name="c_t" format="1">
  <advance width="910"/>
  <outline>
    <contour>
      <point x="730" y="514" type="line"/>
      <point x="730" y="610" type="line"/>
      <point x="730" y="730"/>
      <point x="670" y="804"/>
      <point x="551" y="804" type="curve"/>
      <point x="455" y="804"/>
      <point x="369" y="745"/>
      <point x="369" y="638" type="curve"/>
      <point x="369" y="598"/>
      <point x="380" y="553"/>
      <point x="394" y="527" type="curve"/>
      <point x="371" y="535"/>
      <point x="344" y="540"/>
      <point x="314" y="540" type="curve"/>
      <point x="152" y="540"/>
      <point x="49" y="431"/>
      <point x="49" y="261" type="curve" smooth="yes"/>
      <point x="49" y="99"/>
      <point x="150" y="-10"/>
      <point x="300" y="-10" type="curve"/>
      <point x="383" y="-10"/>
      <point x="443" y="25"/>
      <point x="491" y="83" type="curve"/>
      <point x="461" y="112" type="line"/>
      <point x="421" y="63"/>
      <point x="373" y="42"/>
      <point x="317" y="42" type="curve"/>
      <point x="206" y="42"/>
      <point x="140" y="124"/>
      <point x="140" y="276" type="curve" smooth="yes"/>
      <point x="140" y="418"/>
      <point x="202" y="494"/>
      <point x="302" y="494" type="curve"/>
      <point x="341" y="494"/>
      <point x="361" y="480"/>
      <point x="388" y="447" type="curve" smooth="yes"/>
      <point x="414" y="416"/>
      <point x="427" y="406"/>
      <point x="449" y="406" type="curve" smooth="yes"/>
      <point x="479" y="406"/>
      <point x="498" y="422"/>
      <point x="498" y="448" type="curve" smooth="yes"/>
      <point x="498" y="466"/>
      <point x="490" y="482"/>
      <point x="476" y="495" type="curve" smooth="yes"/>
      <point x="441" y="530"/>
      <point x="421" y="577"/>
      <point x="421" y="635" type="curve"/>
      <point x="421" y="709"/>
      <point x="468" y="754"/>
      <point x="551" y="754" type="curve"/>
      <point x="634" y="754"/>
      <point x="678" y="696"/>
      <point x="678" y="618" type="curve" smooth="yes"/>
      <point x="678" y="546"/>
      <point x="648" y="526"/>
      <point x="575" y="504" type="curve"/>
      <point x="575" y="467" type="line"/>
      <point x="650" y="467" type="line"/>
      <point x="650" y="132" type="line"/>
      <point x="650" y="32"/>
      <point x="700" y="-10"/>
      <point x="775" y="-10" type="curve"/>
      <point x="828" y="-10"/>
      <point x="872" y="18"/>
      <point x="901" y="66" type="curve"/>
      <point x="876" y="85" type="line"/>
      <point x="858" y="55"/>
      <point x="830" y="39"/>
      <point x="794" y="39" type="curve"/>
      <point x="749" y="39"/>
      <point x="730" y="60"/>
      <point x="730" y="123" type="curve"/>
      <point x="730" y="467" type="line"/>
      <point x="864" y="467" type="line"/>
      <point x="864" y="514" type="line"/>
    </contour>
  </outline>
</glyph>
<glyph name="f_b" format="1">
  <advance width="968"/>
  <outline>
    <contour>
      <point x="533" y="830" type="line"/>
      <point x="454" y="811" type="line"/>
      <point x="429" y="823"/>
      <point x="395" y="830"/>
      <point x="354" y="830" type="curve" smooth="yes"/>
      <point x="205" y="830"/>
      <point x="135" y="739"/>
      <point x="135" y="586" type="curve" smooth="yes"/>
      <point x="135" y="514" type="line"/>
      <point x="22" y="514" type="line"/>
      <point x="22" y="467" type="line"/>
      <point x="135" y="467" type="line"/>
      <point x="135" y="153" type="line" smooth="yes"/>
      <point x="135" y="52"/>
      <point x="125" y="39"/>
      <point x="49" y="35" type="curve"/>
      <point x="49" y="0" type="line"/>
      <point x="319" y="0" type="line"/>
      <point x="319" y="35" type="line"/>
      <point x="235" y="37"/>
      <point x="215" y="62"/>
      <point x="215" y="161" type="curve" smooth="yes"/>
      <point x="215" y="467" type="line"/>
      <point x="376" y="467" type="line"/>
      <point x="376" y="514" type="line"/>
      <point x="215" y="514" type="line"/>
      <point x="215" y="592" type="line" smooth="yes"/>
      <point x="215" y="743"/>
      <point x="246" y="782"/>
      <point x="324" y="782" type="curve"/>
      <point x="355" y="782"/>
      <point x="387" y="767"/>
      <point x="410" y="748" type="curve" smooth="yes"/>
      <point x="455" y="711" type="line"/>
      <point x="455" y="0" type="line"/>
      <point x="487" y="0" type="line"/>
      <point x="506" y="67" type="line"/>
      <point x="548" y="19"/>
      <point x="619" y="-11"/>
      <point x="694" y="-11" type="curve" smooth="yes"/>
      <point x="840" y="-11"/>
      <point x="920" y="108"/>
      <point x="920" y="265" type="curve" smooth="yes"/>
      <point x="920" y="420"/>
      <point x="841" y="540"/>
      <point x="697" y="540" type="curve" smooth="yes"/>
      <point x="630" y="540"/>
      <point x="580" y="515"/>
      <point x="537" y="459" type="curve"/>
      <point x="533" y="459" type="line"/>
    </contour>
    <contour>
      <point x="535" y="298" type="line" smooth="yes"/>
      <point x="535" y="435"/>
      <point x="592" y="493"/>
      <point x="679" y="493" type="curve" smooth="yes"/>
      <point x="773" y="493"/>
      <point x="829" y="398"/>
      <point x="829" y="262" type="curve" smooth="yes"/>
      <point x="829" y="127"/>
      <point x="776" y="37"/>
      <point x="683" y="37" type="curve" smooth="yes"/>
      <point x="597" y="37"/>
      <point x="535" y="109"/>
      <point x="535" y="209" type="curve" smooth="yes"/>
    </contour>
  </outline>
</glyph>
<glyph name="f_f" format="1">
  <advance width="714"/>
  <outline>
    <contour>
      <point x="212" y="467" type="line"/>
      <point x="453" y="467" type="line"/>
      <point x="453" y="153" type="line" smooth="yes"/>
      <point x="453" y="52"/>
      <point x="443" y="39"/>
      <point x="367" y="35" type="curve"/>
      <point x="367" y="0" type="line"/>
      <point x="637" y="0" type="line"/>
      <point x="637" y="35" type="line"/>
      <point x="553" y="37"/>
      <point x="533" y="62"/>
      <point x="533" y="161" type="curve" smooth="yes"/>
      <point x="533" y="467" type="line"/>
      <point x="704" y="467" type="line"/>
      <point x="704" y="514" type="line"/>
      <point x="533" y="514" type="line"/>
      <point x="533" y="592" type="line" smooth="yes"/>
      <point x="533.0" y="649.774795055"/>
      <point x="538.795012055" y="691.774279517"/>
      <point x="549.997529644" y="721.356843229" type="curve" smooth="yes"/>
      <point x="566.71657424" y="765.506936993"/>
      <point x="595.4801144" y="782.0"/>
      <point x="635" y="782" type="curve" smooth="yes"/>
      <point x="660" y="782"/>
      <point x="684" y="773"/>
      <point x="707" y="748" type="curve" smooth="yes"/>
      <point x="733" y="720"/>
      <point x="752" y="715"/>
      <point x="768" y="715" type="curve" smooth="yes"/>
      <point x="793" y="715"/>
      <point x="812" y="732"/>
      <point x="812" y="762" type="curve" smooth="yes"/>
      <point x="812" y="802"/>
      <point x="754" y="830"/>
      <point x="672" y="830" type="curve" smooth="yes"/>
      <point x="580" y="830"/>
      <point x="518" y="795"/>
      <point x="484" y="732" type="curve"/>
      <point x="462" y="761"/>
      <point x="412" y="790"/>
      <point x="348" y="790" type="curve"/>
      <point x="202" y="790"/>
      <point x="132" y="699"/>
      <point x="132" y="546" type="curve" smooth="yes"/>
      <point x="132" y="514" type="line"/>
      <point x="19" y="514" type="line"/>
      <point x="19" y="467" type="line"/>
      <point x="132" y="467" type="line"/>
      <point x="132" y="153" type="line" smooth="yes"/>
      <point x="132" y="52"/>
      <point x="122" y="39"/>
      <point x="46" y="35" type="curve"/>
      <point x="46" y="0" type="line"/>
      <point x="316" y="0" type="line"/>
      <point x="316" y="35" type="line"/>
      <point x="232" y="37"/>
      <point x="212" y="62"/>
      <point x="212" y="161" type="curve" smooth="yes"/>
    </contour>
    <contour>
      <point x="212" y="514" type="line"/>
      <point x="212" y="552" type="line" smooth="yes"/>
      <point x="212.0" y="606.48314625"/>
      <point x="216.710832335" y="647.128222515"/>
      <point x="226.866782343" y="676.533469219" type="curve" smooth="yes"/>
      <point x="243.180392197" y="723.767427835"/>
      <point x="273.543677896" y="742.0"/>
      <point x="321" y="742" type="curve"/>
      <point x="360" y="742"/>
      <point x="386" y="712"/>
      <point x="414" y="689" type="curve" smooth="yes"/>
      <point x="426" y="679"/>
      <point x="439" y="669"/>
      <point x="453" y="664" type="curve"/>
      <point x="453" y="514" type="line"/>
    </contour>
  </outline>
</glyph>
<glyph name="f_f_b" format="1">
  <advance width="1287"/>
  <outline>
    <contour>
      <point x="852" y="830" type="line"/>
      <point x="772" y="811" type="line"/>
      <point x="748" y="823"/>
      <point x="713" y="830"/>
      <point x="672" y="830" type="curve" smooth="yes"/>
      <point x="579" y="830"/>
      <point x="518" y="795"/>
      <point x="484" y="732" type="curve"/>
      <point x="462" y="761"/>
      <point x="412" y="790"/>
      <point x="348" y="790" type="curve"/>
      <point x="202" y="790"/>
      <point x="132" y="699"/>
      <point x="132" y="546" type="curve" smooth="yes"/>
      <point x="132" y="514" type="line"/>
      <point x="19" y="514" type="line"/>
      <point x="19" y="467" type="line"/>
      <point x="132" y="467" type="line"/>
      <point x="132" y="153" type="line" smooth="yes"/>
      <point x="132" y="52"/>
      <point x="122" y="39"/>
      <point x="46" y="35" type="curve"/>
      <point x="46" y="0" type="line"/>
      <point x="316" y="0" type="line"/>
      <point x="316" y="35" type="line"/>
      <point x="232" y="37"/>
      <point x="212" y="62"/>
      <point x="212" y="161" type="curve" smooth="yes"/>
      <point x="212" y="467" type="line"/>
      <point x="453" y="467" type="line"/>
      <point x="453" y="153" type="line" smooth="yes"/>
      <point x="453" y="52"/>
      <point x="443" y="39"/>
      <point x="367" y="35" type="curve"/>
      <point x="367" y="0" type="line"/>
      <point x="637" y="0" type="line"/>
      <point x="637" y="35" type="line"/>
      <point x="553" y="37"/>
      <point x="533" y="62"/>
      <point x="533" y="161" type="curve" smooth="yes"/>
      <point x="533" y="467" type="line"/>
      <point x="694" y="467" type="line"/>
      <point x="694" y="514" type="line"/>
      <point x="533" y="514" type="line"/>
      <point x="533" y="592" type="line" smooth="yes"/>
      <point x="533" y="743"/>
      <point x="564" y="782"/>
      <point x="641" y="782" type="curve"/>
      <point x="680" y="782"/>
      <point x="709" y="764"/>
      <point x="735" y="743" type="curve" smooth="yes"/>
      <point x="774" y="712" type="line"/>
      <point x="774" y="0" type="line"/>
      <point x="806" y="0" type="line"/>
      <point x="825" y="67" type="line"/>
      <point x="867" y="19"/>
      <point x="938" y="-11"/>
      <point x="1013" y="-11" type="curve" smooth="yes"/>
      <point x="1159" y="-11"/>
      <point x="1239" y="108"/>
      <point x="1239" y="265" type="curve" smooth="yes"/>
      <point x="1239" y="420"/>
      <point x="1160" y="540"/>
      <point x="1016" y="540" type="curve" smooth="yes"/>
      <point x="949" y="540"/>
      <point x="899" y="515"/>
      <point x="856" y="459" type="curve"/>
      <point x="852" y="459" type="line"/>
    </contour>
    <contour>
      <point x="854" y="298" type="line" smooth="yes"/>
      <point x="854" y="435"/>
      <point x="911" y="493"/>
      <point x="998" y="493" type="curve" smooth="yes"/>
      <point x="1092" y="493"/>
      <point x="1148" y="398"/>
      <point x="1148" y="262" type="curve" smooth="yes"/>
      <point x="1148" y="127"/>
      <point x="1095" y="37"/>
      <point x="1002" y="37" type="curve" smooth="yes"/>
      <point x="916" y="37"/>
      <point x="854" y="109"/>
      <point x="854" y="209" type="curve" smooth="yes"/>
    </contour>
    <contour>
      <point x="212" y="514" type="line"/>
      <point x="212" y="552" type="line" smooth="yes"/>
      <point x="212" y="694"/>
      <point x="244" y="742"/>
      <point x="321" y="742" type="curve"/>
      <point x="349.0" y="742.0"/>
      <point x="371.0" y="726.75"/>
      <point x="391.5" y="709.375" type="curve" smooth="yes"/>
      <point x="412.0" y="692.0"/>
      <point x="431.0" y="672.5"/>
      <point x="453" y="664" type="curve"/>
      <point x="453" y="514" type="line"/>
    </contour>
  </outline>
</glyph>
